<svg width="23" height="23" viewBox="0 0 23 23" fill="none" xmlns="http://www.w3.org/2000/svg">
<path d="M15.2126 15.2091C14.9862 15.5973 14.7094 15.9638 14.3788 16.2946L9.26102 21.4124C7.14405 23.5293 3.701 23.5293 1.58772 21.4124C-0.529241 19.2954 -0.529241 15.8524 1.58772 13.7391L5.25011 10.0767C5.1783 11.191 5.36146 12.3157 5.80357 13.3617L3.51056 15.6583C2.45392 16.715 2.45392 18.4401 3.51056 19.4967C4.56356 20.5534 6.2887 20.5534 7.34551 19.4967L12.4599 14.3751C12.8122 14.0265 13.0422 13.6024 13.1608 13.1603C13.3298 12.535 13.2687 11.8664 12.9848 11.2806C12.8554 11.0147 12.6828 10.7594 12.4601 10.5438C12.2445 10.3209 11.9893 10.152 11.7269 10.0226C11.7557 9.97591 13.6856 8.0423 13.6856 8.0423C13.9264 8.21488 14.16 8.40533 14.3829 8.62092C14.5985 8.8438 14.789 9.07742 14.9615 9.32183C15.3461 9.85381 15.6156 10.4468 15.7809 11.0577C16.1509 12.4451 15.9604 13.9474 15.2129 15.2089L15.2126 15.2091Z" fill="black"/>
<path d="M21.4121 9.26106L17.7533 12.9234C17.8217 11.8057 17.642 10.6808 17.1999 9.63483L19.4929 7.34183C20.5495 6.28519 20.5495 4.56004 19.4929 3.5034C18.4362 2.44676 16.7111 2.44676 15.6579 3.5034L10.5401 8.6178C10.1915 8.97007 9.96151 9.39051 9.83922 9.83977C9.67757 10.4651 9.73498 11.1337 10.0189 11.7194C10.1447 11.9853 10.3173 12.2334 10.5401 12.4563C10.763 12.6791 11.0109 12.8481 11.277 12.9775C11.2482 13.017 9.31822 14.9578 9.31822 14.9578C9.07747 14.7888 8.8402 14.5947 8.62459 14.3755C8.409 14.1599 8.21855 13.9226 8.04233 13.6782C7.66143 13.1391 7.38827 12.5532 7.22294 11.9387C6.85628 10.555 7.04689 9.0527 7.79445 7.78757C8.0208 7.40303 8.29763 7.0329 8.62824 6.70212L13.7388 1.58772C15.8558 -0.529241 19.2988 -0.529241 21.4121 1.58772C23.5291 3.70469 23.5291 7.14435 21.4121 9.26102L21.4121 9.26106Z" fill="black"/>
</svg>
