<svg width="24" height="20" viewBox="0 0 24 20" fill="none" xmlns="http://www.w3.org/2000/svg">
<path d="M1.47138 8.71006L15.7674 2.77372C17.1786 2.15535 21.9643 0.176567 21.9643 0.176567C21.9643 0.176567 24.1732 -0.68915 23.9891 1.4133C23.9277 2.27902 23.4369 5.30903 22.946 8.58639L21.4121 18.2948C21.4121 18.2948 21.2894 19.717 20.2464 19.9644C19.2033 20.2117 17.4853 19.0987 17.1786 18.8513C16.9331 18.6658 12.5769 15.8831 10.9816 14.5227C10.5521 14.1517 10.0612 13.4097 11.0429 12.5439C13.2518 10.5033 15.8901 7.96802 17.4853 6.36026C18.2216 5.61821 18.9579 3.88678 15.8901 5.98924L7.23886 11.8637C7.23886 11.8637 6.25716 12.4821 4.41648 11.9256C2.57579 11.369 0.428324 10.627 0.428324 10.627C0.428324 10.627 -1.04422 9.69945 1.47138 8.71006Z" fill="#37AEE2"/>
</svg>
