<svg width="30" height="30" viewBox="0 0 30 30" fill="none" xmlns="http://www.w3.org/2000/svg">
<path fill-rule="evenodd" clip-rule="evenodd" d="M29.6 14.8C29.6 22.9738 22.9738 29.6 14.8 29.6C6.62619 29.6 0 22.9738 0 14.8C0 6.62619 6.62619 0 14.8 0C22.9738 0 29.6 6.62619 29.6 14.8ZM15.3302 10.926C13.8907 11.5247 11.0137 12.764 6.69921 14.6437C5.9986 14.9223 5.63159 15.1949 5.59818 15.4614C5.54172 15.9118 6.10575 16.0892 6.87382 16.3307C6.9783 16.3635 7.08655 16.3976 7.19753 16.4337C7.95319 16.6793 8.96969 16.9667 9.49813 16.9781C9.97747 16.9884 10.5125 16.7908 11.1031 16.3852C15.1343 13.6641 17.2152 12.2887 17.3459 12.259C17.438 12.2381 17.5657 12.2118 17.6523 12.2887C17.7388 12.3656 17.7303 12.5113 17.7211 12.5504C17.6653 12.7886 15.4513 14.8469 14.3055 15.9121C13.9483 16.2442 13.6949 16.4798 13.6431 16.5336C13.5271 16.6541 13.4088 16.7681 13.2952 16.8776C12.5932 17.5544 12.0667 18.0619 13.3243 18.8907C13.9287 19.2889 14.4123 19.6183 14.8948 19.9468C15.4217 20.3057 15.9472 20.6636 16.6272 21.1093C16.8004 21.2229 16.9659 21.3408 17.127 21.4557C17.7402 21.8928 18.2911 22.2856 18.9717 22.223C19.3672 22.1866 19.7757 21.8147 19.9832 20.7056C20.4735 18.0845 21.4372 12.4054 21.6599 10.0652C21.6795 9.86014 21.6549 9.59774 21.6352 9.48255C21.6155 9.36736 21.5743 9.20324 21.4246 9.08175C21.2472 8.93786 20.9735 8.90752 20.8511 8.90968C20.2944 8.91948 19.4404 9.21645 15.3302 10.926Z" fill="#31B5FF"/>
</svg>
