<svg width="31" height="30" viewBox="0 0 31 30" fill="none" xmlns="http://www.w3.org/2000/svg">
<path d="M0.466797 14.208C0.466797 7.51026 0.466797 4.16143 2.54751 2.08071C4.62822 0 7.97706 0 14.6748 0H15.8588C22.5565 0 25.9053 0 27.9861 2.08071C30.0668 4.16143 30.0668 7.51026 30.0668 14.208V15.392C30.0668 22.0897 30.0668 25.4385 27.9861 27.5193C25.9053 29.6 22.5565 29.6 15.8588 29.6H14.6748C7.97706 29.6 4.62822 29.6 2.54751 27.5193C0.466797 25.4385 0.466797 22.0897 0.466797 15.392V14.208Z" fill="#0077FF"/>
<path d="M16.2175 21.3249C9.47116 21.3249 5.62322 16.6999 5.46289 9.00391H8.84222C8.95322 14.6526 11.4445 17.0452 13.4178 17.5386V9.00391H16.6V13.8756C18.5486 13.6659 20.5957 11.4459 21.2864 9.00391H24.4684C23.9381 12.0132 21.7181 14.2332 20.1394 15.1459C21.7181 15.8859 24.2466 17.8222 25.2086 21.3249H21.7058C20.9534 18.9816 19.079 17.1686 16.6 16.9219V21.3249H16.2175Z" fill="white"/>
</svg>
