<svg width="30" height="22" viewBox="0 0 30 22" fill="none" xmlns="http://www.w3.org/2000/svg">
<path d="M29.7055 4.8807C29.7055 4.8807 29.4165 2.83992 28.5262 1.94383C27.3988 0.764453 26.1385 0.758672 25.5604 0.689297C21.421 0.388672 15.2062 0.388672 15.2062 0.388672H15.1946C15.1946 0.388672 8.97977 0.388672 4.84039 0.689297C4.26227 0.758672 3.00195 0.764453 1.87461 1.94383C0.984297 2.83992 0.701016 4.8807 0.701016 4.8807C0.701016 4.8807 0.400391 7.27992 0.400391 9.67336V11.9165C0.400391 14.3099 0.695234 16.7091 0.695234 16.7091C0.695234 16.7091 0.984297 18.7499 1.86883 19.646C2.99617 20.8254 4.47617 20.7849 5.13523 20.9121C7.50555 21.1376 15.2004 21.207 15.2004 21.207C15.2004 21.207 21.421 21.1954 25.5604 20.9005C26.1385 20.8312 27.3988 20.8254 28.5262 19.646C29.4165 18.7499 29.7055 16.7091 29.7055 16.7091C29.7055 16.7091 30.0004 14.3157 30.0004 11.9165V9.67336C30.0004 7.27992 29.7055 4.8807 29.7055 4.8807ZM12.1421 14.6395V6.32023L20.1376 10.4943L12.1421 14.6395Z" fill="#FF0000"/>
</svg>
