<svg width="31" height="35" viewBox="0 0 31 35" fill="none" xmlns="http://www.w3.org/2000/svg">
<path d="M24.5001 0.000299838H8.75019L0 8.74989V31.4999C0 33.4329 1.56711 35 3.50008 35H24.4999C26.4329 35 28 33.4329 28 31.4999V3.49984C28 1.56684 26.4329 0 24.4999 0L24.5001 0.000299838ZM26.25 31.5006C26.25 32.4657 25.4648 33.2505 24.5001 33.2505H3.50023C2.53521 33.2505 1.75034 32.4654 1.75034 31.5006V10.5004H10.5005L10.5002 1.75007H24.5004C25.4654 1.75007 26.2503 2.53525 26.2503 3.49999L26.25 31.5006Z" fill="#5E6368"/>
<rect x="10" y="20" width="21" height="10" rx="1" fill="#00AC4F"/>
<path d="M16.5841 25.8241L15.2401 28.0001H14.1201L15.9761 25.0961L14.2801 22.4001H15.4321L16.6081 24.3441L17.8161 22.4001H18.9201L17.2241 25.0641L19.0801 28.0001H17.9121L16.5841 25.8241Z" fill="white"/>
<path d="M19.7632 22.4001H20.7232V27.1521H23.2032V28.0001H19.7632V22.4001Z" fill="white"/>
<path d="M25.6042 28.0721C24.9055 28.0721 24.3882 27.9148 24.0522 27.6001C23.7162 27.2801 23.5268 26.7868 23.4842 26.1201H24.5082C24.5348 26.5041 24.6308 26.7761 24.7962 26.9361C24.9668 27.0908 25.2362 27.1681 25.6042 27.1681C25.9882 27.1681 26.2682 27.0961 26.4442 26.9521C26.6255 26.8081 26.7162 26.6321 26.7162 26.4241C26.7162 26.2161 26.6388 26.0561 26.4842 25.9441C26.3295 25.8321 26.1348 25.7415 25.9002 25.6721C25.6655 25.5975 25.4122 25.5281 25.1402 25.4641C24.8682 25.3948 24.6148 25.3015 24.3802 25.1841C24.1455 25.0668 23.9508 24.9068 23.7962 24.7041C23.6415 24.5015 23.5642 24.2295 23.5642 23.8881C23.5642 23.6641 23.6068 23.4588 23.6922 23.2721C23.7775 23.0801 23.9028 22.9148 24.0682 22.7761C24.2388 22.6321 24.4522 22.5228 24.7082 22.4481C24.9642 22.3681 25.2628 22.3281 25.6042 22.3281C26.2868 22.3281 26.7855 22.4775 27.1002 22.7761C27.4202 23.0695 27.6015 23.5175 27.6442 24.1201H26.6202C26.5935 23.8001 26.5028 23.5708 26.3482 23.4321C26.1988 23.2935 25.9482 23.2241 25.5962 23.2241C25.2335 23.2241 24.9722 23.2908 24.8122 23.4241C24.6522 23.5521 24.5722 23.7095 24.5722 23.8961C24.5722 24.0935 24.6495 24.2455 24.8042 24.3521C24.9588 24.4535 25.1535 24.5388 25.3882 24.6081C25.6228 24.6775 25.8762 24.7468 26.1482 24.8161C26.4202 24.8801 26.6735 24.9735 26.9082 25.0961C27.1428 25.2135 27.3375 25.3788 27.4922 25.5921C27.6468 25.8001 27.7242 26.0828 27.7242 26.4401C27.7242 26.6801 27.6815 26.9015 27.5962 27.1041C27.5108 27.3015 27.3802 27.4721 27.2042 27.6161C27.0335 27.7601 26.8148 27.8721 26.5482 27.9521C26.2815 28.0321 25.9668 28.0721 25.6042 28.0721Z" fill="white"/>
</svg>
