<svg width="31" height="35" viewBox="0 0 31 35" fill="none" xmlns="http://www.w3.org/2000/svg">
<path d="M24.5001 0.000299838H8.75019L0 8.74989V31.4999C0 33.4329 1.56711 35 3.50008 35H24.4999C26.4329 35 28 33.4329 28 31.4999V3.49984C28 1.56684 26.4329 0 24.4999 0L24.5001 0.000299838ZM26.25 31.5006C26.25 32.4657 25.4648 33.2505 24.5001 33.2505H3.50023C2.53521 33.2505 1.75034 32.4654 1.75034 31.5006V10.5004H10.5005L10.5002 1.75007H24.5004C25.4654 1.75007 26.2503 2.53525 26.2503 3.49999L26.25 31.5006Z" fill="#5E6368"/>
<rect x="10" y="20" width="21" height="10" rx="1" fill="#FF0000"/>
<path d="M13 27.9998V22.1816H15.2955C15.7367 22.1816 16.1127 22.2659 16.4233 22.4345C16.7339 22.6011 16.9706 22.8332 17.1335 23.1305C17.2983 23.426 17.3807 23.7669 17.3807 24.1532C17.3807 24.5396 17.2973 24.8805 17.1307 25.176C16.964 25.4714 16.7225 25.7015 16.4063 25.8663C16.0919 26.0311 15.7112 26.1135 15.2642 26.1135H13.8011V25.1277H15.0653C15.3021 25.1277 15.4972 25.0869 15.6506 25.0055C15.8059 24.9222 15.9214 24.8076 15.9972 24.6618C16.0748 24.514 16.1136 24.3445 16.1136 24.1532C16.1136 23.96 16.0748 23.7915 15.9972 23.6475C15.9214 23.5017 15.8059 23.389 15.6506 23.3095C15.4953 23.228 15.2983 23.1873 15.0597 23.1873H14.2301V27.9998H13Z" fill="white"/>
<path d="M20.2422 27.9998H18.1797V22.1816H20.2592C20.8445 22.1816 21.3482 22.2981 21.7706 22.5311C22.1929 22.7621 22.5178 23.0945 22.745 23.5282C22.9742 23.9619 23.0888 24.4809 23.0888 25.085C23.0888 25.6911 22.9742 26.2119 22.745 26.6475C22.5178 27.0832 22.1911 27.4174 21.7649 27.6504C21.3407 27.8833 20.8331 27.9998 20.2422 27.9998ZM19.4098 26.9458H20.1911C20.5547 26.9458 20.8606 26.8815 21.1087 26.7527C21.3587 26.622 21.5462 26.4203 21.6712 26.1475C21.7981 25.8729 21.8615 25.5188 21.8615 25.085C21.8615 24.6551 21.7981 24.3038 21.6712 24.0311C21.5462 23.7583 21.3596 23.5576 21.1115 23.4288C20.8634 23.3 20.5575 23.2356 20.1939 23.2356H19.4098V26.9458Z" fill="white"/>
<path d="M24 27.9998V22.1816H27.8523V23.1958H25.2301V24.5822H27.5966V25.5964H25.2301V27.9998H24Z" fill="white"/>
</svg>
