<svg width="31" height="35" viewBox="0 0 31 35" fill="none" xmlns="http://www.w3.org/2000/svg">
<path d="M24.5001 0.000299838H8.75019L0 8.74989V31.4999C0 33.4329 1.56711 35 3.50008 35H24.4999C26.4329 35 28 33.4329 28 31.4999V3.49984C28 1.56684 26.4329 0 24.4999 0L24.5001 0.000299838ZM26.25 31.5006C26.25 32.4657 25.4648 33.2505 24.5001 33.2505H3.50023C2.53521 33.2505 1.75034 32.4654 1.75034 31.5006V10.5004H10.5005L10.5002 1.75007H24.5004C25.4654 1.75007 26.2503 2.53525 26.2503 3.49999L26.25 31.5006Z" fill="#5E6368"/>
<rect x="10" y="20" width="21" height="10" rx="1" fill="#004199"/>
<path d="M13.0605 22.4001H14.9005C15.7805 22.4001 16.4472 22.6241 16.9005 23.0721C17.3539 23.5148 17.5805 24.1495 17.5805 24.9761V25.4241C17.5805 26.2401 17.3512 26.8748 16.8925 27.3281C16.4339 27.7761 15.7699 28.0001 14.9005 28.0001H13.0605V22.4001ZM14.0205 23.2481V27.1521H14.9005C15.4552 27.1521 15.8712 27.0108 16.1485 26.7281C16.4312 26.4455 16.5725 26.0108 16.5725 25.4241V24.9761C16.5725 24.3948 16.4312 23.9628 16.1485 23.6801C15.8659 23.3921 15.4499 23.2481 14.9005 23.2481H14.0205Z" fill="white"/>
<path d="M20.778 28.0721C20.4047 28.0721 20.0634 28.0135 19.754 27.8961C19.45 27.7735 19.1887 27.6001 18.97 27.3761C18.7567 27.1468 18.5914 26.8668 18.474 26.5361C18.3567 26.2055 18.298 25.8295 18.298 25.4081V24.9921C18.298 24.5761 18.3567 24.2028 18.474 23.8721C18.5967 23.5415 18.7647 23.2641 18.978 23.0401C19.1967 22.8108 19.458 22.6348 19.762 22.5121C20.0714 22.3895 20.41 22.3281 20.778 22.3281C21.1514 22.3281 21.49 22.3895 21.794 22.5121C22.1034 22.6295 22.3647 22.8028 22.578 23.0321C22.7967 23.2615 22.9647 23.5415 23.082 23.8721C23.1994 24.1975 23.258 24.5708 23.258 24.9921V25.4081C23.258 25.8241 23.1967 26.1975 23.074 26.5281C22.9567 26.8588 22.7887 27.1388 22.57 27.3681C22.3567 27.5975 22.0954 27.7735 21.786 27.8961C21.482 28.0135 21.146 28.0721 20.778 28.0721ZM20.778 27.1761C21.2154 27.1761 21.57 27.0295 21.842 26.7361C22.114 26.4375 22.25 25.9948 22.25 25.4081V24.9921C22.25 24.7041 22.2127 24.4508 22.138 24.2321C22.0687 24.0081 21.9674 23.8241 21.834 23.6801C21.706 23.5308 21.5514 23.4188 21.37 23.3441C21.1887 23.2641 20.9914 23.2241 20.778 23.2241C20.3354 23.2241 19.978 23.3735 19.706 23.6721C19.4394 23.9655 19.306 24.4055 19.306 24.9921V25.4081C19.306 25.9895 19.442 26.4295 19.714 26.7281C19.9914 27.0268 20.346 27.1761 20.778 27.1761Z" fill="white"/>
<path d="M26.4177 28.0721C26.0497 28.0721 25.7137 28.0135 25.4097 27.8961C25.1111 27.7788 24.8551 27.6055 24.6417 27.3761C24.4337 27.1468 24.2711 26.8695 24.1537 26.5441C24.0364 26.2135 23.9777 25.8348 23.9777 25.4081V24.9921C23.9777 24.5708 24.0364 24.1975 24.1537 23.8721C24.2711 23.5415 24.4364 23.2615 24.6497 23.0321C24.8631 22.8028 25.1191 22.6295 25.4177 22.5121C25.7217 22.3895 26.0551 22.3281 26.4177 22.3281C26.7431 22.3281 27.0364 22.3761 27.2977 22.4721C27.5644 22.5681 27.7937 22.6988 27.9857 22.8641C28.1777 23.0241 28.3324 23.2135 28.4497 23.4321C28.5724 23.6455 28.6551 23.8748 28.6977 24.1201H27.6417C27.5991 23.9975 27.5431 23.8828 27.4737 23.7761C27.4044 23.6641 27.3191 23.5681 27.2177 23.4881C27.1164 23.4081 26.9991 23.3441 26.8657 23.2961C26.7324 23.2481 26.5831 23.2241 26.4177 23.2241C25.9911 23.2241 25.6444 23.3708 25.3777 23.6641C25.1164 23.9575 24.9857 24.4001 24.9857 24.9921V25.4081C24.9857 25.7015 25.0204 25.9601 25.0897 26.1841C25.1644 26.4028 25.2631 26.5868 25.3857 26.7361C25.5137 26.8801 25.6657 26.9895 25.8417 27.0641C26.0177 27.1388 26.2097 27.1761 26.4177 27.1761C26.7431 27.1761 27.0097 27.0801 27.2177 26.8881C27.4257 26.6961 27.5671 26.4401 27.6417 26.1201H28.6977C28.6551 26.4028 28.5724 26.6641 28.4497 26.9041C28.3324 27.1388 28.1751 27.3441 27.9777 27.5201C27.7857 27.6908 27.5591 27.8268 27.2977 27.9281C27.0364 28.0241 26.7431 28.0721 26.4177 28.0721Z" fill="white"/>
</svg>
