<svg width="487" height="181" viewBox="0 0 487 181" fill="none" xmlns="http://www.w3.org/2000/svg">
<path d="M0 130.269V120.837L96.9662 1.27465H111.511L14.8001 120.837L7.65523 118.797H152.084V130.269H0ZM101.815 179.725V130.269L102.07 118.797V75.2042H114.573V179.725H101.815Z" fill="#F0F0F0"/>
<path d="M239.94 181C226.33 181 214.252 177.346 203.705 170.038C193.158 162.73 184.907 152.363 178.953 138.937C172.999 125.34 170.022 109.195 170.022 90.5C170.022 71.8052 172.999 55.7446 178.953 42.3183C184.907 28.7221 193.158 18.27 203.705 10.962C214.252 3.65399 226.33 0 239.94 0C253.719 0 265.797 3.65399 276.174 10.962C286.721 18.27 294.972 28.7221 300.926 42.3183C306.88 55.7446 309.857 71.8052 309.857 90.5C309.857 109.195 306.88 125.34 300.926 138.937C294.972 152.363 286.721 162.73 276.174 170.038C265.797 177.346 253.719 181 239.94 181ZM239.94 169.018C251.337 169.018 261.289 165.959 269.795 159.841C278.301 153.553 284.935 144.545 289.699 132.818C294.462 121.092 296.843 106.985 296.843 90.5C296.843 73.8446 294.462 59.7385 289.699 48.1817C284.935 36.4549 278.301 27.5324 269.795 21.4141C261.289 15.1258 251.337 11.9817 239.94 11.9817C228.712 11.9817 218.76 15.1258 210.084 21.4141C201.578 27.5324 194.944 36.4549 190.181 48.1817C185.417 59.7385 183.036 73.8446 183.036 90.5C183.036 106.985 185.417 121.092 190.181 132.818C194.944 144.545 201.578 153.553 210.084 159.841C218.76 165.959 228.712 169.018 239.94 169.018Z" fill="#F0F0F0"/>
<path d="M334.916 130.269V120.837L431.882 1.27465H446.427L349.716 120.837L342.571 118.797H487V130.269H334.916ZM436.731 179.725V130.269L436.986 118.797V75.2042H449.489V179.725H436.731Z" fill="#F0F0F0"/>
</svg>
