<svg width="362" height="144" viewBox="0 0 362 144" fill="none" xmlns="http://www.w3.org/2000/svg">
<g clip-path="url(#clip0_575_46)">
<path d="M181 0C230.981 0 276.233 20.2615 308.99 53.0098C341.746 85.766 362 131.008 362 181C362 230.981 341.738 276.233 308.99 308.99C276.234 341.746 230.992 362 181 362C131.019 362 85.7667 341.738 53.0098 308.99C20.2536 276.234 0 230.992 0 181C0 131.019 20.2615 85.7667 53.0098 53.0098C85.766 20.2536 131.008 0 181 0V0ZM186.319 5.00036L187.665 56.9475C187.696 58.3012 186.626 59.4258 185.275 59.4567H185.138C179.247 59.2714 174.551 59.5854 169.661 60.5015C164.753 61.4177 159.583 62.9541 152.776 65.2059C151.541 65.6126 150.205 64.9846 149.726 63.7905L142.243 47.6855C141.689 46.4914 142.181 45.0785 143.337 44.4814C146.695 42.734 150.458 41.5296 154.318 40.7009C157.252 40.0678 160.235 39.6561 163.124 39.3858L162.195 26.3252C154.194 26.9043 146.293 28.1936 138.99 30.1753C132.28 31.9948 126.088 34.3882 120.8 37.34L146.293 80.2046C157.172 76.4601 168.848 74.4244 180.998 74.4244C186.237 74.4244 191.389 74.8053 196.426 75.5362L195.762 24.1115C195.726 22.7578 196.789 21.6332 198.148 21.5972C205.343 21.3939 213.232 22.5005 221.3 24.634C229.669 26.8549 238.241 30.1877 246.425 34.3365C247.63 34.9336 248.129 36.3902 247.545 37.6023L239.747 53.6329C239.729 53.6766 239.711 53.7178 239.685 53.7615C239.088 54.9789 237.618 55.4884 236.401 54.8939C233.295 53.3755 229.931 51.9241 226.539 50.8303C223.955 49.9991 221.338 49.3659 218.759 49.0469L217.586 62.2543C223.754 63.5694 228.593 64.7815 233.057 66.3566C237.363 67.875 241.303 69.7202 245.712 72.3144L269.404 28.706C244.857 14.4279 216.541 5.91192 186.312 5.01394L186.319 5.00036ZM273.614 31.2197L248.797 76.8948C248.151 78.0812 246.664 78.5239 245.47 77.8727C245.421 77.847 245.372 77.8161 245.328 77.7878C240.336 74.6944 236.11 72.6227 231.426 70.9676C226.685 69.2948 221.44 68.0415 214.453 66.5901C213.174 66.325 212.338 65.1077 212.523 63.8364L214.09 46.164C214.201 44.8541 215.333 43.871 216.635 43.9251C220.424 44.0923 224.284 44.9261 228.028 46.1332C230.913 47.0623 233.703 48.192 236.331 49.399L242.054 37.6225C234.83 34.1173 227.347 31.289 220.04 29.3509C213.308 27.5675 206.74 26.5406 200.69 26.4557L201.336 76.344C218.38 79.6407 233.982 86.9932 247.086 97.3619L272.242 52.4563C272.893 51.2879 274.363 50.8581 275.544 51.4964C281.865 54.914 288.157 59.8219 294.076 65.7125C300.175 71.7809 305.907 78.9147 310.907 86.5584C310.933 86.5893 310.956 86.6253 310.982 86.6639C311.738 87.7886 311.442 89.3147 310.318 90.0765L295.443 100.137C294.318 100.893 292.792 100.597 292.03 99.4728C290.092 96.6007 287.91 93.6566 285.519 91.0187C283.705 89.0139 281.757 87.1507 279.685 85.5963L272.068 96.4491C276.736 100.654 280.314 104.116 283.412 107.739C286.382 111.209 288.873 114.781 291.392 119.22L333.717 93.3019C325.95 79.8038 316.443 67.4324 305.506 56.4926C295.907 46.8935 285.208 38.4032 273.617 31.2207L273.614 31.2197ZM336.107 97.5898L291.767 124.743C290.612 125.451 289.098 125.08 288.398 123.925C288.35 123.845 288.306 123.771 288.27 123.691C285.508 118.557 282.901 114.675 279.685 110.926C276.437 107.133 272.515 103.424 267.172 98.658C266.207 97.7959 266.078 96.347 266.853 95.3304L277.073 80.7743C277.853 79.6677 279.384 79.3975 280.49 80.1772L280.539 80.2133C283.682 82.2361 286.559 84.8559 289.161 87.7331C291.196 89.9772 293.047 92.3577 294.714 94.6995L305.562 87.3648C301.056 80.7173 295.989 74.5256 290.633 69.1957C285.702 64.288 280.529 60.1263 275.329 57.0206L250.937 100.562C252.805 102.192 254.62 103.877 256.372 105.63C266.543 115.801 274.665 128.019 280.077 141.608L324.19 115.37C324.215 115.352 324.239 115.34 324.264 115.322C325.42 114.609 326.933 114.972 327.646 116.127C331.408 122.244 334.404 129.636 336.586 137.712C338.836 146.019 340.233 155.07 340.737 164.214L340.743 164.294C340.84 165.648 339.821 166.821 338.468 166.919L320.555 168.193H320.542C319.189 168.286 318.02 167.259 317.93 165.905C317.691 162.487 317.266 158.859 316.51 155.335C315.944 152.698 315.182 150.114 314.168 147.728L302.147 153.313C304.085 159.283 305.449 164.073 306.321 168.759C307.163 173.255 307.533 177.588 307.495 182.7L357.074 181.415V181.004C357.074 150.823 349.48 122.422 336.1 97.5962L336.107 97.5898ZM356.996 186.314L305.049 187.66C303.696 187.691 302.571 186.62 302.54 185.269V185.133C302.725 179.242 302.411 174.545 301.495 169.656C300.579 164.748 299.043 159.57 296.791 152.771C296.384 151.535 297.012 150.2 298.206 149.721L314.311 142.237C315.505 141.684 316.918 142.175 317.515 143.331C319.263 146.69 320.467 150.452 321.296 154.312C321.929 157.246 322.341 160.229 322.611 163.119L335.671 162.19C335.092 154.188 333.803 146.288 331.821 138.984C330.002 132.274 327.609 126.083 324.657 120.794L281.792 146.288C285.537 157.166 287.572 168.842 287.572 180.992C287.572 186.232 287.191 191.384 286.46 196.42L337.885 195.756C339.239 195.72 340.363 196.783 340.4 198.142C340.603 205.338 339.496 213.226 337.363 221.294C335.142 229.663 331.809 238.236 327.66 246.42C327.063 247.624 325.606 248.123 324.394 247.539L308.364 239.741C308.32 239.723 308.279 239.705 308.235 239.679C307.018 239.082 306.508 237.613 307.103 236.396C308.621 233.289 310.073 229.926 311.166 226.534C311.998 223.95 312.631 221.333 312.95 218.754L299.742 217.58C298.427 223.749 297.215 228.587 295.64 233.052C294.122 237.357 292.276 241.298 289.682 245.706L333.291 269.398C347.569 244.852 356.085 216.535 356.983 186.307L356.996 186.314ZM330.777 273.608L285.102 248.792C283.915 248.146 283.473 246.658 284.124 245.464C284.15 245.415 284.181 245.366 284.209 245.323C287.302 240.33 289.374 236.104 291.029 231.42C292.702 226.68 293.955 221.435 295.407 214.447C295.672 213.168 296.889 212.332 298.16 212.517L315.833 214.085C317.143 214.195 318.126 215.328 318.072 216.63C317.904 220.418 317.071 224.278 315.864 228.023C314.934 230.908 313.805 233.698 312.598 236.325L324.374 242.049C327.879 234.825 330.708 227.341 332.646 220.035C334.429 213.302 335.456 206.735 335.541 200.685L285.653 201.33C282.356 218.375 275.003 233.976 264.635 247.08L309.54 272.237C310.709 272.888 311.139 274.357 310.5 275.538C307.083 281.859 302.175 288.152 296.284 294.071C290.216 300.17 283.082 305.901 275.438 310.902C275.407 310.927 275.371 310.951 275.333 310.976C274.208 311.733 272.682 311.437 271.92 310.312L261.86 295.437C261.103 294.313 261.399 292.787 262.524 292.025C265.396 290.087 268.34 287.905 270.978 285.514C272.983 283.699 274.846 281.751 276.4 279.68L265.548 272.062C261.342 276.731 257.881 280.308 254.257 283.406C250.788 286.376 247.216 288.868 242.777 291.387L268.695 333.711C282.193 325.944 294.564 316.437 305.504 305.5C315.103 295.901 323.593 285.202 330.776 273.612L330.777 273.608ZM264.407 336.101L237.253 291.762C236.546 290.606 236.916 289.093 238.072 288.393C238.152 288.344 238.226 288.3 238.306 288.264C243.44 285.503 247.321 282.896 251.071 279.679C254.864 276.431 258.573 272.509 263.339 267.167C264.201 266.202 265.65 266.073 266.666 266.848L281.222 277.067C282.329 277.847 282.599 279.378 281.819 280.485L281.783 280.534C279.761 283.676 277.141 286.553 274.264 289.155C272.02 291.191 269.639 293.041 267.297 294.709L274.632 305.557C281.279 301.05 287.471 295.983 292.801 290.627C297.709 285.697 301.87 280.524 304.976 275.323L261.434 250.931C259.805 252.8 258.12 254.614 256.367 256.367C246.196 266.538 233.977 274.66 220.389 280.071L246.626 324.184C246.644 324.21 246.657 324.233 246.675 324.259C247.388 325.414 247.025 326.928 245.87 327.64C239.752 331.403 232.361 334.399 224.285 336.581C215.978 338.83 206.926 340.227 197.782 340.732L197.703 340.737C196.349 340.835 195.176 339.816 195.078 338.462L193.804 320.55V320.537C193.711 319.183 194.738 318.015 196.092 317.925C199.509 317.685 203.138 317.261 206.661 316.504C209.299 315.938 211.883 315.176 214.269 314.162L208.684 302.141C202.713 304.079 197.924 305.443 193.238 306.316C188.742 307.157 184.408 307.528 179.297 307.489L180.581 357.068H180.993C211.173 357.068 239.575 349.474 264.401 336.094L264.407 336.101ZM175.683 356.991L174.337 305.044C174.306 303.69 175.376 302.565 176.728 302.534H176.864C182.755 302.72 187.451 302.406 192.341 301.49C197.249 300.573 202.419 299.037 209.226 296.785C210.461 296.379 211.797 297.007 212.276 298.201L219.759 314.306C220.313 315.5 219.821 316.913 218.666 317.51C215.307 319.257 211.544 320.462 207.684 321.29C204.75 321.923 201.768 322.335 198.878 322.605L199.807 335.666C207.808 335.087 215.709 333.798 223.013 331.816C229.722 329.996 235.914 327.603 241.202 324.651L215.709 281.787C204.83 285.531 193.155 287.567 181.005 287.567C175.765 287.567 170.613 287.186 165.576 286.455L166.24 337.88C166.276 339.233 165.213 340.358 163.855 340.394C156.659 340.597 148.771 339.491 140.703 337.357C132.334 335.136 123.761 331.803 115.577 327.655C114.373 327.058 113.873 325.601 114.458 324.389L122.255 308.358C122.273 308.315 122.291 308.273 122.317 308.23C122.914 307.012 124.384 306.503 125.601 307.097C128.707 308.616 132.071 310.067 135.463 311.161C138.047 311.992 140.664 312.625 143.243 312.944L144.417 299.737C138.248 298.422 133.41 297.21 128.945 295.635C124.639 294.116 120.699 292.271 116.291 289.677L92.5986 333.285C117.145 347.563 145.462 356.079 175.69 356.977L175.683 356.991ZM88.3883 330.771L113.205 285.096C113.851 283.91 115.338 283.467 116.533 284.118C116.581 284.144 116.63 284.175 116.674 284.203C121.667 287.297 125.892 289.368 130.577 291.024C135.317 292.696 140.562 293.95 147.549 295.401C148.828 295.666 149.665 296.883 149.479 298.155L147.912 315.827C147.802 317.137 146.669 318.12 145.367 318.066C141.579 317.899 137.719 317.065 133.974 315.858C131.089 314.929 128.299 313.799 125.671 312.592L119.948 324.369C127.172 327.874 134.655 330.702 141.962 332.64C148.694 334.424 155.262 335.451 161.312 335.535L160.666 285.647C143.622 282.35 128.021 274.998 114.917 264.629L89.76 309.535C89.1089 310.703 87.6394 311.133 86.4582 310.495C80.1376 307.077 73.845 302.169 67.9261 296.279C61.8268 290.21 56.0955 283.076 51.0951 275.433C51.0693 275.402 51.0462 275.366 51.0204 275.327C50.2638 274.203 50.5598 272.676 51.6844 271.915L66.5594 261.854C67.684 261.098 69.2101 261.394 69.9719 262.518C71.9098 265.39 74.0921 268.335 76.4829 270.972C78.2973 272.977 80.2454 274.84 82.3172 276.395L89.9345 265.542C85.2738 261.337 81.6887 257.868 78.5902 254.252C75.6203 250.783 73.1291 247.21 70.6098 242.771L28.2855 268.689C36.0524 282.187 45.5593 294.559 56.4965 305.499C66.0955 315.098 76.7942 323.588 88.385 330.77L88.3883 330.771ZM25.8953 264.401L70.235 237.248C71.3905 236.54 72.9037 236.911 73.6037 238.066C73.6526 238.146 73.6964 238.221 73.7324 238.3C76.4938 243.435 79.1008 247.316 82.3176 251.065C85.5654 254.859 89.4876 258.567 94.83 263.333C95.7951 264.195 95.9238 265.644 95.1491 266.661L84.9294 281.217C84.1496 282.323 82.6184 282.594 81.5118 281.814L81.4629 281.778C78.3206 279.755 75.4434 277.135 72.8415 274.258C70.8058 272.014 68.9554 269.633 67.2877 267.292L56.4402 274.626C60.9464 281.274 66.0136 287.466 71.3692 292.795C76.3001 297.703 81.4729 301.865 86.6737 304.971L111.065 261.429C109.197 259.8 107.383 258.114 105.63 256.361C95.4592 246.19 87.3371 233.972 81.9255 220.384L37.8125 246.621C37.7868 246.639 37.7636 246.652 37.7379 246.67C36.5824 247.382 35.0691 247.02 34.3563 245.864C30.5938 239.747 27.598 232.355 25.416 224.28C23.1667 215.972 21.7693 206.921 21.2649 197.777L21.2597 197.697C21.1619 196.343 22.181 195.17 23.5347 195.072L41.4469 193.798H41.4597C42.8134 193.706 43.9818 194.732 44.0719 196.086C44.3112 199.504 44.7358 203.132 45.4924 206.656C46.0586 209.294 46.8203 211.877 47.8343 214.263L59.8553 208.679C57.9174 202.708 56.5535 197.919 55.681 193.232C54.8395 188.736 54.4689 184.403 54.5075 179.292L4.92822 180.576V180.988C4.92822 211.168 12.5225 239.569 25.9026 264.395L25.8953 264.401ZM5.0059 175.677L56.953 174.331C58.3067 174.3 59.4313 175.371 59.4622 176.722V176.858C59.2769 182.749 59.5909 187.446 60.5071 192.336C61.4232 197.243 62.9597 202.414 65.2115 209.221C65.6181 210.456 64.9902 211.792 63.7961 212.27L47.6911 219.754C46.4969 220.307 45.0841 219.816 44.487 218.66C42.7396 215.302 41.5351 211.539 40.7064 207.679C40.0733 204.745 39.6616 201.762 39.3914 198.872L26.3308 199.801C26.9098 207.803 28.1991 215.703 30.1808 223.007C32.0003 229.717 34.3937 235.908 37.3456 241.197L80.2101 215.703C76.4656 204.825 74.43 193.149 74.43 180.999C74.43 175.759 74.8109 170.607 75.5417 165.571L24.1171 166.235C22.7634 166.271 21.6388 165.208 21.6027 163.849C21.3994 156.653 22.506 148.765 24.6395 140.697C26.8605 132.328 30.1932 123.755 34.342 115.572C34.9391 114.367 36.3957 113.868 37.6078 114.452L53.6384 122.25C53.6822 122.268 53.7233 122.286 53.7671 122.312C54.9844 122.909 55.4939 124.378 54.8995 125.596C53.3811 128.702 51.9296 132.065 50.8358 135.457C50.0046 138.041 49.3715 140.659 49.0524 143.238L62.2599 144.411C63.575 138.242 64.7871 133.404 66.3621 128.939C67.8805 124.634 69.7258 120.693 72.3199 116.285L28.7115 92.5931C14.4334 117.14 5.91745 145.456 5.01947 175.684L5.0059 175.677ZM31.2252 88.3827L76.9003 113.199C78.0867 113.845 78.5294 115.333 77.8783 116.527C77.8525 116.576 77.8216 116.625 77.7933 116.669C74.7 121.661 72.6283 125.887 70.9732 130.571C69.3004 135.312 68.0471 140.556 66.5956 147.544C66.3305 148.823 65.1132 149.659 63.8419 149.474L46.1695 147.907C44.8596 147.796 43.8765 146.664 43.9306 145.361C44.0979 141.573 44.9317 137.713 46.1387 133.968C47.0678 131.083 48.1975 128.294 49.4045 125.666L37.628 119.942C34.1228 127.166 31.2945 134.65 29.3564 141.956C27.573 148.689 26.5461 155.257 26.4612 161.307L76.3495 160.661C79.6462 143.616 86.9988 128.015 97.3674 114.911L52.4618 89.7545C51.2934 89.1034 50.8636 87.6339 51.5019 86.4527C54.9196 80.132 59.8275 73.8394 65.718 67.9206C71.7864 61.8213 78.9203 56.09 86.564 51.0895C86.5948 51.0638 86.6309 51.0406 86.6695 51.0149C87.7941 50.2583 89.3202 50.5542 90.082 51.6788L100.142 66.5538C100.899 67.6784 100.603 69.2046 99.4783 69.9664C96.6062 71.9042 93.6621 74.0866 91.0243 76.4774C89.0195 78.2917 87.1562 80.2399 85.6018 82.3116L96.4546 89.929C100.66 85.2683 104.129 81.6831 107.745 78.5847C111.214 75.6148 114.786 73.1236 119.226 70.6043L93.3074 28.28C79.8094 36.0469 67.4379 45.5537 56.4981 56.4909C46.899 66.09 38.4087 76.7887 31.2262 88.3794L31.2252 88.3827ZM97.5954 25.8898L124.749 70.2294C125.457 71.3849 125.086 72.8982 123.93 73.5982C123.851 73.6471 123.776 73.6908 123.696 73.7269C118.562 76.4883 114.681 79.0953 110.932 82.312C107.138 85.5599 103.429 89.482 98.6635 94.8245C97.8014 95.7895 96.3525 95.9183 95.3359 95.1436L80.7798 84.9239C79.6732 84.1441 79.403 82.6128 80.1828 81.5062L80.2188 81.4573C82.2416 78.315 84.8615 75.4378 87.7386 72.8359C89.9827 70.8003 92.3633 68.9499 94.7051 67.2822L87.3704 56.4346C80.7228 60.9409 74.5311 66.008 69.2012 71.3636C64.2935 76.2946 60.1318 81.4674 57.0261 86.6682L100.568 111.06C102.197 109.192 103.883 107.377 105.635 105.625C115.806 95.4536 128.025 87.3316 141.613 81.92L115.376 37.807C115.358 37.7813 115.345 37.7581 115.327 37.7324C114.614 36.5768 114.977 35.0636 116.133 34.3507C122.25 30.5882 129.641 27.5925 137.717 25.4105C146.024 23.1612 155.076 21.7637 164.22 21.2593L164.3 21.2542C165.653 21.1564 166.827 22.1755 166.925 23.5292L168.198 41.4413V41.4542C168.291 42.8079 167.264 43.9763 165.911 44.0663C162.493 44.3057 158.864 44.7303 155.341 45.4869C152.703 46.0531 150.119 46.8148 147.734 47.8288L153.318 59.8498C159.289 57.9119 164.078 56.5479 168.764 55.6755C173.26 54.834 177.594 54.4634 182.705 54.502L181.421 4.92269H181.009C150.829 4.92269 122.428 12.517 97.6017 25.8971L97.5954 25.8898ZM252.887 109.113C234.489 90.7143 209.075 79.3397 180.996 79.3397C152.917 79.3397 127.505 90.7222 109.105 109.113C90.7067 127.511 79.332 152.925 79.332 181.004C79.332 209.081 90.7146 234.495 109.105 252.895C127.503 271.293 152.917 282.668 180.996 282.668C209.075 282.668 234.487 271.285 252.887 252.895C271.286 234.497 282.66 209.083 282.66 181.004C282.66 152.927 271.278 127.513 252.887 109.113V109.113Z" fill="white" fill-opacity="0.09"/>
</g>
<defs>
<clipPath id="clip0_575_46">
<rect width="362" height="144" fill="white"/>
</clipPath>
</defs>
</svg>
