<svg width="23" height="23" viewBox="0 0 23 23" fill="none" xmlns="http://www.w3.org/2000/svg">
<path d="M11.75 1C8.89897 1 6.16488 2.13267 4.14866 4.14866C2.13267 6.16464 1 8.89885 1 11.75C1 14.6011 2.13267 17.3351 4.14866 19.3513C6.16464 21.3673 8.89885 22.5 11.75 22.5C14.6011 22.5 17.3351 21.3673 19.3513 19.3513C21.3673 17.3354 22.5 14.6011 22.5 11.75C22.4967 8.90004 21.3632 6.16766 19.3478 4.15223C17.3326 2.13688 14.6 1.0033 11.75 1.00004L11.75 1ZM11.75 21.5729C9.14472 21.5729 6.64629 20.538 4.80405 18.6958C2.96184 16.8537 1.92692 14.3551 1.92692 11.7498C1.92692 9.14456 2.96184 6.64613 4.80405 4.80389C6.64609 2.96168 9.14472 1.92676 11.75 1.92676C14.3553 1.92676 16.8537 2.96168 18.696 4.80389C20.5382 6.64593 21.5731 9.14456 21.5731 11.7498C21.5701 14.3542 20.5343 16.8512 18.6927 18.6926C16.8513 20.5342 14.3544 21.57 11.7499 21.573L11.75 21.5729Z" fill="black" stroke="black" stroke-width="0.5"/>
<path d="M12.214 11.5578V7.63729C12.214 7.38128 12.0064 7.17383 11.7506 7.17383C11.4947 7.17383 11.2871 7.38128 11.2871 7.63729V11.75C11.2873 11.8729 11.336 11.9908 11.4229 12.0777L14.3864 15.0412V15.041C14.5678 15.2199 14.8593 15.219 15.0394 15.0389C15.2196 14.8587 15.2205 14.5672 15.0416 14.3858L12.214 11.5578Z" fill="black" stroke="black" stroke-width="0.5"/>
<path d="M11.7506 4.57696C12.0064 4.57696 12.214 4.36951 12.214 4.11366V3.40877C12.214 3.15292 12.0064 2.94531 11.7506 2.94531C11.4947 2.94531 11.2871 3.15292 11.2871 3.40877V4.11366C11.2871 4.36951 11.4947 4.57696 11.7506 4.57696Z" fill="black" stroke="black" stroke-width="0.5"/>
<path d="M11.7506 19.2295C11.4947 19.2295 11.2871 19.4369 11.2871 19.693V20.398C11.2871 20.6539 11.4947 20.8615 11.7506 20.8615C12.0064 20.8615 12.214 20.6539 12.214 20.398V19.693C12.214 19.4369 12.0064 19.2295 11.7506 19.2295Z" fill="black" stroke="black" stroke-width="0.5"/>
<path d="M3.96115 11.4399H3.25627C3.00041 11.4399 2.79297 11.6474 2.79297 11.9034C2.79297 12.1593 3.00042 12.3667 3.25627 12.3667H3.96115C4.21717 12.3667 4.42461 12.1593 4.42461 11.9034C4.42461 11.6474 4.21717 11.4399 3.96115 11.4399Z" fill="black" stroke="black" stroke-width="0.5"/>
<path d="M19.5396 12.3667H20.2445C20.5004 12.3667 20.7078 12.1593 20.7078 11.9034C20.7078 11.6474 20.5004 11.4399 20.2445 11.4399H19.5396C19.2838 11.4399 19.0762 11.6474 19.0762 11.9034C19.0762 12.1593 19.2838 12.3667 19.5396 12.3667Z" fill="black" stroke="black" stroke-width="0.5"/>
</svg>
