<svg width="62" height="62" viewBox="0 0 62 62" fill="none" xmlns="http://www.w3.org/2000/svg">
<path d="M41.0815 52.271C40.5554 52.271 40.0811 51.908 39.9617 51.3727C39.8227 50.7539 40.2134 50.1401 40.8323 50.0012C42.2459 49.6853 43.6395 49.2398 44.9736 48.6757C45.5582 48.4301 46.2324 48.7024 46.4796 49.2854C46.7267 49.8699 46.4545 50.5441 45.87 50.7913C44.4092 51.4091 42.8817 51.8983 41.3334 52.2444C41.2482 52.2618 41.1642 52.271 41.0816 52.271L41.0815 52.271Z" fill="#111B47"/>
<path d="M54.7616 44.066C54.4965 44.066 54.2299 43.9742 54.014 43.7881C53.5325 43.3748 53.4777 42.6498 53.8909 42.1689C60.5062 34.4717 61.5471 22.98 56.4233 14.2263C51.2391 5.37084 40.5987 0.676339 30.5442 2.80511C24.6293 4.05926 19.2424 7.631 15.7683 12.6055C15.4063 13.1259 14.69 13.252 14.1685 12.889C13.648 12.526 13.5219 11.8092 13.8849 11.2892C17.6899 5.84301 23.5889 1.93239 30.0679 0.558757C41.08 -1.77727 52.7286 3.36798 58.4069 13.0664C64.0172 22.6545 62.8779 35.2374 55.6346 43.6656C55.4064 43.9297 55.0849 44.0651 54.7619 44.0651L54.7616 44.066Z" fill="#111B47"/>
<path d="M56.1489 55.7756C55.5746 55.7756 55.0783 55.346 55.0096 54.7625L53.6211 43.0542C53.5478 42.4246 53.9965 41.8529 54.6261 41.778C55.2598 41.7068 55.8274 42.1534 55.9023 42.783L57.2907 54.4912C57.3641 55.1209 56.9154 55.6926 56.2858 55.7674C56.2396 55.772 56.194 55.7756 56.1489 55.7756V55.7756Z" fill="#111B47"/>
<path d="M56.1487 55.7756C55.9892 55.7756 55.8282 55.7423 55.6733 55.6721L44.9459 50.778C44.368 50.515 44.1142 49.8341 44.3773 49.2562C44.6403 48.6799 45.3181 48.4225 45.8991 48.6876L56.6266 53.5816C57.2044 53.8447 57.4582 54.5256 57.1952 55.1034C57.0024 55.5265 56.5855 55.7756 56.1487 55.7756L56.1487 55.7756Z" fill="#111B47"/>
<path d="M21.8089 47.8686C21.5238 47.8686 21.2403 47.764 21.0178 47.5527C16.5693 43.3263 13.0309 38.0764 10.7831 32.3686C10.5513 31.7785 10.8405 31.1119 11.4306 30.8791C12.0234 30.6458 12.6874 30.9375 12.9202 31.5267C15.045 36.9247 18.3916 41.89 22.5985 45.8865C23.0579 46.3228 23.0774 47.0509 22.64 47.5103C22.4149 47.7492 22.1119 47.8687 21.8089 47.8687L21.8089 47.8686Z" fill="#111B47"/>
<path d="M27.5842 61.7454C27.4073 61.7454 27.2269 61.7038 27.0582 61.6177C11.7126 53.6903 1.60297 38.6892 0.0147243 21.4903C-0.043727 20.8586 0.421328 20.2992 1.05302 20.2418C1.68368 20.1787 2.24409 20.6484 2.30152 21.2801C3.81665 37.6941 13.4653 52.0106 28.1124 59.5764C28.6764 59.8671 28.8969 60.5608 28.6062 61.1249C28.4016 61.5171 28.0007 61.7448 27.5838 61.7448L27.5842 61.7454Z" fill="#111B47"/>
<path d="M1.15718 22.5341C0.57009 22.5341 0.0696618 22.086 0.0142964 21.4902C-0.0877371 20.3724 0.360901 19.2736 1.21562 18.5476C1.69811 18.1364 2.42362 18.1949 2.8338 18.6799C3.24398 19.1634 3.18502 19.8879 2.70151 20.2981C2.41643 20.5406 2.2662 20.9067 2.30055 21.28C2.359 21.9116 1.89395 22.471 1.26226 22.5285C1.2274 22.5315 1.1915 22.5341 1.15715 22.5341L1.15718 22.5341Z" fill="#111B47"/>
<path d="M1.95963 20.5705C1.63456 20.5705 1.31052 20.4325 1.08337 20.1649C0.673184 19.6814 0.732146 18.9569 1.21565 18.5467C3.3943 16.6962 6.00401 15.316 8.76152 14.552C9.37372 14.3853 10.0054 14.7417 10.1741 15.3523C10.3428 15.9635 9.98442 16.5962 9.37375 16.765C6.93521 17.4392 4.62937 18.6601 2.70208 20.2966C2.48571 20.4807 2.22164 20.5704 1.95965 20.5704L1.95963 20.5705Z" fill="#111B47"/>
<path d="M11.8333 18.221C11.3682 18.221 10.9293 17.9349 10.7571 17.4734C10.5468 16.9094 9.94847 16.6084 9.37423 16.7669C8.75742 16.9335 8.13034 16.5761 7.96162 15.9665C7.79292 15.3553 8.15133 14.7226 8.762 14.5539C10.4976 14.0739 12.2799 14.9845 12.9095 16.6704C13.131 17.2652 12.829 17.9271 12.2353 18.1487C12.102 18.1963 11.9666 18.221 11.8333 18.221L11.8333 18.221Z" fill="#111B47"/>
<path d="M28.6388 62C28.0953 62 27.5533 61.8723 27.0575 61.6165C26.4935 61.3258 26.273 60.632 26.5637 60.068C26.8544 59.504 27.5446 59.2835 28.1122 59.5742C28.4455 59.7465 28.8403 59.7455 29.1725 59.5722C29.7329 59.2794 30.4277 59.4953 30.7229 60.0583C31.0167 60.6197 30.7999 61.3134 30.2369 61.6087C29.7365 61.8687 29.1878 61.9999 28.6387 61.9999L28.6388 62Z" fill="#111B47"/>
<path d="M29.7065 61.7388C29.2932 61.7388 28.8933 61.5147 28.6877 61.123C28.3939 60.5615 28.6108 59.8663 29.1722 59.5725C31.4118 58.3999 33.4089 56.7197 34.9503 54.7133C35.3348 54.2113 36.0562 54.1149 36.5603 54.5021C37.0633 54.8881 37.1586 55.609 36.7715 56.1121C35.0293 58.3814 32.7711 60.2812 30.2378 61.6075C30.0681 61.6962 29.8856 61.7388 29.7066 61.7388L29.7065 61.7388Z" fill="#111B47"/>
<path d="M35.8603 56.5619C35.6167 56.5619 35.3711 56.485 35.163 56.324C34.66 55.9379 34.5646 55.217 34.9491 54.7139C35.3142 54.2371 35.2568 53.5721 34.8148 53.1681C34.3472 52.7395 34.3139 52.0139 34.7425 51.5453C35.1722 51.0767 35.9003 51.0444 36.3653 51.473C37.6943 52.6882 37.8697 54.6822 36.7729 56.1118C36.5468 56.4071 36.2058 56.5619 35.8602 56.5619L35.8603 56.5619Z" fill="#111B47"/>
<path d="M35.5906 53.4694C35.3137 53.4694 35.0358 53.3694 34.8143 53.1674L27.7945 46.7367C27.4992 46.467 27.0813 46.3691 26.6952 46.4819L22.1324 47.8222C21.5248 48.0037 20.8864 47.6535 20.707 47.0433C20.5281 46.4347 20.8773 45.7974 21.4859 45.618L26.0493 44.2777C27.1988 43.9398 28.4622 44.2331 29.3466 45.0437L36.3674 51.4744C36.8351 51.903 36.8668 52.6286 36.4387 53.0972C36.2111 53.3443 35.9009 53.4694 35.5907 53.4694H35.5906Z" fill="#111B47"/>
<path d="M11.85 33.0966C11.5998 33.0966 11.348 33.0151 11.1368 32.8485C10.6394 32.4547 10.5558 31.7322 10.9496 31.2349L13.9035 27.5078C14.1517 27.1955 14.2193 26.7669 14.0794 26.3926L10.7543 17.472C10.5328 16.8773 10.8348 16.2168 11.4296 15.9948C12.0223 15.7733 12.6847 16.0753 12.9067 16.6701L16.2318 25.5906C16.6512 26.714 16.4477 27.9943 15.7037 28.9342L12.7498 32.6613C12.5242 32.9474 12.1889 33.0966 11.85 33.0966V33.0966Z" fill="#111B47"/>
<path d="M35.8234 40.3952C36.0695 40.5182 36.1924 40.5182 36.4384 40.5182C36.6845 40.5182 36.8074 40.3952 37.0535 40.2721C37.5454 39.9031 48 31.5394 48 22.4383C47.8769 16.1657 42.8341 11 36.4383 11C30.0426 11 25 16.1657 25 22.5611C25 31.54 35.4542 40.0265 35.8232 40.3954L35.8234 40.3952ZM36.4384 12.8447C41.7269 12.8447 46.0319 17.1495 46.0319 22.4381C46.0319 29.4487 38.5295 36.4593 36.4384 38.3042C34.2246 36.4593 26.845 29.4487 26.845 22.4381C26.845 17.1496 31.1498 12.8447 36.4384 12.8447Z" fill="#111B47" stroke="black" stroke-width="0.2"/>
<path d="M41.9736 22.6843C41.9736 19.6093 39.5137 17.1496 36.439 17.1496C33.3642 17.1496 30.9043 19.6093 30.9043 22.6843C30.9043 25.759 33.3642 28.2189 36.439 28.2189C39.5137 28.2189 41.9736 25.759 41.9736 22.6843ZM32.7492 22.6843C32.7492 20.5933 34.348 18.9945 36.439 18.9945C38.5299 18.9945 40.1288 20.5933 40.1288 22.6843C40.1288 24.7752 38.5299 26.3741 36.439 26.3741C34.348 26.3741 32.7492 24.775 32.7492 22.6843Z" fill="#111B47" stroke="black" stroke-width="0.2"/>
</svg>
