<svg width="50" height="44" viewBox="0 0 50 44" fill="none" xmlns="http://www.w3.org/2000/svg">
<path d="M49.572 39.2906L27.7186 1.56074C26.5106 -0.520248 23.4906 -0.520248 22.2826 1.56074L0.429208 39.2906C-0.778769 41.3716 0.703826 44 3.1198 44H46.8266C49.2969 44 50.7796 41.3712 49.5716 39.2906H49.572ZM24.3143 13.1152C25.6322 12.7867 26.9498 13.4437 27.5538 14.6485C27.7732 15.0866 27.8284 15.5793 27.7732 16.0175C27.6633 17.3865 27.6085 18.7555 27.5538 20.1792C27.4438 22.3148 27.2791 24.505 27.1692 26.6407C27.1145 27.2977 27.1145 27.955 27.0593 28.6667C27.0045 29.8169 26.1259 30.6928 24.9727 30.6928C23.8746 30.6928 22.9412 29.8165 22.8861 28.7214C22.7214 25.381 22.5016 22.0406 22.3369 18.7002C22.2821 17.824 22.2269 16.8931 22.1722 16.0169C22.1729 14.7032 23.0516 13.4439 24.3144 13.1154L24.3143 13.1152ZM25.0282 38.1954C23.4908 38.1954 22.2828 36.936 22.2828 35.4027C22.2828 33.8694 23.5456 32.61 25.083 32.61C26.6204 32.61 27.8284 33.8694 27.8284 35.4577C27.7737 36.9355 26.5108 38.1953 25.0282 38.1953V38.1954Z" fill="#FF0000"/>
</svg>
