<svg width="47" height="65" viewBox="0 0 47 65" fill="none" xmlns="http://www.w3.org/2000/svg">
<path d="M2.07321 62.2006V2.07328H29.3763L29.4282 15.4589C29.4282 15.7569 29.5578 16.042 29.791 16.2364C29.9854 16.4048 30.2186 16.4826 30.4648 16.4826C30.5167 16.4826 30.5685 16.4826 30.6074 16.4696L44.9266 14.4222V62.2006L2.07321 62.2006ZM43.5142 12.5443L31.4888 14.2549L31.4499 3.14953L43.5142 12.5443ZM31.0481 0.220295C31.0092 0.18142 30.9444 0.168461 30.8925 0.142544C30.8537 0.116627 30.8148 0.0907099 30.7759 0.0777508C30.6593 0.0259169 30.5297 0 30.4001 0H1.03668C0.466505 0 0 0.466505 0 1.03668V63.2373C0 63.8075 0.466505 64.274 1.03668 64.274H45.9633C46.5335 64.274 47 63.8075 47 63.2373V13.1273C47 12.8033 46.8575 12.5053 46.5983 12.3109L31.0481 0.220295Z" fill="#111B47"/>
<path d="M15.0587 31.2678C16.4581 31.2678 17.6115 30.1274 17.6115 28.7149C17.6115 27.3155 16.4712 26.1621 15.0587 26.1621C13.6592 26.1621 12.5059 27.3025 12.5059 28.7149C12.5059 30.1274 13.6462 31.2678 15.0587 31.2678Z" fill="#111B47"/>
<path d="M32.3321 31.2678C33.7316 31.2678 34.885 30.1274 34.885 28.7149C34.885 27.3155 33.7446 26.1621 32.3321 26.1621C30.9196 26.1621 29.7793 27.3025 29.7793 28.7149C29.7793 30.1274 30.9196 31.2678 32.3321 31.2678Z" fill="#111B47"/>
<path d="M23.6895 37.9414C16.3291 37.9414 10.3418 43.9282 10.3418 51.2891C10.3418 51.8592 10.8083 52.3258 11.3785 52.3258C11.9486 52.3258 12.4152 51.8592 12.4152 51.2891C12.4152 45.069 17.4689 40.0152 23.689 40.0152C29.9091 40.0152 34.9628 45.069 34.9628 51.2891C34.9628 51.8592 35.4293 52.3258 35.9995 52.3258C36.5697 52.3258 37.0362 51.8592 37.0362 51.2891C37.0362 43.9287 31.0494 37.9414 23.6885 37.9414H23.6895Z" fill="#111B47"/>
</svg>
