<svg width="64" height="64" viewBox="0 0 64 64" fill="none" xmlns="http://www.w3.org/2000/svg">
<path d="M63.6331 9.49203L60.001 6.52551V5.00002C60.001 4.44779 59.5532 4.00001 59.001 4.00001H58.501V2.00001C58.501 1.46965 58.2903 0.960712 57.9153 0.585716C57.5403 0.210721 57.0314 0 56.501 0H54.501C53.9706 0 53.4617 0.210721 53.0867 0.585716C52.7117 0.960712 52.501 1.46965 52.501 2.00001V4.00001H52.001C51.4487 4.00001 51.001 4.44779 51.001 5.00002V54.8402C51.001 54.9688 51.026 55.0964 51.0742 55.2161L53.5742 61.3759C53.7273 61.7531 54.0938 62 54.501 62V63C54.501 63.5522 54.9488 64 55.501 64C56.0532 64 56.501 63.5522 56.501 63V62C56.9081 62 57.2747 61.7531 57.4278 61.3759L59.9278 55.2161C59.976 55.0964 60.001 54.9688 60.001 54.8402V9.10746L62.001 10.741V21C62.001 21.5522 62.4488 22 63.001 22C63.5533 22 64.001 21.5522 64.001 21V10.2664C64.001 9.96599 63.8662 9.68176 63.6331 9.49203ZM54.501 2.00001H56.501V4.00001H54.501V2.00001ZM58.001 54.6448L55.8277 60.0001H55.1746L53.0009 54.6448V54.5001H58.0009L58.001 54.6448ZM58.001 52.5001H53.001V49.5001H58.001V52.5001ZM58.001 47.5001H53.001V42.5H58.001V47.5001ZM58.001 42.5H53.001V15.0005H58.001V42.5ZM58.001 13.0005H53.001V11.0005H58.001V13.0005ZM58.001 9.00049H53.001V6.00048H58.001V9.00049Z" fill="#111B47"/>
<path d="M43.0011 1.50003H10.001C9.20549 1.50093 8.44296 1.81744 7.88044 2.3795C7.31838 2.94201 7.00187 3.70453 7.00098 4.50008V5.50008H9.00098V4.50008C9.00143 3.94785 9.44876 3.50052 10.001 3.50008H43.0011C43.5533 3.50052 44.0007 3.94785 44.0011 4.50008V52.5003C44.0007 53.0525 43.5533 53.4998 43.0011 53.5003H41.0011V55.5003H43.0011C43.7966 55.4994 44.5592 55.1829 45.1217 54.6208C45.6838 54.0583 46.0003 53.2958 46.0012 52.5002V4.50005C46.0003 3.70451 45.6838 2.94198 45.1217 2.37947C44.5592 1.81741 43.7967 1.50089 43.0011 1.5L43.0011 1.50003Z" fill="#111B47"/>
<path d="M38.9118 14.5921C38.7976 14.0925 38.5565 13.6304 38.2123 13.251L33.8324 8.47283V8.47239C33.2632 7.85363 32.4614 7.50095 31.6207 7.50006H3.00004C2.20451 7.50095 1.44198 7.81747 0.879466 8.37953C0.317407 8.94203 0.000891432 9.70456 0 10.5001V58.5003C0.000892803 59.2958 0.317407 60.0583 0.879466 60.6209C1.44197 61.1829 2.2045 61.4994 3.00004 61.5003H36.0002C36.7957 61.4994 37.5582 61.1829 38.1207 60.6209C38.6828 60.0584 38.9993 59.2958 39.0002 58.5003V15.2784C39.0002 15.2293 38.989 15.1824 38.9868 15.1338C39.0194 14.9498 38.9931 14.7601 38.9114 14.5922L38.9118 14.5921ZM32.8498 10.3604L36.1855 14.0002H32.1963L32.8498 10.3604ZM37.0006 58.5C37.0002 59.0522 36.5529 59.4995 36.0006 59.5H3.00051C2.44828 59.4995 2.00096 59.0522 2.00051 58.5V10.4998C2.00096 9.94758 2.44828 9.50025 3.00051 9.49981H30.972C30.972 9.49981 30.0176 14.8167 30.0162 14.823C29.9689 15.1137 30.0506 15.4105 30.2394 15.6364C30.4283 15.8623 30.706 15.9949 31.0006 15.9998H37.0006V58.5Z" fill="#111B47"/>
<rect x="6" y="19" width="27" height="2" fill="#111B47"/>
<rect x="6" y="24" width="27" height="2" fill="#111B47"/>
<rect x="6" y="29" width="27" height="2" fill="#111B47"/>
<rect x="6" y="34" width="27" height="2" fill="#111B47"/>
<rect x="6" y="44" width="27" height="2" fill="#111B47"/>
<rect x="6" y="39" width="27" height="2" fill="#111B47"/>
<rect x="6" y="49" width="15" height="2" fill="#111B47"/>
</svg>
