<svg width="27" height="20" viewBox="0 0 27 20" fill="none" xmlns="http://www.w3.org/2000/svg">
<path d="M0.420002 0.000953858C0.181631 0.0232432 -0.00020731 0.215487 1.77386e-07 0.444947V11.6599C0.00103926 11.9051 0.208652 12.1035 0.464686 12.1041H2.49859V15.6782H2.49838C2.49901 15.8581 2.61227 16.0201 2.78579 16.0889C2.95932 16.1578 3.15904 16.1202 3.29225 15.9934L7.35447 12.1041H9.87656V15.5329L9.87676 15.5327C9.87614 15.6515 9.92539 15.7657 10.0131 15.8497C10.1008 15.9337 10.2199 15.9807 10.3439 15.9803H19.6463L23.7077 19.8703V19.8705C23.8411 19.9973 24.041 20.0349 24.2146 19.9659C24.3883 19.8968 24.5014 19.7344 24.5014 19.5543V15.9803H26.5326C26.6567 15.9807 26.776 15.9337 26.8637 15.8497C26.9514 15.7657 27.0004 15.6515 27 15.5327V4.32076C27.0004 4.20195 26.9514 4.08792 26.8637 4.00393C26.776 3.91995 26.6567 3.87298 26.5326 3.87338H17.1207V0.44459C17.1196 0.199805 16.9126 0.0015905 16.657 0.000597036H0.465069C0.450106 -0.000199012 0.435351 -0.000199012 0.420388 0.000597036L0.420002 0.000953858ZM0.931862 0.892527H16.1896V11.2129H7.16232C7.03846 11.2129 6.91959 11.26 6.83231 11.3442L3.43011 14.6022V11.6602C3.43052 11.5414 3.38148 11.4274 3.29357 11.3434C3.20587 11.2592 3.08679 11.2123 2.96272 11.2129H0.932324L0.931862 0.892527ZM17.1206 4.76608H26.0692V15.089H24.0344C23.7788 15.09 23.5716 15.2882 23.5706 15.533V18.4785L20.1684 15.2205C20.0813 15.1365 19.9628 15.0894 19.8392 15.089H10.8082V12.1042H16.6572V12.1044C16.6728 12.104 16.6881 12.1028 16.7035 12.101C16.7345 12.0982 16.7648 12.0922 16.7945 12.0837C16.8093 12.0793 16.8238 12.0741 16.8382 12.0686C16.8669 12.057 16.8943 12.0427 16.9199 12.0258C16.9456 12.0087 16.9693 11.9892 16.9909 11.9675C17.0013 11.9571 17.0115 11.946 17.0209 11.9346C17.0853 11.8564 17.1204 11.7599 17.1208 11.6602L17.1206 4.76608Z" fill="#CAC7C7"/>
</svg>
