<svg width="19" height="24" viewBox="0 0 19 24" fill="none" xmlns="http://www.w3.org/2000/svg">
<path d="M8.9999 22.9084C9.18177 23 9.27263 23 9.45449 23C9.63636 23 9.72722 22.9084 9.90908 22.8166C10.2727 22.5416 18 16.3081 18 9.52503C17.909 4.85001 14.1817 1 9.45442 1C4.72711 1 1 4.85001 1 9.61657C1 16.3085 8.72702 22.6335 8.99975 22.9085L8.9999 22.9084ZM9.45449 2.37485C13.3634 2.37485 16.5453 5.58325 16.5453 9.52487C16.5453 14.7499 11.0001 19.9749 9.45449 21.3499C7.81816 19.9749 2.36369 14.7499 2.36369 9.52487C2.36369 5.58332 5.54551 2.37485 9.45449 2.37485Z" fill="#111B47" stroke="black" stroke-width="0.2"/>
<path d="M13.5489 9.70802C13.5489 7.41624 11.7307 5.58301 9.45803 5.58301C7.18539 5.58301 5.36719 7.41624 5.36719 9.70802C5.36719 11.9996 7.18539 13.833 9.45803 13.833C11.7307 13.833 13.5489 11.9996 13.5489 9.70802ZM6.7308 9.70802C6.7308 8.14963 7.91255 6.95801 9.45803 6.95801C11.0035 6.95801 12.1853 8.14963 12.1853 9.70802C12.1853 11.2664 11.0035 12.458 9.45803 12.458C7.91255 12.458 6.7308 11.2663 6.7308 9.70802Z" fill="#111B47" stroke="black" stroke-width="0.2"/>
</svg>
