<svg width="54" height="44" viewBox="0 0 54 44" fill="none" xmlns="http://www.w3.org/2000/svg">
<path d="M52.7984 0H1.19448C0.534939 0 0 0.535377 0 1.19448V42.8055C0 43.4651 0.535377 44 1.19448 44H52.7984C53.458 44 53.9929 43.4646 53.9929 42.8055L53.9933 1.19448C53.9933 0.535355 53.4588 0 52.7989 0H52.7984ZM51.6035 2.38938V12.7645L26.9951 25.5487L2.38874 12.7645V2.38938H51.6035ZM2.38981 41.6113V15.4562L26.4458 27.9546C26.6183 28.0442 26.807 28.0896 26.9966 28.0896C27.1857 28.0896 27.3745 28.0446 27.5474 27.9546L51.6055 15.4552V41.6102L2.38981 41.6113Z" fill="#01A303"/>
</svg>
