<svg width="64" height="60" viewBox="0 0 64 60" fill="none" xmlns="http://www.w3.org/2000/svg">
<path d="M39.6791 48.0001C39.8392 48.0799 39.9988 48.0799 40.0792 48.0799C40.2393 48.0799 40.3989 48.0001 40.5591 47.9197L47.5189 43.7596C47.7589 43.5994 47.919 43.2797 47.919 43.0397C47.919 42.72 47.7589 42.4795 47.5189 42.3199L40.5591 38.1597C40.3191 37.9996 39.919 37.9996 39.6791 38.1597C39.4391 38.3199 39.1991 38.6396 39.1991 38.8796V47.1993C39.1991 47.6005 39.3593 47.8405 39.6791 48.0001V48.0001ZM40.9592 40.4805L45.3593 43.1205L40.9592 45.7605V40.4805ZM22.3192 11.6006H30.9592C31.4391 11.6006 31.8392 11.2005 31.8392 10.7206C31.8392 10.2406 31.4391 9.84053 30.9592 9.84053H22.3192C21.8393 9.84053 21.4392 10.2406 21.4392 10.7206C21.4392 11.2803 21.8393 11.6006 22.3192 11.6006ZM22.3192 18.6401H39.2792C39.7591 18.6401 40.1592 18.24 40.1592 17.7601C40.1592 17.2802 39.7591 16.8801 39.2792 16.8801H22.3192C21.8393 16.8801 21.4392 17.2802 21.4392 17.7601C21.4392 18.24 21.8393 18.6401 22.3192 18.6401ZM9.9995 46.1601C12.1596 46.1601 13.8394 44.4001 13.8394 42.3203C13.8394 40.1601 12.0794 38.4804 9.9995 38.4804C7.91965 38.4804 6.15965 40.2404 6.15965 42.3203C6.15909 44.4001 7.91908 46.1601 9.9995 46.1601ZM9.9995 40.1601C11.1993 40.1601 12.1596 41.1199 12.1596 42.3203C12.1596 43.52 11.1998 44.4804 9.9995 44.4804C8.79973 44.4804 7.83936 43.5206 7.83936 42.3203C7.91916 41.1199 8.87953 40.1601 9.9995 40.1601ZM63.1994 23.2801H47.9194V10.5603C47.9194 10.3203 47.8397 10.0804 47.6795 9.92023L37.7598 0.239957C37.5996 0.0798003 37.3597 0 37.1197 0H15.1998C14.7198 0 14.3197 0.400114 14.3197 0.880028V33.52H0.880028C0.400114 33.52 0 33.9201 0 34.4V58.88C0 59.3599 0.400114 59.76 0.880028 59.76H30.88C31.3599 59.76 31.76 59.3599 31.76 58.88V56H63.12C63.5999 56 64 55.5999 64 55.1199V24.16C64 23.6801 63.6797 23.28 63.1998 23.28L63.1994 23.2801ZM37.7595 2.72017L45.1195 9.91987H37.7595V2.72017ZM16.0795 1.75978H35.9995V10.7196C35.9995 11.1995 36.3996 11.5997 36.8795 11.5997H46.1596V23.2799H22.3197C21.8397 23.2799 21.4396 23.68 21.4396 24.16V33.2001C21.4396 33.2799 21.4396 33.44 21.5194 33.5198H16.0797L16.0795 1.75978ZM30.0795 58.0797H1.75951V56.7198L7.83936 50.6399L10.9594 53.7599C11.2791 54.0797 11.8394 54.0797 12.1591 53.7599L22.0793 43.8398L30.0792 51.8398L30.0795 58.0797ZM30.0795 49.3593L22.7195 41.9993C22.3997 41.6795 21.8395 41.6795 21.5197 41.9993L11.5996 51.9194L8.47959 48.7994C8.15983 48.4797 7.59956 48.4797 7.27982 48.7994L1.84011 54.2391L1.83955 35.2792H30.0795L30.0795 49.3593ZM62.3194 54.3197H31.7595V34.3997C31.7595 33.9198 31.3594 33.5197 30.8794 33.5197H23.1195C23.1195 33.4399 23.1993 33.2798 23.1993 33.2V31.1201H62.3192L62.3194 54.3197ZM62.3194 29.4397H23.1995V25.0396H62.3194V29.4397Z" fill="#111B47"/>
</svg>
