<svg width="60" height="60" viewBox="0 0 60 60" fill="none" xmlns="http://www.w3.org/2000/svg">
<path d="M58.7493 24.9993H47.4995V3.75014C47.4995 1.62499 45.8745 0 43.7494 0H3.75014C1.62499 0 0 1.62499 0 3.75014V52.2504C0 56.5001 3.49977 60 7.75006 60H52.5001C56.6251 60 60.0002 56.6249 60.0002 52.4998L59.9998 26.2504C59.9998 25.5005 59.4997 25.0003 58.7497 25.0003L58.7493 24.9993ZM7.75006 57.4991C4.87498 57.4991 2.50017 55.1242 2.50017 52.2492V3.75014C2.50017 3.00021 3.00027 2.50005 3.75025 2.50005H43.7506C44.5006 2.50005 45.0007 3.00016 45.0007 3.75014V26.2505C45.0007 52.8749 44.2508 54.4999 46.8755 57.5003L7.75006 57.4991ZM57.4992 52.4995C57.4992 55.2493 55.2494 57.4996 52.4991 57.4996C49.7493 57.4996 47.499 55.2498 47.499 52.4995L47.4995 27.499H57.4992L57.4992 52.4995Z" fill="#111111"/>
<path d="M8.74912 22.4999H18.7489C19.4988 22.4999 19.999 21.9998 19.999 21.2498L19.9994 8.75008C19.9994 8.00016 19.4993 7.5 18.7493 7.5H8.74911C7.99919 7.5 7.49902 8.0001 7.49902 8.75008V21.2498C7.49902 22.0001 7.99913 22.4999 8.74911 22.4999H8.74912ZM9.9992 10.0002H17.4994V19.9999H9.9992V10.0002Z" fill="#111111"/>
<path d="M38.7498 13.75H26.2501C25.5002 13.75 25 14.2501 25 15.0001C25 15.75 25.5001 16.2502 26.2501 16.2502H38.7498C39.4997 16.2502 39.9999 15.7501 39.9999 15.0001C39.9999 14.2502 39.5002 13.75 38.7498 13.75Z" fill="#111111"/>
<path d="M21.25 27.5H8.74911C7.99919 27.5 7.49902 28.0001 7.49902 28.7501C7.49902 29.5 7.99913 30.0002 8.74911 30.0002H21.2488C21.9987 30.0002 22.4989 29.5001 22.4989 28.7501C22.4989 28.0002 21.9992 27.5 21.2493 27.5H21.25Z" fill="#111111"/>
<path d="M38.7498 27.5H26.2501C25.5002 27.5 25 28.0001 25 28.7501C25 29.5 25.5001 30.0002 26.2501 30.0002H38.7498C39.4997 30.0002 39.9999 29.5001 39.9999 28.7501C39.9999 28.0002 39.5002 27.5 38.7498 27.5Z" fill="#111111"/>
<path d="M21.25 35H8.74911C7.99919 35 7.49902 35.5001 7.49902 36.2501C7.49902 37 7.99913 37.5002 8.74911 37.5002H21.2488C21.9987 37.5002 22.4989 37.0001 22.4989 36.2501C22.4989 35.4997 21.9992 35 21.2493 35H21.25Z" fill="#111111"/>
<path d="M38.7498 35H26.2501C25.5002 35 25 35.5001 25 36.2501C25 37 25.5001 37.5002 26.2501 37.5002H38.7498C39.4997 37.5002 39.9999 37.0001 39.9999 36.2501C39.9999 35.4997 39.5002 35 38.7498 35Z" fill="#111111"/>
<path d="M21.25 42.5H8.74911C7.99919 42.5 7.49902 43.0001 7.49902 43.7501C7.49902 44.5 7.99913 45.0002 8.74911 45.0002H21.2488C21.9987 45.0002 22.4989 44.5001 22.4989 43.7501C22.4989 43.0002 21.9992 42.5 21.2493 42.5H21.25Z" fill="#111111"/>
<path d="M38.7498 42.5H26.2501C25.5002 42.5 25 43.0001 25 43.7501C25 44.5 25.5001 45.0002 26.2501 45.0002H38.7498C39.4997 45.0002 39.9999 44.5001 39.9999 43.7501C39.9999 43.0002 39.5002 42.5 38.7498 42.5Z" fill="#111111"/>
<path d="M21.25 50H8.74911C7.99919 50 7.49902 50.5001 7.49902 51.2501C7.49902 52.0001 7.99913 52.5002 8.74911 52.5002H21.2488C21.9987 52.5002 22.4989 52.0001 22.4989 51.2501C22.4989 50.5001 21.9992 50 21.2493 50H21.25Z" fill="#111111"/>
<path d="M38.7498 50H26.2501C25.5002 50 25 50.5001 25 51.2501C25 52.0001 25.5001 52.5002 26.2501 52.5002H38.7498C39.4997 52.5002 39.9999 52.0001 39.9999 51.2501C39.9999 50.5001 39.5002 50 38.7498 50Z" fill="#111111"/>
</svg>
