<svg width="45" height="45" viewBox="0 0 45 45" fill="none" xmlns="http://www.w3.org/2000/svg">
<path d="M5.41695 1.21148L2.61705 3.98904C0.483857 6.0874 -0.430828 9.13077 0.191926 12.0583C2.15967 19.9849 6.18748 27.2495 11.8668 33.1143C17.7151 38.8032 24.9655 42.8396 32.8789 44.8124C33.4797 44.9359 34.0908 44.9987 34.7038 45C37.052 44.9965 39.3017 44.0553 40.9539 42.3851L43.7538 39.5827C44.5524 38.7728 45 37.6805 45 36.5425C45 35.4045 44.5524 34.3125 43.7538 33.5022L38.3663 28.1101C37.5624 27.3055 36.472 26.8538 35.3353 26.8538C34.1985 26.8538 33.108 27.3056 32.3041 28.1101L29.5792 30.8374H29.5789C25.9849 29.6429 22.7311 27.6006 20.0914 24.8823C17.3787 22.2335 15.3385 18.9731 14.1416 15.3742L16.8665 12.6469C17.6681 11.8382 18.1176 10.7455 18.1176 9.60666C18.1176 8.46781 17.6681 7.3748 16.8665 6.56642L11.4792 1.21172C10.6612 0.433834 9.57607 0 8.44796 0C7.31953 0 6.23442 0.433866 5.41672 1.21172L5.41695 1.21148ZM15.0917 8.34283C15.4216 8.67553 15.6065 9.12511 15.6065 9.59388C15.6065 10.0626 15.4216 10.5122 15.0917 10.8449L11.8668 14.1104C11.5743 14.4061 11.4478 14.8283 11.5294 15.2364C12.6949 19.5946 15.0443 23.5438 18.3169 26.6467C21.4216 29.921 25.3647 32.2794 29.7162 33.4651C30.1261 33.5436 30.5482 33.4123 30.8411 33.1148L34.066 29.887H34.0663C34.4019 29.5628 34.8498 29.3818 35.3163 29.3818C35.7824 29.3818 36.2306 29.5628 36.5662 29.887L41.9412 35.2669V35.2665C42.2649 35.6024 42.446 36.051 42.446 36.5179C42.446 36.9845 42.2649 37.4331 41.9412 37.769L39.1787 40.6213C37.6714 42.1413 35.4987 42.7957 33.4038 42.3606C25.9574 40.5004 19.1351 36.7021 13.6292 31.3509C8.28585 25.8347 4.49517 19.002 2.64218 11.5456C2.20305 9.44505 2.85688 7.26442 4.37986 5.75319L7.17976 2.95077C7.51531 2.62655 7.96354 2.44527 8.42969 2.44527C8.89613 2.44527 9.34405 2.62654 9.67962 2.95077L15.0917 8.34283Z" fill="#01A303"/>
</svg>
