<svg width="158" height="158" viewBox="0 0 158 158" fill="none" xmlns="http://www.w3.org/2000/svg">
<g filter="url(#filter0_bdi_962_32)">
<circle cx="79" cy="75" r="70" stroke="black" stroke-width="10"/>
</g>
<g filter="url(#filter1_d_962_32)">
<path d="M121 78.5422L113 83.3494L105 88.1566L89 97.7711L81 102.578L73 107.386L65 112.193L57 117C57 117 57 65.804 57 33L64.5294 38.3133L72.0588 43.6265L87.1176 54.253L104.059 66.3976L112.529 72.4699L121 78.5422Z" fill="black"/>
<path d="M64.7425 111.764L57.5 116.116V116.096V116.051V116.005V115.958V115.91V115.861V115.811V115.76V115.707V115.654V115.6V115.545V115.489V115.431V115.373V115.314V115.254V115.192V115.13V115.067V115.003V114.938V114.871V114.804V114.736V114.667V114.597V114.526V114.454V114.381V114.307V114.232V114.156V114.079V114.002V113.923V113.843V113.763V113.681V113.599V113.516V113.432V113.346V113.26V113.173V113.085V112.997V112.907V112.816V112.725V112.632V112.539V112.445V112.35V112.254V112.157V112.059V111.961V111.861V111.761V111.66V111.558V111.455V111.351V111.246V111.141V111.034V110.927V110.819V110.71V110.601V110.49V110.379V110.267V110.154V110.04V109.926V109.81V109.694V109.577V109.459V109.34V109.221V109.101V108.98V108.858V108.736V108.612V108.488V108.363V108.238V108.111V107.984V107.856V107.727V107.598V107.468V107.337V107.205V107.072V106.939V106.805V106.671V106.535V106.399V106.262V106.125V105.986V105.847V105.708V105.567V105.426V105.284V105.142V104.999V104.855V104.71V104.565V104.419V104.272V104.125V103.977V103.828V103.679V103.529V103.378V103.227V103.075V102.922V102.769V102.615V102.46V102.305V102.149V101.993V101.836V101.678V101.52V101.361V101.201V101.041V100.88V100.719V100.557V100.394V100.231V100.067V99.9024V99.7373V99.5717V99.4055V99.2387V99.0714V98.9035V98.7349V98.5659V98.3962V98.226V98.0553V97.884V97.7121V97.5397V97.3667V97.1932V97.0192V96.8446V96.6695V96.4938V96.3177V96.141V95.9637V95.786V95.6078V95.429V95.2497V95.0699V94.8896V94.7089V94.5276V94.3458V94.1635V93.9808V93.7975V93.6138V93.4296V93.245V93.0598V92.8742V92.6881V92.5016V92.3146V92.1271V91.9392V91.7509V91.562V91.3728V91.1831V90.993V90.8024V90.6114V90.42V90.2281V90.0359V89.8432V89.6501V89.4566V89.2626V89.0683V88.8736V88.6784V88.4829V88.287V88.0906V87.8939V87.6968V87.4994V87.3015V87.1033V86.9047V86.7057V86.5064V86.3067V86.1066V85.9062V85.7054V85.5043V85.3029V85.101V84.8989V84.6964V84.4936V84.2904V84.0869V83.8831V83.679V83.4745V83.2698V83.0647V82.8593V82.6536V82.4476V82.2413V82.0347V81.8278V81.6206V81.4131V81.2054V80.9973V80.789V80.5804V80.3715V80.1624V79.953V79.7433V79.5334V79.3232V79.1127V78.902V78.6911V78.4799V78.2685V78.0568V77.8449V77.6328V77.4204V77.2078V76.995V76.782V76.5687V76.3553V76.1416V75.9277V75.7136V75.4993V75.2849V75.0702V74.8553V74.6402V74.425V74.2096V73.994V73.7782V73.5622V73.3461V73.1298V72.9133V72.6967V72.4799V72.263V72.0459V71.8287V71.6113V71.3938V71.1762V70.9584V70.7404V70.5224V70.3042V70.0859V69.8675V69.6489V69.4303V69.2115V68.9926V68.7736V68.5546V68.3354V68.1161V67.8967V67.6773V67.4577V67.2381V67.0184V66.7986V66.5788V66.3588V66.1388V65.9188V65.6987V65.4785V65.2582V65.0379V64.8176V64.5972V64.3768V64.1563V63.9359V63.7153V63.4948V63.2742V63.0536V62.8329V62.6123V62.3916V62.1709V61.9502V61.7295V61.5089V61.2882V61.0675V60.8468V60.6261V60.4055V60.1848V59.9642V59.7436V59.523V59.3025V59.082V58.8615V58.6411V58.4207V58.2003V57.98V57.7598V57.5396V57.3194V57.0993V56.8793V56.6594V56.4395V56.2197V55.9999V55.7803V55.5607V55.3412V55.1218V54.9025V54.6833V54.4642V54.2452V54.0262V53.8074V53.5887V53.3702V53.1517V52.9333V52.7151V52.497V52.279V52.0612V51.8435V51.6259V51.4085V51.1912V50.9741V50.7571V50.5403V50.3236V50.1071V49.8907V49.6745V49.4585V49.2427V49.027V48.8115V48.5962V48.3811V48.1661V47.9514V47.7368V47.5225V47.3083V47.0943V46.8806V46.6671V46.4537V46.2406V46.0277V45.8151V45.6026V45.3904V45.1784V44.9667V44.7551V44.5439V44.3328V44.1221V43.9115V43.7012V43.4912V43.2815V43.0719V42.8627V42.6537V42.445V42.2366V42.0285V41.8206V41.613V41.4057V41.1987V40.992V40.7856V40.5795V40.3737V40.1682V39.963V39.7581V39.5535V39.3493V39.1454V38.9418V38.7385V38.5355V38.3329V38.1307V37.9287V37.7271V37.5259V37.325V37.1245V36.9243V36.7244V36.525V36.3259V36.1271V35.9288V35.7308V35.5332V35.3359V35.1391V34.9426V34.7466V34.5509V34.3556V34.1607V33.9663V33.9648L64.2411 38.7218L71.7705 44.035L86.8263 54.6594L86.8294 54.6615L103.768 66.804L112.238 72.8763L120.09 78.5054L112.742 82.9208L104.742 87.7281L88.7425 97.3425L80.7425 102.15L72.7425 106.957L64.7425 111.764Z" stroke="black"/>
</g>
<defs>
<filter id="filter0_bdi_962_32" x="0" y="-4" width="158" height="162" filterUnits="userSpaceOnUse" color-interpolation-filters="sRGB">
<feFlood flood-opacity="0" result="BackgroundImageFix"/>
<feGaussianBlur in="BackgroundImage" stdDeviation="2"/>
<feComposite in2="SourceAlpha" operator="in" result="effect1_backgroundBlur_962_32"/>
<feColorMatrix in="SourceAlpha" type="matrix" values="0 0 0 0 0 0 0 0 0 0 0 0 0 0 0 0 0 0 127 0" result="hardAlpha"/>
<feOffset dy="4"/>
<feGaussianBlur stdDeviation="2"/>
<feComposite in2="hardAlpha" operator="out"/>
<feColorMatrix type="matrix" values="0 0 0 0 0 0 0 0 0 0 0 0 0 0 0 0 0 0 0.25 0"/>
<feBlend mode="normal" in2="effect1_backgroundBlur_962_32" result="effect2_dropShadow_962_32"/>
<feBlend mode="normal" in="SourceGraphic" in2="effect2_dropShadow_962_32" result="shape"/>
<feColorMatrix in="SourceAlpha" type="matrix" values="0 0 0 0 0 0 0 0 0 0 0 0 0 0 0 0 0 0 127 0" result="hardAlpha"/>
<feOffset dy="4"/>
<feGaussianBlur stdDeviation="2"/>
<feComposite in2="hardAlpha" operator="arithmetic" k2="-1" k3="1"/>
<feColorMatrix type="matrix" values="0 0 0 0 0 0 0 0 0 0 0 0 0 0 0 0 0 0 0.25 0"/>
<feBlend mode="normal" in2="shape" result="effect3_innerShadow_962_32"/>
</filter>
<filter id="filter1_d_962_32" x="53" y="33" width="72" height="92" filterUnits="userSpaceOnUse" color-interpolation-filters="sRGB">
<feFlood flood-opacity="0" result="BackgroundImageFix"/>
<feColorMatrix in="SourceAlpha" type="matrix" values="0 0 0 0 0 0 0 0 0 0 0 0 0 0 0 0 0 0 127 0" result="hardAlpha"/>
<feOffset dy="4"/>
<feGaussianBlur stdDeviation="2"/>
<feComposite in2="hardAlpha" operator="out"/>
<feColorMatrix type="matrix" values="0 0 0 0 0 0 0 0 0 0 0 0 0 0 0 0 0 0 0.25 0"/>
<feBlend mode="normal" in2="BackgroundImageFix" result="effect1_dropShadow_962_32"/>
<feBlend mode="normal" in="SourceGraphic" in2="effect1_dropShadow_962_32" result="shape"/>
</filter>
</defs>
</svg>
