<svg width="66" height="61" viewBox="0 0 66 61" fill="none" xmlns="http://www.w3.org/2000/svg">
<path d="M59.571 49.6284C60.1615 50.3175 61.0474 50.7112 61.9334 50.7112C62.7207 50.7112 63.5084 50.4158 64.0989 49.8253C64.6894 49.2348 65.0835 48.4471 64.9849 47.5611C64.9849 46.6752 64.5912 45.8878 64.0003 45.3956L56.4204 38.5048C57.8968 36.4374 58.5859 33.8783 58.4878 31.319C58.3892 29.3503 57.7987 27.4797 56.9127 25.9051V21.869C56.9127 19.3099 54.8453 17.1439 52.2862 17.1439H40.769V5.72515C40.769 3.166 38.7016 1.09864 36.1424 1.09864H6.21706H5.82341C3.16554 1 1 3.16557 1 5.72518V7.4971H9.07177V39.6859C9.07177 42.3438 11.2373 44.4111 13.7969 44.4111H25.2157V55.9283C25.2157 58.5862 27.3812 60.7517 30.0391 60.6534H59.7668C62.1292 60.6534 63.9011 58.7829 63.9011 56.2236V54.7472V54.0581H56.9121V46.2814L59.571 49.6284ZM54.8458 38.2097L54.4522 38.702L63.0162 46.4786C63.3116 46.7741 63.5085 47.1677 63.5085 47.6601C63.5085 48.1524 63.3116 48.546 63.0162 48.8415C62.7207 49.137 62.3271 49.3338 61.9334 49.3338C61.4411 49.3338 61.0475 49.137 60.752 48.7433L53.369 39.7857L52.7785 40.1785C51.0065 41.458 48.9392 42.1471 46.7736 42.1471C41.6547 42.1471 37.1268 38.2097 36.5359 33.1895C36.1422 30.2362 37.1264 27.3815 39.095 25.1177C41.2606 22.7553 44.312 21.4758 47.659 21.6726C52.7779 22.0663 56.8139 26.2992 57.0108 31.418C57.1099 33.8781 56.3223 36.3392 54.8458 38.2097ZM9.07172 6.01974H2.4764V5.72473C2.4764 3.95281 3.95284 2.37776 5.82336 2.37776C7.59528 2.37776 9.17033 3.85421 9.17033 5.72473V6.01974H9.07172ZM10.5486 39.6859V5.72496C10.5486 4.44538 10.0563 3.26395 9.17044 2.37799H35.9457C37.7176 2.37799 39.2927 3.85444 39.2927 5.72496V17.2423H22.3619H21.9682C19.3104 17.2423 17.2431 19.4079 17.2431 21.9675V39.6866C17.2431 41.4585 15.7666 43.0336 13.8961 43.0336C12.0256 43.0332 10.5486 41.556 10.5486 39.6859ZM17.2421 43.0329C18.0294 42.1469 18.6203 40.9655 18.6203 39.6859V21.9668C18.6203 20.1948 20.0967 18.6198 21.9672 18.6198C23.8378 18.6198 25.3142 20.0962 25.3142 21.9668V43.0325L17.2421 43.0329ZM62.4255 56.224C62.4255 57.8973 61.2441 59.1773 59.7676 59.1773H33.3866C34.1739 58.2914 34.7647 57.1099 34.7647 55.8304V55.5349H62.4255V56.224ZM55.338 54.1566H33.9774H32.8187C32.8187 54.1566 33.091 54.7257 33.1896 55.0425C33.2883 55.3594 33.2883 55.633 33.2883 55.9285C33.2883 57.7004 31.8118 59.2755 29.9413 59.2755C28.1694 59.2755 26.5943 57.799 26.5943 55.9285V21.9675C26.5943 20.688 26.102 19.5065 25.2162 18.6206H51.9914C53.7633 18.6206 55.3384 20.097 55.3384 21.9675V24.0349C53.3697 21.9675 50.7118 20.4911 47.6603 20.2943C43.9198 19.9989 40.3759 21.4758 37.9149 24.2318C35.6508 26.7909 34.6666 30.0398 35.0603 33.3867C35.7494 39.2928 40.7697 43.7226 46.774 43.7226C49.0382 43.7226 51.2038 43.0335 53.0739 41.8521L55.338 44.6086L55.338 54.1566Z" fill="#111B47" stroke="#111B47" stroke-width="0.5"/>
</svg>
