<svg width="19" height="20" viewBox="0 0 19 20" fill="none" xmlns="http://www.w3.org/2000/svg">
<path d="M13.5368 2.16778C13.2906 2.05344 12.9968 2.15778 12.8812 2.40068C12.7652 2.64359 12.8711 2.93275 13.1176 3.04688C16.0917 4.42419 18.0133 7.40576 18.0133 10.642C18.0133 15.2671 14.1941 19.0297 9.49967 19.0297C4.80468 19.0297 0.985581 15.267 0.985581 10.6415C0.985581 6.41647 4.17352 2.91246 8.3038 2.33789L7.51344 3.15364C7.3257 3.3476 7.33309 3.65501 7.52978 3.84035C7.62537 3.93012 7.74795 3.97467 7.8702 3.97467C8.00018 3.97467 8.12998 3.92419 8.22678 3.82443L9.89536 2.10173C9.99989 1.99383 10.0482 1.8446 10.0265 1.6969C10.0049 1.54919 9.91582 1.41961 9.78481 1.34525L7.61575 0.11551C7.37969 -0.0183049 7.07847 0.0621512 6.94264 0.294214C6.80682 0.526784 6.88797 0.82355 7.12386 0.957369L7.92694 1.41268C3.43486 2.15324 0 6.00832 0 10.6413C0 15.8019 4.26162 20.0008 9.5 20.0008C14.7381 20.0008 19 15.8022 19 10.6413C18.9998 7.03039 16.8557 3.704 13.5374 2.1672L13.5368 2.16778Z" fill="#147115"/>
</svg>
