<svg width="64" height="64" viewBox="0 0 64 64" fill="none" xmlns="http://www.w3.org/2000/svg">
<path d="M62.9338 0.000180793H26.7708C26.1821 0.000180793 25.7047 0.477529 25.7047 1.06623V12.9247C7.44899 4.78938 -8.62467 27.5631 5.21941 42.0687C11.2745 48.2347 20.9154 49.1975 27.994 44.3708L30.148 46.5558L29.1705 47.5233C28.7526 47.9364 28.7488 48.6108 29.1615 49.0291L42.3306 62.3785C44.3042 64.4559 47.8683 64.4802 49.8576 62.4175L50.7186 61.5652C52.8045 59.5012 52.823 56.1188 50.7605 54.0252L45.8442 49.038L62.9339 49.0385C63.5227 49.0385 64 48.5611 64 47.9724V1.06605C64 0.477349 63.5227 0 62.9339 0L62.9338 0.000180793ZM6.73626 40.5724C-3.17427 30.5647 4.18394 13.3106 18.1655 13.3862C30.4915 13.2738 38.1549 27.2778 31.5721 37.7202C26.4518 46.3286 13.6576 47.9286 6.73735 40.5719L6.73626 40.5724ZM29.724 43.09C30.4365 42.4832 31.0623 41.8564 31.6639 41.1663L33.6037 43.1342L31.6624 45.0564L29.724 43.09ZM49.2188 60.0506H49.2183C48.414 60.9153 47.3684 61.9262 46.1088 61.8305C45.254 61.8281 44.4497 61.4902 43.8458 60.881L31.426 48.2906C32.9342 46.7972 35.3451 44.4104 36.8343 42.9361L49.2408 55.5216C50.4805 56.7799 50.4706 58.8111 49.2193 60.0495L49.2188 60.0506ZM61.8677 46.907H43.7448L37.6016 40.6787C37.4027 40.4774 37.1319 40.3627 36.8487 40.3613C36.2334 40.2575 35.531 41.3046 35.1183 41.6343L32.979 39.4642C37.761 32.5639 36.911 22.5243 30.9425 16.5958C29.9978 15.6426 28.949 14.8116 27.8358 14.081L27.8362 2.13223H61.8671L61.8677 46.907Z" fill="#111B47"/>
<path d="M26.5921 25.0403L27.4811 24.2483C28.5186 23.3174 27.1071 21.7312 26.0633 22.6564L25.4108 23.238C19.756 16.4672 8.48556 20.5909 8.52942 29.444C8.52942 34.7338 12.8246 39.0385 18.1039 39.0385C25.1442 39.1589 29.9619 31.2268 26.5919 25.0409L26.5921 25.0403ZM18.1036 36.9064C13.9998 36.9064 10.6612 33.5587 10.6612 29.444C10.6294 22.5323 19.44 19.3407 23.817 24.6582L17.1065 30.6366L14.6017 28.9624C13.4386 28.1952 12.2612 29.9542 13.4172 30.7352L16.6073 32.8673C16.7872 32.9877 16.9942 33.0467 17.1998 33.0467C17.4544 33.0467 17.7086 32.9558 17.9089 32.7764L24.9411 26.5114C27.0956 31.2662 23.332 37.0168 18.1036 36.9063L18.1036 36.9064Z" fill="#111B47"/>
<path d="M43.7887 14.9246H56.5521C57.1408 14.9246 57.6182 14.4472 57.6182 13.8585V6.39613C57.6182 5.80743 57.1408 5.33008 56.5521 5.33008H43.7887C43.2 5.33008 42.7227 5.80743 42.7227 6.39613V13.8585C42.7227 14.4472 43.2 14.9246 43.7887 14.9246ZM44.8548 7.46219H55.4863V12.7925H44.8548V7.46219Z" fill="#111B47"/>
<path d="M56.5513 20.2559H48.0428C46.6442 20.2787 46.6398 22.3642 48.0428 22.388H56.5513C57.9499 22.3646 57.9543 20.2796 56.5513 20.2559Z" fill="#111B47"/>
<path d="M42.7243 27.718H56.5513C57.14 27.718 57.6174 27.2407 57.6174 26.652C57.6174 26.0633 57.14 25.5859 56.5513 25.5859H42.7243C41.3275 25.6083 41.3199 27.6938 42.7243 27.718Z" fill="#111B47"/>
<path d="M56.5511 34.1133H48.0426C47.4539 34.1133 46.9766 34.5906 46.9766 35.1793V42.6417C46.9766 43.2304 47.4539 43.7078 48.0426 43.7078H56.5511C57.1398 43.7078 57.6171 43.2304 57.6171 42.6417V35.1793C57.6171 34.5906 57.1398 34.1133 56.5511 34.1133ZM55.485 41.5757H49.1087V36.2454H55.485V41.5757Z" fill="#111B47"/>
</svg>
