<svg width="64" height="54" viewBox="0 0 64 54" fill="none" xmlns="http://www.w3.org/2000/svg">
<path d="M60.1249 53.999H3.89363C2.86169 53.9976 1.87157 53.588 1.1416 52.8592C0.411669 52.1304 0.00140355 51.1419 0 50.1115V7.93448C0.00325244 6.90604 0.414916 5.92076 1.14485 5.19481C1.87478 4.46886 2.86348 4.06153 3.89355 4.06245H4.85347V3.00896C4.85719 1.93274 5.43426 0.940012 6.36812 0.402883C7.30249 -0.134294 8.45239 -0.134294 9.38635 0.402883C10.3207 0.940059 10.8978 1.9328 10.901 3.00896V4.06245H14.8801V3.00896C14.8838 1.93274 15.4609 0.940012 16.3947 0.402883C17.3286 -0.134294 18.4786 -0.134294 19.4129 0.402883C20.3469 0.940059 20.9239 1.9328 20.9276 3.00896V4.06245H24.9225V3.00896C24.9257 1.93274 25.5028 0.940012 26.4371 0.402883C27.371 -0.134294 28.5211 -0.134294 29.4549 0.402883C30.3893 0.940059 30.9663 1.9328 30.9695 3.00896V4.06245H34.9644V3.00896C34.9681 1.93274 35.5452 0.940012 36.4791 0.402883C37.4134 -0.134294 38.5634 -0.134294 39.4973 0.402883C40.4312 0.940059 41.0083 1.9328 41.012 3.00896V4.06245H45.0068V3.00896C45.0101 1.93274 45.5872 0.940012 46.5215 0.402883C47.4554 -0.134294 48.6054 -0.134294 49.5397 0.402883C50.4736 0.940059 51.0507 1.9328 51.0544 3.00896V4.06245H52.0463H52.0459C53.063 4.06152 54.0396 4.45814 54.7672 5.16743C55.4948 5.87626 55.9153 6.84164 55.939 7.85664L63.9405 49.4233C64.1403 50.5533 63.8317 51.714 63.0962 52.5958C62.3612 53.4777 61.274 53.9917 60.125 54L60.1249 53.999ZM55.1617 52.4403H60.1249C60.8116 52.4398 61.4631 52.136 61.9035 51.6099C62.344 51.0834 62.5285 50.3895 62.4072 49.7145L55.94 16.1187V50.1123C55.9409 50.9524 55.6677 51.7698 55.1618 52.441L55.1617 52.4403ZM1.56029 15.5526V50.1127C1.56122 50.7301 1.807 51.3221 2.24422 51.7585C2.68144 52.1949 3.27431 52.4404 3.89268 52.4414H52.0452C52.6637 52.4404 53.2566 52.195 53.6942 51.7585C54.1314 51.322 54.3772 50.7301 54.3781 50.1127V15.5526H1.56029ZM1.56029 13.9939H54.3779V7.93469C54.3751 7.31957 54.1279 6.73039 53.6907 6.2967C53.2535 5.86297 52.6615 5.61989 52.045 5.62128H51.053V6.65946C51.0558 7.46152 50.7384 8.23201 50.1711 8.80026C49.6038 9.3685 48.833 9.68768 48.0296 9.68768C47.2258 9.68768 46.4555 9.36852 45.8881 8.80026C45.3204 8.23199 45.003 7.46153 45.0058 6.65946V5.62128H41.0109V6.65946C41.0132 7.46152 40.6959 8.23201 40.1286 8.80026C39.5613 9.36852 38.7909 9.68768 37.9871 9.68768C37.1833 9.68768 36.413 9.36852 35.8456 8.80026C35.2782 8.23199 34.9609 7.46153 34.9633 6.65946V5.62128H30.9684V6.65946C30.9712 7.46152 30.6538 8.23201 30.0865 8.80026C29.5192 9.3685 28.7484 9.68768 27.945 9.68768C27.1412 9.68768 26.3704 9.36852 25.803 8.80026C25.2357 8.23199 24.9184 7.46153 24.9212 6.65946V5.62128H20.9263V6.65946C20.9286 7.46152 20.6113 8.23201 20.044 8.80026C19.4766 9.36852 18.7063 9.68768 17.9025 9.68768C17.0987 9.68768 16.3283 9.36852 15.761 8.80026C15.1936 8.23199 14.8763 7.46153 14.8786 6.65946V5.62128H10.8996V6.65946C10.9024 7.46152 10.5846 8.23201 10.0172 8.80026C9.44992 9.3685 8.67958 9.68768 7.87575 9.68768C7.07241 9.68768 6.30163 9.36852 5.73426 8.80026C5.16695 8.23199 4.84961 7.46153 4.85193 6.65946V5.62128H3.892C3.2759 5.61989 2.684 5.86297 2.24675 6.2967C1.80954 6.73043 1.56236 7.31957 1.55957 7.93469L1.56029 13.9939ZM46.5679 6.65938C46.5749 7.46051 47.2277 8.10676 48.0306 8.10676C48.833 8.10676 49.4858 7.46057 49.4933 6.65938V3.00908C49.4882 2.2061 48.8349 1.55754 48.0306 1.55754C47.2259 1.55754 46.5726 2.20605 46.5679 3.00908V6.65938ZM36.5254 6.65938C36.5328 7.46051 37.1852 8.10676 37.9881 8.10676C38.791 8.10676 39.4437 7.46057 39.4507 6.65938V3.00908C39.4461 2.2061 38.7923 1.55754 37.9881 1.55754C37.1838 1.55754 36.5305 2.20605 36.5254 3.00908V6.65938ZM26.4829 6.65938H26.4833C26.4908 7.46051 27.1431 8.10629 27.946 8.10629C28.7484 8.10582 29.4007 7.46056 29.4082 6.65938V3.00908C29.4035 2.2061 28.7503 1.55754 27.9455 1.55754C27.1412 1.55754 26.488 2.20605 26.4833 3.00908L26.4829 6.65938ZM16.4403 6.65938H16.4408C16.4478 7.46051 17.1006 8.10676 17.9035 8.10676C18.7063 8.10676 19.3586 7.46057 19.3661 6.65938V3.00908C19.361 2.2061 18.7077 1.55754 17.9035 1.55754C17.0992 1.55754 16.4454 2.20605 16.4408 3.00908L16.4403 6.65938ZM6.4136 6.65938H6.41407C6.4215 7.46051 7.07431 8.10676 7.87674 8.10676C8.67962 8.10676 9.33239 7.46057 9.33941 6.65938V3.00908C9.33476 2.2061 8.68102 1.55754 7.87674 1.55754C7.07246 1.55754 6.41918 2.20605 6.41407 3.00908L6.4136 6.65938ZM41.3323 46.2891C39.5964 46.2873 37.9326 45.5979 36.7056 44.3728C35.4781 43.1477 34.7881 41.486 34.7857 39.7534C35.0928 31.1029 47.5723 31.1052 47.878 39.7534H47.8785C47.8766 41.4866 47.1862 43.1477 45.9586 44.3728C44.7315 45.5983 43.0671 46.2872 41.3318 46.2891H41.3323ZM41.3323 34.776C34.7438 34.9847 34.7453 44.5227 41.3323 44.7305C47.9208 44.5217 47.9194 34.9838 41.3323 34.776ZM29.3736 46.2891H26.5667C26.1416 46.2812 25.801 45.9347 25.801 45.5098C25.801 45.0854 26.1416 44.7388 26.5667 44.7305H29.3736C29.7987 44.7388 30.1393 45.0854 30.1393 45.5098C30.1393 45.9347 29.7987 46.2812 29.3736 46.2891ZM20.4652 46.2891H17.6583C17.2327 46.2812 16.8926 45.9347 16.8926 45.5098C16.8926 45.0854 17.2327 44.7388 17.6583 44.7305H20.4652H20.4647C20.8899 44.7388 21.2304 45.0854 21.2304 45.5098C21.2304 45.9347 20.8903 46.2812 20.4647 46.2891H20.4652ZM11.5573 46.2891H8.74992C8.32479 46.2812 7.98421 45.9347 7.98421 45.5098C7.98421 45.0854 8.32479 44.7388 8.74992 44.7305H11.5568C11.9819 44.7388 12.3225 45.0854 12.3225 45.5098C12.3225 45.9347 11.9819 46.2812 11.5568 46.2891H11.5573ZM40.7952 41.8234C40.5879 41.8234 40.3895 41.7412 40.2432 41.5951L38.7318 40.0861C38.4372 39.7804 38.4418 39.2947 38.7424 38.9946C39.043 38.6944 39.5295 38.6898 39.8357 38.9844L40.7952 39.9423L42.8284 37.9118V37.9114C43.1351 37.6172 43.6211 37.6219 43.9217 37.922C44.2223 38.2222 44.227 38.7078 43.9324 39.0135L41.3472 41.595C41.2009 41.7412 41.0019 41.8234 40.7952 41.8234ZM29.3732 40.5328H26.5664C26.1412 40.5245 25.8006 40.178 25.8006 39.7535C25.8006 39.3286 26.1412 38.9821 26.5664 38.9742H29.3732C29.7984 38.9821 30.1389 39.3286 30.1389 39.7535C30.1389 40.178 29.7984 40.5245 29.3732 40.5328ZM20.4648 40.5328H17.658C17.2324 40.5245 16.8923 40.178 16.8923 39.7535C16.8923 39.3286 17.2324 38.9821 17.658 38.9742H20.4648H20.4644C20.8895 38.9821 21.2301 39.3286 21.2301 39.7535C21.2301 40.178 20.89 40.5245 20.4644 40.5328H20.4648ZM11.5569 40.5328H8.74957C8.32443 40.5245 7.98386 40.178 7.98386 39.7535C7.98386 39.3286 8.32443 38.9821 8.74957 38.9742H11.5564C11.9816 38.9821 12.3221 39.3286 12.3221 39.7535C12.3221 40.178 11.9816 40.5245 11.5564 40.5328H11.5569ZM29.3737 34.776H26.5664C26.1412 34.7676 25.8006 34.4211 25.8006 33.9966C25.8006 33.5722 26.1412 33.2256 26.5664 33.2173H29.3732C29.7979 33.2261 30.138 33.5722 30.138 33.9966C30.138 34.4211 29.7979 34.7671 29.3732 34.776H29.3737ZM20.4653 34.776H17.658C17.2324 34.7676 16.8923 34.4211 16.8923 33.9966C16.8923 33.5722 17.2324 33.2256 17.658 33.2173H20.4648H20.4644C20.8895 33.2261 21.2291 33.5722 21.2296 33.9966C21.2296 34.4211 20.8895 34.7671 20.4644 34.776H20.4653ZM11.5574 34.776H8.74969C8.32455 34.7676 7.98398 34.4211 7.98398 33.9966C7.98398 33.5722 8.32455 33.2256 8.74969 33.2173H11.5566C11.9812 33.2261 12.3213 33.5722 12.3213 33.9966C12.3213 34.4211 11.9817 34.7671 11.5566 34.776H11.5574ZM47.1898 29.0191H44.3829C43.9578 29.0112 43.6172 28.6646 43.6172 28.2397C43.6172 27.8153 43.9578 27.4687 44.3829 27.4604H47.1893H47.1888C47.6135 27.4697 47.9527 27.8157 47.9527 28.2397C47.9532 28.6637 47.6135 29.0102 47.1893 29.0191H47.1898ZM38.2819 29.0191H35.4742C35.049 29.0112 34.7089 28.6646 34.7089 28.2397C34.7089 27.8153 35.049 27.4687 35.4746 27.4604H38.2815H38.281C38.7057 27.4697 39.0449 27.8162 39.0449 28.2397C39.0449 28.6637 38.7057 29.0102 38.281 29.0191H38.2819ZM29.3739 29.0191H26.5662C26.1411 29.0112 25.8005 28.6646 25.8005 28.2397C25.8005 27.8153 26.1411 27.4687 26.5662 27.4604H29.3731C29.7973 27.4697 30.137 27.8157 30.137 28.2397C30.137 28.6637 29.7973 29.0102 29.3731 29.0191H29.3739ZM20.4655 29.0191H17.6578C17.2322 29.0112 16.8921 28.6646 16.8921 28.2397C16.8921 27.8153 17.2322 27.4687 17.6578 27.4604H20.4647H20.4642C20.8889 27.4697 21.2281 27.8157 21.2281 28.2397C21.2281 28.6637 20.8889 29.0102 20.4642 29.0191H20.4655ZM11.5576 29.0191H8.74945C8.32431 29.0112 7.98374 28.6646 7.98374 28.2397C7.98374 27.8153 8.32431 27.4687 8.74945 27.4604H11.5563C11.981 27.4697 12.3202 27.8157 12.3202 28.2397C12.3202 28.6637 11.981 29.0102 11.5563 29.0191H11.5576ZM47.19 23.2622L44.3827 23.2626C43.9575 23.2543 43.617 22.9078 43.617 22.4833C43.617 22.0588 43.9575 21.7123 44.3827 21.704H47.1891H47.1886C47.6128 21.7137 47.9515 22.0598 47.9515 22.4833C47.952 22.9068 47.6128 23.2529 47.1891 23.2626L47.19 23.2622ZM38.2821 23.2622L35.4739 23.2626C35.0488 23.2543 34.7087 22.9078 34.7087 22.4833C34.7087 22.0584 35.0488 21.7123 35.4744 21.704H38.2812H38.2808C38.705 21.7137 39.0437 22.0598 39.0437 22.4833C39.0437 22.9068 38.705 23.2529 38.2808 23.2626L38.2821 23.2622ZM29.3742 23.2622L26.566 23.2626C26.1409 23.2543 25.8003 22.9078 25.8003 22.4833C25.8003 22.0588 26.1409 21.7123 26.566 21.704H29.3729C29.7971 21.7137 30.1358 22.0598 30.1358 22.4833C30.1358 22.9068 29.7971 23.2529 29.3729 23.2626L29.3742 23.2622ZM20.4658 23.2622L17.6576 23.2626C17.232 23.2543 16.8919 22.9078 16.8919 22.4833C16.8919 22.0588 17.232 21.7123 17.6576 21.704H20.4645H20.464C20.8882 21.7137 21.2269 22.0598 21.2269 22.4833C21.2269 22.9068 20.8882 23.2529 20.464 23.2626L20.4658 23.2622ZM11.5579 23.2622L8.74921 23.2626C8.32408 23.2543 7.9835 22.9078 7.9835 22.4833C7.9835 22.0588 8.32408 21.7123 8.74921 21.704H11.5561C11.9803 21.7137 12.319 22.0598 12.319 22.4833C12.319 22.9068 11.9803 23.2529 11.5561 23.2626L11.5579 23.2622Z" fill="#111B47"/>
</svg>
