<svg xmlns="http://www.w3.org/2000/svg" version="1.1" xmlns:xlink="http://www.w3.org/1999/xlink" xmlns:svgjs="http://svgjs.com/svgjs" width="96" height="96"><svg width="96" height="96" viewBox="0 0 96 96" fill="none" xmlns="http://www.w3.org/2000/svg">
<g clip-path="url(#clip0_380_2555)">
<rect width="96" height="96" fill="#111B47"></rect>
<path d="M44.5362 -3C37.0533 2.23077 21.4772 13.4115 19.0362 16.2885L27.3182 18.4679L42.5746 8.44231L56.4144 9.85897C55.2883 12.4744 50.3336 17.4218 39.5233 16.2885C23.1336 26.8372 17.8011 30.3462 17.1836 30.7821C20.8887 32.5983 31.8733 36.0346 46.1708 35.25C64.0426 34.2692 77.0105 59.5513 78.9721 66.5256" stroke="white" stroke-width="3"></path>
<path d="M24.812 33.3965C24.594 37.4649 23.1556 47.476 19.1453 54.9734C18.6004 56.1721 17.4017 57.2619 19.6902 58.4606C21.5209 59.4196 22.4872 60.0226 22.7415 60.2042C22.9958 60.3858 23.3517 60.9452 22.7415 61.7298C21.9787 62.7106 22.1966 64.2362 23.3953 64.5631C24.3543 64.8247 25.3932 65.0354 25.7928 65.108C24.7757 65.6529 22.8722 66.9388 23.3953 67.7234C24.0492 68.7042 25.0299 69.249 24.703 71.4285C24.3761 73.608 23.8312 77.3132 27.1005 77.967C30.3697 78.6208 33.203 77.858 37.671 76.5503C43.325 74.8955 49.8778 75.9491 52.3825 80.5824C54.7321 84.9288 54.671 87.8837 52.6004 98.999" stroke="white" stroke-width="3"></path>
</g>
<defs>
<clipPath id="SvgjsClipPath1000">
<rect width="96" height="96" fill="white"></rect>
</clipPath>
</defs>
</svg><style>@media (prefers-color-scheme: light) { :root { filter: none; } }
</style></svg>