<?xml version="1.0" standalone="no"?>
<!DOCTYPE svg PUBLIC "-//W3C//DTD SVG 20010904//EN"
 "http://www.w3.org/TR/2001/REC-SVG-20010904/DTD/svg10.dtd">
<svg version="1.0" xmlns="http://www.w3.org/2000/svg"
 width="700.000000pt" height="700.000000pt" viewBox="0 0 700.000000 700.000000"
 preserveAspectRatio="xMidYMid meet">
<metadata>
Created by potrace 1.14, written by Peter Selinger 2001-2017
</metadata>
<g transform="translate(0.000000,700.000000) scale(0.100000,-0.100000)"
fill="#000000" stroke="none">
<path d="M0 3500 l0 -3500 1882 2 1882 3 18 105 c41 242 52 349 51 510 0 151
-2 173 -27 255 -82 271 -230 413 -486 465 -185 38 -364 24 -622 -49 -326 -93
-509 -117 -689 -92 -255 36 -362 202 -327 506 19 168 17 186 -30 247 -67 87
-76 131 -42 206 l19 43 -36 32 c-20 17 -44 50 -54 72 -23 49 -25 142 -4 192 8
19 15 39 15 44 0 4 -50 36 -112 70 -121 68 -180 120 -199 176 -21 66 -7 119
78 293 171 348 288 747 353 1206 28 195 27 201 -12 209 -92 20 -349 114 -470
172 -76 36 -138 69 -138 73 0 15 253 182 1205 799 l580 375 235 1 c204 1 249
4 338 23 192 42 358 117 462 210 l45 39 -30 6 c-17 4 -193 23 -391 43 l-362
36 -557 -366 c-306 -201 -561 -366 -567 -366 -21 0 -793 203 -802 211 -12 10
108 148 203 232 169 152 568 459 1056 812 143 103 264 192 269 196 6 5 -589 9
-1362 9 l-1372 0 0 -3500z"/>
<path d="M2884 6827 c-654 -468 -1264 -929 -1264 -956 0 -4 79 -28 177 -53
l176 -46 552 363 553 363 596 -61 c580 -60 596 -62 590 -82 -4 -11 -28 -65
-55 -120 -171 -352 -637 -567 -1177 -542 l-124 6 -311 -201 c-613 -395 -993
-642 -1051 -681 l-60 -40 90 -29 c190 -61 463 -123 696 -158 307 -45 435 -53
908 -55 426 -1 461 -3 553 -23 230 -51 450 -147 663 -291 463 -311 916 -865
1253 -1531 93 -182 201 -440 204 -486 2 -25 -2 -28 -97 -55 -55 -16 -100 -28
-101 -26 -1 1 -12 31 -24 67 -68 191 -210 482 -347 711 -188 313 -373 556
-599 788 -317 324 -614 512 -949 598 -101 26 -103 26 -546 28 -542 2 -816 25
-1174 96 -54 11 -100 18 -103 16 -2 -3 -11 -56 -19 -118 -65 -505 -225 -1050
-406 -1377 -22 -40 -38 -75 -37 -76 2 -2 51 -30 109 -61 58 -32 124 -71 148
-87 82 -56 104 -153 56 -243 -14 -26 -23 -53 -20 -60 4 -12 106 -35 334 -77
95 -17 120 -24 109 -33 -8 -6 -79 -45 -158 -88 -79 -42 -157 -88 -174 -101
-28 -23 -29 -25 -13 -43 9 -10 29 -44 43 -76 30 -66 34 -145 15 -291 -13 -96
-8 -172 16 -218 23 -45 73 -61 204 -66 139 -5 247 13 514 88 238 66 363 84
536 77 280 -12 524 -114 660 -278 88 -104 173 -287 205 -440 34 -162 29 -350
-20 -679 -14 -91 -25 -168 -25 -172 0 -5 677 -8 1505 -8 l1505 0 0 3500 0
3500 -1937 0 -1938 -1 -241 -172z"/>
</g>
</svg>
