<svg width="47" height="58" viewBox="0 0 47 58" fill="none" xmlns="http://www.w3.org/2000/svg">
<path d="M2.07321 55.2006V2.07328H29.3763L29.4282 15.4589C29.4282 15.7569 29.5578 16.042 29.791 16.2364C29.9854 16.4048 30.2186 16.4826 30.4648 16.4826C30.5167 16.4826 30.5685 16.4826 30.6074 16.4696L44.9266 14.4222V55.2006L2.07321 55.2006ZM43.5142 12.5443L31.4888 14.2549L31.4499 3.14953L43.5142 12.5443ZM31.0481 0.220295C31.0092 0.18142 30.9444 0.168461 30.8925 0.142544C30.8537 0.116627 30.8148 0.0907099 30.7759 0.0777508C30.6593 0.0259169 30.5297 0 30.4001 0H1.03668C0.466505 0 0 0.466505 0 1.03668V56.2373C0 56.8075 0.466505 57.274 1.03668 57.274H45.9633C46.5335 57.274 47 56.8075 47 56.2373V13.1273C47 12.8033 46.8575 12.5053 46.5983 12.3109L31.0481 0.220295Z" fill="#111B47"/>
<path d="M15.0587 26.1057C16.4581 26.1057 17.6115 24.9653 17.6115 23.5528C17.6115 22.1534 16.4712 21 15.0587 21C13.6592 21 12.5059 22.1403 12.5059 23.5528C12.5059 24.9653 13.6462 26.1057 15.0587 26.1057Z" fill="#111B47"/>
<path d="M32.3321 26.1057C33.7316 26.1057 34.885 24.9653 34.885 23.5528C34.885 22.1534 33.7446 21 32.3321 21C30.9196 21 29.7793 22.1403 29.7793 23.5528C29.7793 24.9653 30.9196 26.1057 32.3321 26.1057Z" fill="#111B47"/>
<path d="M23.6895 32.7793C16.3291 32.7793 10.3418 38.7661 10.3418 46.127C10.3418 46.6971 10.8083 47.1636 11.3785 47.1636C11.9486 47.1636 12.4152 46.6971 12.4152 46.127C12.4152 39.9069 17.4689 34.8531 23.689 34.8531C29.9091 34.8531 34.9628 39.9069 34.9628 46.127C34.9628 46.6971 35.4293 47.1636 35.9995 47.1636C36.5697 47.1636 37.0362 46.6971 37.0362 46.127C37.0362 38.7666 31.0494 32.7793 23.6885 32.7793H23.6895Z" fill="#111B47"/>
</svg>

