<svg width="57" height="57" viewBox="0 0 57 57" fill="none" xmlns="http://www.w3.org/2000/svg">
<path d="M37.7682 48.0564C37.2845 48.0564 36.8485 47.7226 36.7387 47.2305C36.6109 46.6616 36.9701 46.0973 37.5391 45.9696C38.8388 45.6792 40.12 45.2696 41.3465 44.751C41.8839 44.5252 42.5037 44.7755 42.731 45.3115C42.9582 45.8489 42.7079 46.4687 42.1705 46.696C40.8275 47.264 39.4232 47.7137 37.9998 48.0319C37.9215 48.0479 37.8442 48.0564 37.7683 48.0564L37.7682 48.0564Z" fill="#111B47"/>
<path d="M50.3448 40.5123C50.1011 40.5123 49.856 40.4279 49.6576 40.2568C49.2149 39.8769 49.1645 39.2103 49.5444 38.7682C55.6262 31.6917 56.5831 21.1268 51.8726 13.079C47.1064 4.93771 37.3241 0.621796 28.0805 2.57889C22.6426 3.7319 17.6902 7.0156 14.4961 11.5889C14.1634 12.0674 13.5048 12.1833 13.0254 11.8496C12.5469 11.5159 12.431 10.8569 12.7647 10.3788C16.2628 5.3718 21.6861 1.77655 27.6426 0.513696C37.7666 -1.63395 48.4758 3.09637 53.6962 12.0126C58.8541 20.8275 57.8066 32.3957 51.1474 40.1442C50.9377 40.387 50.6421 40.5114 50.3451 40.5114L50.3448 40.5123Z" fill="#111B47"/>
<path d="M51.6212 51.278C51.0932 51.278 50.6369 50.883 50.5737 50.3465L49.2973 39.5825C49.2298 39.0036 49.6423 38.478 50.2212 38.4092C50.8038 38.3437 51.3256 38.7543 51.3944 39.3331L52.6709 50.0971C52.7383 50.676 52.3259 51.2016 51.747 51.2704C51.7046 51.2747 51.6627 51.278 51.6212 51.278V51.278Z" fill="#111B47"/>
<path d="M51.6207 51.2785C51.4741 51.2785 51.326 51.2478 51.1837 51.1833L41.3213 46.6839C40.7901 46.4421 40.5568 45.8161 40.7986 45.2848C41.0404 44.755 41.6636 44.5183 42.1977 44.7621L52.06 49.2614C52.5913 49.5032 52.8246 50.1292 52.5828 50.6605C52.4055 51.0494 52.0223 51.2785 51.6207 51.2785L51.6207 51.2785Z" fill="#111B47"/>
<path d="M20.05 44.0078C19.7879 44.0078 19.5273 43.9116 19.3227 43.7174C15.2329 39.8318 11.9799 35.0053 9.91333 29.7578C9.70027 29.2153 9.96613 28.6025 10.5087 28.3884C11.0536 28.1739 11.6641 28.4421 11.8781 28.9838C13.8316 33.9465 16.9083 38.5114 20.7759 42.1855C21.1983 42.5867 21.2162 43.256 20.8141 43.6784C20.6072 43.8981 20.3286 44.0079 20.05 44.0079L20.05 44.0078Z" fill="#111B47"/>
<path d="M25.3595 56.7653C25.1969 56.7653 25.031 56.7271 24.8759 56.6479C10.7678 49.3598 1.47351 35.5685 0.0133478 19.7566C-0.0403896 19.1758 0.387161 18.6615 0.967906 18.6087C1.54771 18.5508 2.06293 18.9825 2.11572 19.5633C3.50867 34.6536 12.3792 47.8156 25.8451 54.7712C26.3636 55.0385 26.5663 55.6763 26.2991 56.1948C26.111 56.5554 25.7424 56.7647 25.3591 56.7647L25.3595 56.7653Z" fill="#111B47"/>
<path d="M1.06385 20.7175C0.524115 20.7175 0.0640439 20.3055 0.0131435 19.7577C-0.0806615 18.7301 0.331796 17.7199 1.11759 17.0525C1.56117 16.6744 2.22817 16.7281 2.60526 17.1741C2.98237 17.6186 2.92816 18.2847 2.48365 18.6617C2.22156 18.8847 2.08344 19.2213 2.11502 19.5644C2.16876 20.1452 1.74121 20.6595 1.16047 20.7123C1.12841 20.7151 1.09542 20.7175 1.06383 20.7175L1.06385 20.7175Z" fill="#111B47"/>
<path d="M1.80154 18.9107C1.50267 18.9107 1.20477 18.7838 0.995939 18.5378C0.618832 18.0933 0.673039 17.4272 1.11755 17.0501C3.12051 15.3489 5.51975 14.08 8.05488 13.3775C8.61772 13.2243 9.19846 13.5519 9.35358 14.1134C9.50867 14.6752 9.17916 15.2569 8.61774 15.4121C6.37585 16.0319 4.25597 17.1543 2.48411 18.6589C2.28519 18.8281 2.04242 18.9106 1.80155 18.9106L1.80154 18.9107Z" fill="#111B47"/>
<path d="M10.879 16.7523C10.4515 16.7523 10.048 16.4893 9.88958 16.0651C9.69631 15.5465 9.14621 15.2698 8.61828 15.4155C8.05121 15.5687 7.4747 15.2401 7.31958 14.6797C7.16449 14.1178 7.49399 13.5361 8.05542 13.381C9.6511 12.9398 11.2896 13.7769 11.8685 15.3268C12.0721 15.8736 11.7945 16.4822 11.2486 16.6859C11.1261 16.7297 11.0016 16.7523 10.8791 16.7523L10.879 16.7523Z" fill="#111B47"/>
<path d="M26.3292 57.0005C25.8296 57.0005 25.3313 56.8831 24.8755 56.6479C24.357 56.3806 24.1543 55.7428 24.4215 55.2243C24.6888 54.7057 25.3233 54.503 25.8451 54.7703C26.1515 54.9287 26.5145 54.9278 26.8199 54.7684C27.3352 54.4993 27.9739 54.6977 28.2454 55.2153C28.5155 55.7315 28.3161 56.3693 27.7985 56.6407C27.3384 56.8797 26.834 57.0004 26.3292 57.0004L26.3292 57.0005Z" fill="#111B47"/>
<path d="M27.311 56.7603C26.9311 56.7603 26.5634 56.5543 26.3744 56.1942C26.1043 55.678 26.3037 55.0388 26.8198 54.7688C28.8788 53.6907 30.7148 52.146 32.1319 50.3014C32.4854 49.8399 33.1487 49.7513 33.6121 50.1072C34.0745 50.4622 34.1622 51.1249 33.8063 51.5874C32.2046 53.6737 30.1285 55.4203 27.7995 56.6397C27.6435 56.7212 27.4757 56.7603 27.3112 56.7603L27.311 56.7603Z" fill="#111B47"/>
<path d="M32.9685 52.0005C32.7446 52.0005 32.5188 51.9298 32.3274 51.7818C31.865 51.4269 31.7773 50.7641 32.1309 50.3016C32.4665 49.8632 32.4137 49.2519 32.0074 48.8804C31.5775 48.4864 31.5468 47.8194 31.9409 47.3885C32.3359 46.9577 33.0053 46.928 33.4328 47.3221C34.6546 48.4393 34.8158 50.2724 33.8075 51.5867C33.5997 51.8582 33.2862 52.0006 32.9685 52.0006L32.9685 52.0005Z" fill="#111B47"/>
<path d="M32.7205 49.1573C32.466 49.1573 32.2105 49.0654 32.0068 48.8797L25.5532 42.9676C25.2816 42.7196 24.8975 42.6296 24.5425 42.7333L20.3476 43.9655C19.789 44.1324 19.2022 43.8104 19.0372 43.2495C18.8727 42.69 19.1937 42.104 19.7533 41.9391L23.9486 40.7069C25.0055 40.3962 26.167 40.6659 26.9801 41.4111L33.4347 47.3232C33.8646 47.7173 33.8938 48.3843 33.5002 48.8151C33.2909 49.0423 33.0058 49.1573 32.7206 49.1573H32.7205Z" fill="#111B47"/>
<path d="M10.8944 30.4281C10.6644 30.4281 10.433 30.3531 10.2387 30.1999C9.7815 29.8379 9.70466 29.1737 10.0667 28.7165L12.7823 25.2899C13.0105 25.0029 13.0727 24.6088 12.944 24.2647L9.8871 16.0635C9.68346 15.5167 9.96111 14.9096 10.5079 14.7055C11.0528 14.5018 11.6619 14.7795 11.866 15.3263L14.9229 23.5274C15.3085 24.5602 15.1213 25.7372 14.4374 26.6013L11.7217 30.0279C11.5143 30.2909 11.206 30.4281 10.8944 30.4281V30.4281Z" fill="#111B47"/>
<path d="M32.9339 37.1379C33.1602 37.2509 33.2732 37.2509 33.4994 37.2509C33.7256 37.2509 33.8386 37.1379 34.0648 37.0247C34.517 36.6855 44.1286 28.9963 44.1286 20.6292C44.0154 14.8624 39.3793 10.1133 33.4993 10.1133C27.6193 10.1133 22.9834 14.8624 22.9834 20.7421C22.9834 28.9968 32.5945 36.7989 32.9338 37.1381L32.9339 37.1379ZM33.4994 11.8092C38.3614 11.8092 42.3192 15.7669 42.3192 20.629C42.3192 27.0742 35.4218 33.5194 33.4994 35.2155C31.464 33.5194 24.6796 27.0742 24.6796 20.629C24.6796 15.7669 28.6373 11.8092 33.4994 11.8092Z" fill="#111B47" stroke="black" stroke-width="0.2"/>
<path d="M38.5878 20.8559C38.5878 18.0289 36.3262 15.7676 33.4995 15.7676C30.6727 15.7676 28.4111 18.0289 28.4111 20.8559C28.4111 23.6827 30.6727 25.9442 33.4995 25.9442C36.3262 25.9442 38.5878 23.6827 38.5878 20.8559ZM30.1072 20.8559C30.1072 18.9336 31.5771 17.4637 33.4995 17.4637C35.4218 17.4637 36.8917 18.9336 36.8917 20.8559C36.8917 22.7782 35.4218 24.2481 33.4995 24.2481C31.5771 24.2481 30.1072 22.778 30.1072 20.8559Z" fill="#111B47" stroke="black" stroke-width="0.2"/>
</svg>

