<svg width="64" height="57" viewBox="0 0 64 57" fill="none" xmlns="http://www.w3.org/2000/svg">
<path d="M63.6331 9.49203L60.001 6.52551V5.00002C60.001 4.44779 59.5532 4.00001 59.001 4.00001H58.501V2.00001C58.501 1.46965 58.2903 0.960712 57.9153 0.585716C57.5403 0.210721 57.0314 0 56.501 0H54.501C53.9706 0 53.4617 0.210721 53.0867 0.585716C52.7117 0.960712 52.501 1.46965 52.501 2.00001V4.00001H52.001C51.4487 4.00001 51.001 4.44779 51.001 5.00002V47.8402C51.001 47.9688 51.026 48.0964 51.0742 48.2161L53.5742 54.3759C53.7273 54.7531 54.0938 55 54.501 55V56C54.501 56.5522 54.9488 57 55.501 57C56.0532 57 56.501 56.5522 56.501 56V55C56.9081 55 57.2747 54.7531 57.4278 54.3759L59.9278 48.2161C59.976 48.0964 60.001 47.9688 60.001 47.8402V9.10746L62.001 10.741V21C62.001 21.5522 62.4488 22 63.001 22C63.5533 22 64.001 21.5522 64.001 21V10.2664C64.001 9.96599 63.8662 9.68176 63.6331 9.49203ZM54.501 2.00001H56.501V4.00001H54.501V2.00001ZM58.001 47.6448L55.8277 53.0001H55.1746L53.0009 47.6448V47.5001H58.0009L58.001 47.6448ZM58.001 45.5001H53.001V42.5001H58.001V45.5001ZM58.001 40.5001H53.001V35.5H58.001V40.5001ZM58.001 35.5H53.001V15.0005H58.001V35.5ZM58.001 13.0005H53.001V11.0005H58.001V13.0005ZM58.001 9.00049H53.001V6.00048H58.001V9.00049Z" fill="#111B47"/>
<path d="M43.0011 1.5H10.001C9.20549 1.50089 8.44296 1.81741 7.88044 2.37947C7.31838 2.94197 7.00187 3.7045 7.00098 4.50005V5.50005H9.00098V4.50005C9.00143 3.94781 9.44876 3.50049 10.001 3.50004H43.0011C43.5533 3.50049 44.0007 3.94781 44.0011 4.50005V47.5002C44.0007 48.0524 43.5533 48.4998 43.0011 48.5002H41.0011V50.5002H43.0011C43.7966 50.4993 44.5592 50.1828 45.1217 49.6208C45.6837 49.0583 46.0003 48.2957 46.0012 47.5002V4.50001C46.0003 3.70448 45.6837 2.94195 45.1217 2.37943C44.5592 1.81737 43.7967 1.50089 43.0011 1.5Z" fill="#111B47"/>
<path d="M38.9118 14.592C38.7976 14.0924 38.5565 13.6304 38.2123 13.251L33.8324 8.47277C33.2632 7.85401 32.4614 7.50089 31.6207 7.5H3.00004C2.20451 7.50089 1.44198 7.81741 0.879466 8.37947C0.317407 8.94197 0.000891432 9.7045 0 10.5V54.0002C0.000892803 54.7958 0.317407 55.5583 0.879466 56.1208C1.44197 56.6829 2.2045 56.9994 3.00004 57.0003H36.0002C36.7957 56.9994 37.5582 56.6829 38.1207 56.1208C38.6828 55.5583 38.9993 54.7958 39.0002 54.0002V15.2783C39.0002 15.2292 38.989 15.1824 38.9868 15.1337C39.0194 14.9498 38.9935 14.7599 38.9118 14.592ZM32.8498 10.3603L36.1855 14.0001H32.1963L32.8498 10.3603ZM37.0006 53.9999C37.0002 54.5522 36.5529 54.9995 36.0006 54.9999H3.00051C2.44828 54.9995 2.00096 54.5522 2.00051 53.9999V10.4997C2.00096 9.94752 2.44828 9.50019 3.00051 9.49975H30.972C30.972 9.49975 30.0176 14.8167 30.0162 14.823C29.9689 15.1136 30.0506 15.4105 30.2394 15.6364C30.4283 15.8623 30.706 15.9948 31.0006 15.9998H37.0006V53.9999Z" fill="#111B47"/>
<rect x="6" y="19" width="27" height="2" fill="#111B47"/>
<rect x="6" y="24" width="27" height="2" fill="#111B47"/>
<rect x="6" y="29" width="27" height="2" fill="#111B47"/>
<rect x="6" y="34" width="27" height="2" fill="#111B47"/>
<rect x="6" y="44" width="27" height="2" fill="#111B47"/>
<rect x="6" y="39" width="27" height="2" fill="#111B47"/>
</svg>

