<svg width="63" height="59" viewBox="0 0 63 59" fill="none" xmlns="http://www.w3.org/2000/svg">
<path d="M14 6.65625H29.8575V8.0692H14V6.65625Z" fill="#111B47" stroke="#111B47" stroke-width="0.5"/>
<path d="M14 10.8008H23.8954V12.2137H14V10.8008Z" fill="#111B47" stroke="#111B47" stroke-width="0.5"/>
<path d="M28.8857 42.5293H33.709V43.9423H28.8857V42.5293Z" fill="#111B47" stroke="#111B47" stroke-width="0.5"/>
<path d="M28.8857 46.6934H40.6377V48.1063H28.8857V46.6934Z" fill="#111B47" stroke="#111B47" stroke-width="0.5"/>
<path d="M57.0523 47.446C57.6174 48.1055 58.4653 48.4822 59.3131 48.4822C60.0666 48.4822 60.8205 48.1995 61.3856 47.6344C61.9507 47.0693 62.3278 46.3155 62.2334 45.4676C62.2334 44.6198 61.8567 43.8663 61.2911 43.3952L54.0372 36.8007C55.4502 34.8222 56.1096 32.3731 56.0157 29.9239C55.9213 28.0399 55.3562 26.2497 54.5084 24.7428V20.8803C54.5084 18.4312 52.5299 16.3584 50.0808 16.3584H39.0588V5.43066C39.0588 2.98156 37.0803 1.0031 34.6312 1.0031H5.99272H5.61599C3.07241 0.908708 1 2.98115 1 5.4307V7.12641H8.72467V37.9311C8.72467 40.4746 10.7971 42.453 13.2466 42.453H24.1743V53.475C24.1743 56.0185 26.2467 58.091 28.7903 57.9969H57.2397C59.5005 57.9969 61.1962 56.2068 61.1962 53.7576V52.3447V51.6852H54.5078V44.243L57.0523 47.446ZM52.5304 36.5183L52.1536 36.9894L60.3494 44.4317C60.6321 44.7144 60.8205 45.0911 60.8205 45.5623C60.8205 46.0334 60.6321 46.4101 60.3494 46.6929C60.0666 46.9757 59.6899 47.164 59.3131 47.164C58.842 47.164 58.4653 46.9757 58.1825 46.5989L51.117 38.0265L50.5519 38.4024C48.8562 39.627 46.8777 40.2864 44.8053 40.2864C39.9065 40.2864 35.5733 36.5183 35.0078 31.714C34.631 28.8877 35.5728 26.1558 37.4569 23.9893C39.5293 21.7285 42.4495 20.504 45.6526 20.6924C50.5513 21.0691 54.4138 25.12 54.6022 30.0187C54.6971 32.373 53.9433 34.7282 52.5304 36.5183ZM8.72463 5.71259H2.41291V5.43026C2.41291 3.73454 3.82586 2.22722 5.61595 2.22722C7.31167 2.22722 8.81899 3.64017 8.81899 5.43026V5.71259H8.72463ZM10.138 37.9311V5.43048C10.138 4.20592 9.66689 3.0753 8.8191 2.22744H34.443C36.1387 2.22744 37.646 3.64039 37.646 5.43048V16.4526H21.4433H21.0666C18.523 16.4526 16.5446 18.525 16.5446 20.9745V37.9317C16.5446 39.6275 15.1317 41.1348 13.3416 41.1348C11.5515 41.1343 10.138 39.7207 10.138 37.9311ZM16.5437 41.1341C17.2971 40.2862 17.8626 39.1556 17.8626 37.9311V20.9739C17.8626 19.2781 19.2755 17.7708 21.0656 17.7708C22.8557 17.7708 24.2687 19.1838 24.2687 20.9739V41.1338L16.5437 41.1341ZM59.7841 53.758C59.7841 55.3593 58.6535 56.5843 57.2405 56.5843H31.9939C32.7473 55.7365 33.3128 54.6058 33.3128 53.3813V53.0985H59.7841V53.758ZM53.0013 51.7795H32.5593H31.4504C31.4504 51.7795 31.711 52.3241 31.8054 52.6273C31.8998 52.9305 31.8998 53.1924 31.8998 53.4752C31.8998 55.1709 30.4869 56.6782 28.6968 56.6782C27.0011 56.6782 25.4937 55.2653 25.4937 53.4752V20.9746C25.4937 19.75 25.0226 18.6194 24.1748 17.7716H49.7987C51.4944 17.7716 53.0017 19.1845 53.0017 20.9746V22.9531C51.1177 20.9746 48.5741 19.5616 45.6539 19.3733C42.0741 19.0906 38.6827 20.504 36.3275 23.1415C34.1607 25.5906 33.2188 28.6997 33.5956 31.9027C34.2551 37.5549 39.0595 41.7942 44.8057 41.7942C46.9725 41.7942 49.045 41.1347 50.8346 40.0041L53.0014 42.642L53.0013 51.7795Z" fill="#111B47" stroke="#111B47" stroke-width="0.5"/>
</svg>

