<svg width="31" height="35" viewBox="0 0 31 35" fill="none" xmlns="http://www.w3.org/2000/svg">
<path d="M24.5001 0.000299838H8.75019L0 8.74989V31.4999C0 33.4329 1.56711 35 3.50008 35H24.4999C26.4329 35 28 33.4329 28 31.4999V3.49984C28 1.56684 26.4329 0 24.4999 0L24.5001 0.000299838ZM26.25 31.5006C26.25 32.4657 25.4648 33.2505 24.5001 33.2505H3.50023C2.53521 33.2505 1.75034 32.4654 1.75034 31.5006V10.5004H10.5005L10.5002 1.75007H24.5004C25.4654 1.75007 26.2503 2.53525 26.2503 3.49999L26.25 31.5006Z" fill="#5E6368"/>
<rect x="10" y="20" width="21" height="10" rx="1" fill="#CB7A00"/>
<path d="M13 27.8182V22H15.2955C15.7367 22 16.1127 22.0843 16.4233 22.2528C16.7339 22.4195 16.9706 22.6515 17.1335 22.9489C17.2983 23.2443 17.3807 23.5852 17.3807 23.9716C17.3807 24.358 17.2973 24.6989 17.1307 24.9943C16.964 25.2898 16.7225 25.5199 16.4063 25.6847C16.0919 25.8494 15.7112 25.9318 15.2642 25.9318H13.8011V24.946H15.0653C15.3021 24.946 15.4972 24.9053 15.6506 24.8239C15.8059 24.7405 15.9214 24.6259 15.9972 24.4801C16.0748 24.3324 16.1136 24.1629 16.1136 23.9716C16.1136 23.7784 16.0748 23.6098 15.9972 23.4659C15.9214 23.3201 15.8059 23.2074 15.6506 23.1278C15.4953 23.0464 15.2983 23.0057 15.0597 23.0057H14.2301V27.8182H13Z" fill="white"/>
<path d="M18.1797 27.8182V22H20.4751C20.9164 22 21.2924 22.0843 21.603 22.2528C21.9136 22.4195 22.1503 22.6515 22.3132 22.9489C22.478 23.2443 22.5604 23.5852 22.5604 23.9716C22.5604 24.358 22.477 24.6989 22.3104 24.9943C22.1437 25.2898 21.9022 25.5199 21.5859 25.6847C21.2715 25.8494 20.8909 25.9318 20.4439 25.9318H18.9808V24.946H20.245C20.4818 24.946 20.6768 24.9053 20.8303 24.8239C20.9856 24.7405 21.1011 24.6259 21.1768 24.4801C21.2545 24.3324 21.2933 24.1629 21.2933 23.9716C21.2933 23.7784 21.2545 23.6098 21.1768 23.4659C21.1011 23.3201 20.9856 23.2074 20.8303 23.1278C20.675 23.0464 20.478 23.0057 20.2393 23.0057H19.4098V27.8182H18.1797Z" fill="white"/>
<path d="M23.1378 23.0142V22H27.9162V23.0142H26.1349V27.8182H24.919V23.0142H23.1378Z" fill="white"/>
</svg>
