<svg width="64" height="50" viewBox="0 0 64 50" fill="none" xmlns="http://www.w3.org/2000/svg">
<path d="M0 0V50H64V0H0ZM63.1233 49.1228H0.876711V35.7722L19.8309 16.7982L35.0854 32.0175L35.3924 31.7104L35.6994 32.0175L44.379 23.3332L63.1234 42.1317L63.1233 49.1228ZM44.3789 22.1319L35.3929 31.1407L19.8315 15.5529L0.877337 34.5269V0.877193H63.1239V40.885L44.3789 22.1319Z" fill="#808392"/>
<path d="M52.751 5.26294C51.5493 5.26294 50.3959 5.74082 49.5458 6.59134C48.6958 7.44186 48.2188 8.59526 48.2188 9.79826C48.2188 11.0006 48.6958 12.1546 49.5458 13.0052C50.3959 13.8557 51.5493 14.333 52.751 14.333C53.9533 14.333 55.106 13.8557 55.9561 13.0052C56.8062 12.1547 57.2838 11.0006 57.2838 9.79826C57.2838 8.5953 56.8062 7.4419 55.9561 6.59134C55.1061 5.74082 53.9533 5.26294 52.751 5.26294ZM52.751 13.4468C51.7817 13.4468 50.8515 13.062 50.1659 12.376C49.4804 11.6895 49.0951 10.7595 49.0951 9.78896C49.0951 8.81913 49.4804 7.88842 50.1659 7.20249C50.8515 6.51657 51.7816 6.13109 52.751 6.13109C53.7209 6.13109 54.6505 6.51657 55.336 7.20249C56.0222 7.88841 56.4068 8.81903 56.4068 9.78896C56.4068 10.7594 56.0222 11.6895 55.336 12.376C54.6505 13.062 53.721 13.4468 52.751 13.4468Z" fill="#808392"/>
</svg>
