<svg width="16" height="16" viewBox="0 0 16 16" fill="none" xmlns="http://www.w3.org/2000/svg">
<path d="M6.79449 0.000216702C4.61875 0.00114642 2.57501 1.04356 1.29694 2.80407C0.0187344 4.56477 -0.339566 6.83072 0.333193 8.8995C1.00614 10.9685 2.62851 12.5905 4.69787 13.2627C6.76707 13.9347 9.03297 13.5756 10.7933 12.2969L14.1788 15.6824C14.4482 15.9518 14.8411 16.0571 15.2093 15.9585C15.5775 15.8598 15.8649 15.5723 15.9637 15.2041C16.0622 14.836 15.957 14.4431 15.6875 14.1736L12.3021 10.7881C13.2909 9.42906 13.7405 7.75166 13.5645 6.08022C13.3882 4.40877 12.5987 2.86208 11.3482 1.73896C10.0978 0.615843 8.47528 -0.00369636 6.79474 1.65928e-05L6.79449 0.000216702ZM6.79449 11.4628C5.55722 11.4628 4.3707 10.9713 3.49582 10.0964C2.62094 9.22157 2.1295 8.03505 2.1295 6.79778C2.1295 5.56051 2.62094 4.37398 3.49582 3.4991C4.3707 2.62423 5.55722 2.13278 6.79449 2.13278C8.03176 2.13278 9.21829 2.62423 10.0932 3.4991C10.968 4.37398 11.4595 5.56051 11.4595 6.79778C11.458 8.03448 10.9662 9.22029 10.0915 10.0948C9.217 10.9695 8.03124 11.4613 6.79449 11.4628Z" fill="#55DBF9" fill-opacity="0.4"/>
</svg>
