<svg width="61" height="57" viewBox="0 0 61 57" fill="none" xmlns="http://www.w3.org/2000/svg">
<path d="M37.8191 45.7832C37.9717 45.8593 38.1239 45.8593 38.2004 45.8593C38.3531 45.8593 38.5052 45.7832 38.6579 45.7066L45.2915 41.7386C45.5202 41.5858 45.6728 41.2808 45.6728 41.052C45.6728 40.747 45.5202 40.5176 45.2915 40.3653L38.6579 36.3973C38.4292 36.2446 38.0478 36.2446 37.8191 36.3973C37.5904 36.5501 37.3617 36.8551 37.3617 37.084V45.0194C37.3617 45.4021 37.5143 45.631 37.8191 45.7832V45.7832ZM39.0392 38.611L43.2331 41.129L39.0392 43.6471V38.611ZM21.273 11.0648H29.508C29.9654 11.0648 30.3468 10.6832 30.3468 10.2254C30.3468 9.76768 29.9654 9.38605 29.508 9.38605H21.273C20.8156 9.38605 20.4342 9.76768 20.4342 10.2254C20.4342 10.7593 20.8156 11.0648 21.273 11.0648ZM21.273 17.7793H37.438C37.8954 17.7793 38.2767 17.3976 38.2767 16.9399C38.2767 16.4821 37.8954 16.1005 37.438 16.1005H21.273C20.8156 16.1005 20.4342 16.4821 20.4342 16.9399C20.4342 17.3976 20.8156 17.7793 21.273 17.7793ZM9.53077 44.0282C11.5897 44.0282 13.1906 42.3495 13.1906 40.3657C13.1906 38.3053 11.5131 36.7032 9.53077 36.7032C7.54841 36.7032 5.87091 38.3819 5.87091 40.3657C5.87038 42.3495 7.54787 44.0282 9.53077 44.0282ZM9.53077 38.3053C10.6743 38.3053 11.5897 39.2208 11.5897 40.3657C11.5897 41.5101 10.6748 42.4261 9.53077 42.4261C8.38724 42.4261 7.47189 41.5106 7.47189 40.3657C7.54795 39.2208 8.4633 38.3053 9.53077 38.3053ZM60.237 22.205H45.6732V10.0726C45.6732 9.8437 45.5972 9.61483 45.4445 9.46207L35.9898 0.228875C35.8372 0.0761147 35.6084 0 35.3797 0H14.4873C14.0298 0 13.6485 0.381635 13.6485 0.839384V31.9719H0.838776C0.381359 31.9719 0 32.3535 0 32.8113V56.1606C0 56.6184 0.381359 57 0.838776 57H29.4325C29.8899 57 30.2713 56.6184 30.2713 56.1606V53.4136H60.1612C60.6186 53.4136 61 53.032 61 52.5742V23.0442C61 22.5864 60.6947 22.2048 60.2373 22.2048L60.237 22.205ZM35.9895 2.59454L43.0045 9.46173H35.9895V2.59454ZM15.3258 1.67851H34.312V10.2245C34.312 10.6823 34.6933 11.0639 35.1508 11.0639H43.9959V22.2047H21.2734C20.816 22.2047 20.4346 22.5864 20.4346 23.0441V31.6667C20.4346 31.7429 20.4346 31.8956 20.5107 31.9717H15.326L15.3258 1.67851ZM28.6695 55.3973H1.67704V54.1002L7.47189 48.3011L10.4456 51.277C10.7504 51.582 11.2844 51.582 11.5892 51.277L21.0443 41.8151L28.6693 49.4456L28.6695 55.3973ZM28.6695 47.0796L21.6545 40.0596C21.3497 39.7546 20.8157 39.7546 20.511 40.0596L11.0559 49.5215L8.08211 46.5456C7.77734 46.2407 7.24333 46.2407 6.93858 46.5456L1.75386 51.7341L1.75332 33.6498H28.6695L28.6695 47.0796ZM59.3982 51.811H30.2707V32.811C30.2707 32.3532 29.8894 31.9716 29.432 31.9716H22.0357C22.0357 31.8955 22.1118 31.7427 22.1118 31.6666V29.6828H59.398L59.3982 51.811ZM59.3982 28.0801H22.112V23.8832H59.3982V28.0801Z" fill="#111B47"/>
</svg>

