<svg width="59" height="59" viewBox="0 0 59 59" fill="none" xmlns="http://www.w3.org/2000/svg">
<path d="M28.6202 32.8193C28.6202 31.998 28.7155 31.3233 28.9062 30.7953C29.0968 30.2673 29.3388 29.8273 29.6322 29.4753C29.9255 29.1086 30.2408 28.8006 30.5782 28.5513C30.9155 28.302 31.2308 28.0453 31.5242 27.7813C31.8175 27.5173 32.0595 27.2166 32.2502 26.8793C32.4408 26.542 32.5362 26.102 32.5362 25.5593C32.5362 24.7673 32.2648 24.1293 31.7222 23.6453C31.1942 23.1466 30.4168 22.8973 29.3902 22.8973C28.4222 22.8973 27.6668 23.154 27.1242 23.6673C26.5962 24.1806 26.3028 24.8846 26.2442 25.7793H24.6602C24.7188 24.4446 25.1515 23.3886 25.9582 22.6113C26.7795 21.834 27.9235 21.4453 29.3902 21.4453C30.1528 21.4453 30.8275 21.548 31.4142 21.7533C32.0008 21.944 32.4922 22.2226 32.8882 22.5893C33.2988 22.956 33.6068 23.3886 33.8122 23.8873C34.0175 24.386 34.1202 24.9433 34.1202 25.5593C34.1202 26.234 34.0175 26.7913 33.8122 27.2313C33.6215 27.6566 33.3795 28.0233 33.0862 28.3313C32.7928 28.6393 32.4775 28.918 32.1402 29.1673C31.8028 29.4166 31.4875 29.7026 31.1942 30.0253C30.9008 30.3333 30.6515 30.7073 30.4462 31.1473C30.2555 31.5873 30.1602 32.1446 30.1602 32.8193H28.6202ZM29.3902 37.1533C29.0382 37.1533 28.7448 37.036 28.5102 36.8013C28.2902 36.5666 28.1802 36.2806 28.1802 35.9433C28.1802 35.606 28.2902 35.32 28.5102 35.0853C28.7448 34.8506 29.0382 34.7333 29.3902 34.7333C29.7422 34.7333 30.0282 34.8506 30.2482 35.0853C30.4828 35.32 30.6002 35.606 30.6002 35.9433C30.6002 36.2806 30.4828 36.5666 30.2482 36.8013C30.0282 37.036 29.7422 37.1533 29.3902 37.1533Z" fill="#111B47"/>
<path d="M29.5 1C37.3699 1 44.4953 4.19035 49.6531 9.34685C54.8109 14.5046 58 21.6284 58 29.5C58 37.3699 54.8096 44.4953 49.6531 49.6531C44.4954 54.8109 37.3716 58 29.5 58C21.6301 58 14.5047 54.8096 9.34685 49.6531C4.18911 44.4954 1 37.3716 1 29.5C1 21.6301 4.19035 14.5047 9.34685 9.34685C14.5046 4.18911 21.6284 1 29.5 1ZM30.3376 1.78735L30.5495 9.96687C30.5544 10.18 30.3858 10.3571 30.1731 10.362H30.1516C29.224 10.3328 28.4845 10.3822 27.7146 10.5265C26.9418 10.6707 26.1277 10.9127 25.0559 11.2672C24.8614 11.3313 24.6511 11.2324 24.5757 11.0444L23.3973 8.50849C23.3102 8.32047 23.3876 8.098 23.5696 8.00398C24.0984 7.72884 24.6909 7.53919 25.2987 7.40871C25.7606 7.30902 26.2303 7.24419 26.6853 7.20163L26.539 5.14514C25.2792 5.23631 24.0351 5.43933 22.8851 5.75136C21.8286 6.03785 20.8537 6.41471 20.021 6.87951L24.0351 13.6289C25.748 13.0393 27.5865 12.7188 29.4996 12.7188C30.3247 12.7188 31.1359 12.7787 31.929 12.8938L31.8244 4.79657C31.8187 4.58342 31.9861 4.40634 32.2001 4.40066C33.3331 4.36865 34.5751 4.5429 35.8455 4.87883C37.1633 5.22854 38.5131 5.75331 39.8018 6.40658C39.9914 6.50059 40.07 6.72995 39.978 6.92081L38.7502 9.44495C38.7473 9.45184 38.7445 9.45833 38.7405 9.46522C38.6465 9.65689 38.4151 9.73712 38.2234 9.64352C37.7343 9.40444 37.2047 9.17589 36.6705 9.00366C36.2637 8.87278 35.8516 8.77309 35.4455 8.72285L35.2607 10.8025C36.232 11.0096 36.9939 11.2004 37.6969 11.4484C38.3748 11.6875 38.9953 11.978 39.6894 12.3865L43.4199 5.52C39.5548 3.2718 35.0962 1.93088 30.3365 1.78949L30.3376 1.78735ZM44.0829 5.9158L40.1753 13.1077C40.0736 13.2946 39.8393 13.3643 39.6513 13.2617C39.6436 13.2577 39.6359 13.2528 39.629 13.2484C38.8429 12.7613 38.1775 12.4351 37.4399 12.1745C36.6935 11.9111 35.8677 11.7137 34.7674 11.4852C34.5661 11.4434 34.4344 11.2518 34.4635 11.0516L34.7103 8.26892C34.7277 8.06266 34.906 7.90786 35.1111 7.91638C35.7076 7.94272 36.3154 8.07401 36.905 8.26406C37.3593 8.41036 37.7985 8.58825 38.2123 8.77829L39.1135 6.92398C37.9761 6.37206 36.7977 5.92672 35.6473 5.62155C34.5872 5.34073 33.553 5.17905 32.6004 5.16567L32.7021 13.021C35.3859 13.5401 37.8424 14.6978 39.9057 16.3305L43.8669 9.25969C43.9694 9.07572 44.2008 9.00804 44.3868 9.10854C45.382 9.64668 46.3728 10.4195 47.3048 11.347C48.2652 12.3025 49.1676 13.4258 49.955 14.6294C49.9591 14.6342 49.9627 14.6399 49.9668 14.646C50.0859 14.8231 50.0393 15.0634 49.8622 15.1833L47.52 16.7674C47.3429 16.8865 47.1026 16.8399 46.9827 16.6628C46.6775 16.2106 46.3339 15.747 45.9575 15.3317C45.6718 15.016 45.365 14.7226 45.0388 14.4779L43.8394 16.1867C44.5745 16.8489 45.1378 17.3939 45.6256 17.9645C46.0933 18.5107 46.4855 19.0732 46.8822 19.7722L53.5466 15.6912C52.3236 13.5658 50.8267 11.6178 49.1045 9.89524C47.593 8.38378 45.9084 7.04691 44.0834 5.91596L44.0829 5.9158ZM53.9229 16.3664L46.9413 20.6419C46.7593 20.7533 46.521 20.695 46.4108 20.513C46.4031 20.5005 46.3962 20.4887 46.3905 20.4762C45.9557 19.6677 45.5453 19.0566 45.0387 18.4662C44.5273 17.8689 43.9098 17.285 43.0686 16.5345C42.9166 16.3988 42.8963 16.1707 43.0183 16.0106L44.6275 13.7186C44.7503 13.5444 44.9914 13.5018 45.1656 13.6246L45.1733 13.6303C45.6681 13.9488 46.1211 14.3613 46.5308 14.8143C46.8514 15.1677 47.1427 15.5425 47.4053 15.9113L49.1134 14.7563C48.4038 13.7096 47.6059 12.7347 46.7627 11.8955C45.9862 11.1227 45.1717 10.4674 44.3528 9.97838L40.5121 16.8344C40.8063 17.0909 41.092 17.3563 41.368 17.6323C42.9695 19.2338 44.2484 21.1577 45.1005 23.2973L52.0464 19.1661C52.0505 19.1632 52.0541 19.1612 52.0582 19.1584C52.2401 19.0461 52.4784 19.1033 52.5907 19.2852C53.1831 20.2484 53.6548 21.4122 53.9984 22.6839C54.3526 23.9919 54.5726 25.4172 54.652 26.8569L54.6528 26.8695C54.6682 27.0826 54.5078 27.2674 54.2946 27.2828L51.4742 27.4834H51.4722C51.259 27.498 51.075 27.3363 51.0609 27.1232C51.0232 26.585 50.9563 26.0137 50.8372 25.4589C50.748 25.0435 50.6281 24.6367 50.4684 24.261L48.5756 25.1404C48.8808 26.0805 49.0955 26.8346 49.2329 27.5725C49.3654 28.2804 49.4237 28.9628 49.4177 29.7676L57.2244 29.5654V29.5006C57.2244 24.7484 56.0286 20.2764 53.9218 16.3674L53.9229 16.3664ZM57.2121 30.3367L49.0326 30.5487C48.8195 30.5535 48.6424 30.385 48.6375 30.1722V30.1507C48.6667 29.2232 48.6172 28.4837 48.473 27.7137C48.3287 26.941 48.0868 26.1256 47.7322 25.055C47.6682 24.8605 47.7671 24.6502 47.9551 24.5748L50.491 23.3965C50.679 23.3094 50.9015 23.3867 50.9955 23.5687C51.2706 24.0975 51.4603 24.69 51.5908 25.2978C51.6905 25.7598 51.7553 26.2294 51.7978 26.6845L53.8543 26.5382C53.7632 25.2783 53.5602 24.0343 53.2481 22.8842C52.9616 21.8278 52.5848 20.8528 52.12 20.0201L45.3706 24.0343C45.9602 25.7472 46.2807 27.5856 46.2807 29.4987C46.2807 30.3238 46.2207 31.135 46.1057 31.9281L54.2029 31.8235C54.4161 31.8179 54.5931 31.9852 54.5988 32.1992C54.6308 33.3322 54.4566 34.5743 54.1207 35.8446C53.7709 37.1624 53.2462 38.5122 52.5929 39.8009C52.4989 39.9905 52.2695 40.0691 52.0787 39.9772L49.5545 38.7493C49.5476 38.7465 49.5411 38.7436 49.5343 38.7396C49.3426 38.6456 49.2624 38.4142 49.356 38.2225C49.595 37.7334 49.8236 37.2038 49.9958 36.6697C50.1267 36.2628 50.2264 35.8507 50.2766 35.4446L48.197 35.2598C47.9899 36.2312 47.7991 36.993 47.5511 37.696C47.312 38.374 47.0214 38.9944 46.613 39.6885L53.4795 43.419C55.7277 39.554 57.0686 35.0953 57.21 30.3356L57.2121 30.3367ZM53.0837 44.082L45.8917 40.1744C45.7049 40.0727 45.6352 39.8385 45.7378 39.6504C45.7418 39.6427 45.7467 39.635 45.7511 39.6281C46.2382 38.842 46.5644 38.1766 46.825 37.4391C47.0884 36.6926 47.2858 35.8668 47.5143 34.7666C47.556 34.5652 47.7477 34.4335 47.9479 34.4627L50.7306 34.7094C50.9368 34.7269 51.0916 34.9052 51.0831 35.1102C51.0568 35.7067 50.9255 36.3145 50.7354 36.9041C50.5891 37.3584 50.4112 37.7977 50.2212 38.2115L52.0755 39.1127C52.6274 37.9752 53.0728 36.7968 53.3779 35.6464C53.6587 34.5863 53.8204 33.5521 53.8338 32.5995L45.9785 32.7012C45.4594 35.385 44.3016 37.8415 42.669 39.9049L49.7398 43.866C49.9238 43.9685 49.9914 44.1999 49.8909 44.3859C49.3528 45.3811 48.58 46.372 47.6525 47.3039C46.697 48.2643 45.5737 49.1668 44.3701 49.9541C44.3652 49.9582 44.3596 49.9618 44.3535 49.9659C44.1764 50.085 43.9361 50.0384 43.8162 49.8613L42.2321 47.5191C42.113 47.3421 42.1596 47.1018 42.3366 46.9818C42.7889 46.6767 43.2524 46.333 43.6678 45.9566C43.9835 45.6709 44.2769 45.3641 44.5216 45.0379L42.8127 43.8385C42.1506 44.5736 41.6055 45.1369 41.035 45.6248C40.4887 46.0924 39.9262 46.4847 39.2273 46.8814L43.3083 53.5457C45.4337 52.3227 47.3817 50.8258 49.1042 49.1036C50.6157 47.5922 51.9526 45.9076 53.0835 44.0825L53.0837 44.082ZM42.6331 53.922L38.3576 46.9404C38.2461 46.7584 38.3045 46.5202 38.4864 46.4099C38.499 46.4022 38.5107 46.3954 38.5233 46.3897C39.3317 45.9549 39.9429 45.5444 40.5332 45.0379C41.1305 44.5265 41.7145 43.9089 42.4649 43.0677C42.6007 42.9157 42.8288 42.8955 42.9889 43.0174L45.2809 44.6266C45.4551 44.7494 45.4977 44.9905 45.3749 45.1648L45.3692 45.1725C45.0507 45.6672 44.6382 46.1203 44.1852 46.53C43.8318 46.8505 43.457 47.1419 43.0882 47.4044L44.2431 49.1125C45.2899 48.4029 46.2648 47.6051 47.104 46.7618C47.8768 45.9854 48.5321 45.1709 49.0211 44.352L42.1651 40.5113C41.9086 40.8055 41.6431 41.0911 41.3672 41.3671C39.7657 42.9686 37.8417 44.2475 35.7022 45.0996L39.8334 52.0456C39.8363 52.0496 39.8383 52.0533 39.8411 52.0573C39.9534 52.2393 39.8962 52.4775 39.7143 52.5898C38.751 53.1822 37.5872 53.6539 36.3156 53.9975C35.0076 54.3517 33.5823 54.5717 32.1425 54.6511L32.13 54.652C31.9168 54.6674 31.7321 54.5069 31.7167 54.2937L31.5161 51.4733V51.4713C31.5015 51.2581 31.6632 51.0742 31.8763 51.06C32.4145 51.0223 32.9858 50.9554 33.5406 50.8363C33.9559 50.7472 34.3628 50.6272 34.7384 50.4675L33.8591 48.5747C32.919 48.8799 32.1649 49.0947 31.427 49.232C30.719 49.3645 30.0367 49.4229 29.2319 49.4168L29.4341 57.2235H29.4989C34.251 57.2235 38.7231 56.0277 42.6321 53.9209L42.6331 53.922ZM28.6628 57.2113L28.4508 49.0317C28.4459 48.8186 28.6145 48.6415 28.8273 48.6366H28.8487C29.7763 48.6658 30.5158 48.6164 31.2858 48.4721C32.0585 48.3279 32.8726 48.0859 33.9445 47.7314C34.139 47.6673 34.3493 47.7662 34.4246 47.9542L35.603 50.4901C35.6901 50.6781 35.6127 50.9006 35.4308 50.9946C34.902 51.2698 34.3095 51.4594 33.7017 51.5899C33.2397 51.6896 32.7701 51.7544 32.315 51.797L32.4613 53.8535C33.7212 53.7623 34.9652 53.5593 36.1153 53.2472C37.1717 52.9608 38.1467 52.5839 38.9794 52.1191L34.9652 45.3697C33.2523 45.9593 31.4139 46.2798 29.5007 46.2798C28.6757 46.2798 27.8645 46.2199 27.0714 46.1048L27.1759 54.202C27.1816 54.4152 27.0143 54.5923 26.8003 54.5979C25.6673 54.63 24.4252 54.4557 23.1548 54.1198C21.8371 53.7701 20.4872 53.2453 19.1986 52.592C19.009 52.498 18.9303 52.2687 19.0223 52.0778L20.2502 49.5536C20.253 49.5468 20.2558 49.5403 20.2599 49.5334C20.3539 49.3417 20.5853 49.2615 20.777 49.3551C21.2661 49.5942 21.7957 49.8227 22.3298 49.9949C22.7367 50.1258 23.1488 50.2255 23.5549 50.2758L23.7396 48.1961C22.7683 47.9891 22.0065 47.7982 21.3035 47.5502C20.6255 47.3111 20.0051 47.0206 19.311 46.6121L15.5804 53.4786C19.4455 55.7268 23.9042 57.0677 28.6639 57.2091L28.6628 57.2113ZM14.9175 53.0828L18.8251 45.8909C18.9268 45.7041 19.161 45.6344 19.349 45.7369C19.3567 45.7409 19.3644 45.7458 19.3713 45.7502C20.1575 46.2373 20.8228 46.5635 21.5604 46.8241C22.3068 47.0875 23.1327 47.2849 24.2329 47.5134C24.4343 47.5552 24.566 47.7468 24.5368 47.947L24.29 50.7297C24.2726 50.9359 24.0943 51.0907 23.8893 51.0822C23.2928 51.0559 22.685 50.9246 22.0953 50.7345C21.6411 50.5882 21.2018 50.4104 20.788 50.2203L19.8868 52.0746C21.0243 52.6265 22.2026 53.0719 23.3531 53.3771C24.4132 53.6579 25.4474 53.8196 26.4 53.8329L26.2983 45.9776C23.6145 45.4585 21.158 44.3008 19.0946 42.6681L15.1335 49.7389C15.031 49.9229 14.7996 49.9906 14.6136 49.8901C13.6183 49.3519 12.6275 48.5791 11.6955 47.6516C10.7352 46.6961 9.83272 45.5728 9.04535 44.3692C9.0413 44.3644 9.03765 44.3587 9.0336 44.3526C8.91447 44.1755 8.96107 43.9352 9.13815 43.8153L11.4803 42.2312C11.6574 42.1121 11.8977 42.1587 12.0177 42.3358C12.3228 42.788 12.6664 43.2516 13.0429 43.6669C13.3286 43.9826 13.6353 44.276 13.9615 44.5207L15.161 42.8119C14.4271 42.1497 13.8626 41.6035 13.3747 41.0341C12.9071 40.4879 12.5148 39.9254 12.1181 39.2264L5.4538 43.3074C6.67676 45.4328 8.1737 47.3808 9.89585 49.1034C11.4073 50.6148 13.0919 51.9517 14.917 53.0826L14.9175 53.0828ZM5.07744 42.6323L12.0591 38.3567C12.241 38.2453 12.4793 38.3036 12.5895 38.4856C12.5972 38.4981 12.6041 38.5099 12.6098 38.5224C13.0446 39.3309 13.4551 39.942 13.9616 40.5324C14.473 41.1297 15.0906 41.7136 15.9318 42.4641C16.0838 42.5998 16.104 42.8279 15.982 42.988L14.3729 45.28C14.2501 45.4543 14.009 45.4968 13.8347 45.374L13.827 45.3683C13.3322 45.0498 12.8792 44.6373 12.4695 44.1843C12.149 43.8309 11.8576 43.4561 11.595 43.0874L9.88699 44.2423C10.5965 45.289 11.3944 46.2639 12.2377 47.1031C13.0141 47.8759 13.8286 48.5312 14.6475 49.0202L18.4882 42.1642C18.194 41.9077 17.9083 41.6423 17.6324 41.3663C16.0309 39.7648 14.752 37.8409 13.8999 35.7013L6.95391 39.8325C6.94985 39.8354 6.94621 39.8374 6.94215 39.8402C6.76021 39.9525 6.52193 39.8953 6.40969 39.7134C5.81725 38.7502 5.34555 37.5864 5.00197 36.3147C4.64779 35.0067 4.42776 33.5815 4.34834 32.1417L4.34752 32.1291C4.33213 31.916 4.49259 31.7312 4.70574 31.7158L7.52617 31.5152H7.52819C7.74134 31.5006 7.92531 31.6623 7.93949 31.8754C7.97718 32.4136 8.04404 32.9849 8.16317 33.5397C8.25232 33.9551 8.37226 34.3619 8.53193 34.7376L10.4247 33.8582C10.1196 32.9181 9.90483 32.164 9.76746 31.4261C9.63495 30.7182 9.5766 30.0358 9.58268 29.231L1.77599 29.4332V29.498C1.77599 34.2502 2.97178 38.7222 5.07859 42.6313L5.07744 42.6323ZM1.78822 28.6619L9.96774 28.4499C10.1809 28.4451 10.358 28.6137 10.3628 28.8264V28.8479C10.3337 29.7754 10.3831 30.5149 10.5274 31.2849C10.6716 32.0576 10.9135 32.8718 11.2681 33.9436C11.3321 34.1381 11.2333 34.3484 11.0452 34.4238L8.50936 35.6021C8.32134 35.6893 8.09887 35.6119 8.00486 35.4299C7.72971 34.9011 7.54006 34.3086 7.40958 33.7008C7.30989 33.2388 7.24506 32.7692 7.20251 32.3141L5.14601 32.4604C5.23718 33.7203 5.4402 34.9644 5.75223 36.1144C6.03872 37.1709 6.41558 38.1458 6.88038 38.9785L13.6298 34.9643C13.0402 33.2514 12.7196 31.413 12.7196 29.4999C12.7196 28.6748 12.7796 27.8636 12.8947 27.0705L4.79744 27.1751C4.58429 27.1807 4.40721 27.0134 4.40153 26.7994C4.36952 25.6664 4.54377 24.4243 4.8797 23.154C5.22941 21.8362 5.75418 20.4864 6.40745 19.1977C6.50146 19.0081 6.73082 18.9295 6.92168 19.0215L9.44583 20.2493C9.45271 20.2521 9.4592 20.255 9.46609 20.259C9.65776 20.353 9.73799 20.5844 9.64439 20.7761C9.40531 21.2652 9.17676 21.7948 9.00454 22.3289C8.87365 22.7358 8.77396 23.1479 8.72372 23.554L10.8034 23.7388C11.0104 22.7674 11.2013 22.0056 11.4493 21.3026C11.6884 20.6246 11.9789 20.0042 12.3874 19.3101L5.52087 15.5796C3.27267 19.4446 1.93175 23.9033 1.79036 28.663L1.78822 28.6619ZM5.91668 14.9166L13.1086 18.8242C13.2954 18.9259 13.3651 19.1601 13.2626 19.3482C13.2585 19.3559 13.2537 19.3636 13.2492 19.3705C12.7621 20.1566 12.4359 20.822 12.1753 21.5595C11.9119 22.306 11.7146 23.1318 11.486 24.232C11.4443 24.4334 11.2526 24.5651 11.0525 24.5359L8.26979 24.2892C8.06353 24.2717 7.90873 24.0934 7.91725 23.8884C7.94359 23.2919 8.07488 22.6841 8.26494 22.0945C8.41123 21.6402 8.58912 21.2009 8.77916 20.7872L6.92485 19.8859C6.37293 21.0234 5.92759 22.2018 5.62242 23.3522C5.3416 24.4123 5.17992 25.4465 5.16655 26.3991L13.0219 26.2974C13.541 23.6136 14.6987 21.1571 16.3313 19.0937L9.26056 15.1326C9.07659 15.0301 9.00891 14.7987 9.10941 14.6127C9.64755 13.6175 10.4203 12.6267 11.3479 11.6947C12.3034 10.7343 13.4267 9.83185 14.6302 9.04448C14.6351 9.04043 14.6408 9.03678 14.6469 9.03273C14.8239 8.9136 15.0642 8.96019 15.1842 9.13728L16.7683 11.4795C16.8874 11.6566 16.8408 11.8968 16.6637 12.0168C16.2115 12.3219 15.7479 12.6656 15.3325 13.042C15.0169 13.3277 14.7235 13.6345 14.4787 13.9607L16.1876 15.1601C16.8497 14.4262 17.3959 13.8617 17.9654 13.3738C18.5116 12.9062 19.0741 12.5139 19.7731 12.1173L15.6921 5.45292C13.5667 6.67589 11.6187 8.17283 9.89612 9.89498C8.38466 11.4064 7.04779 13.091 5.91684 14.9161L5.91668 14.9166ZM16.3672 5.07657L20.6428 12.0582C20.7542 12.2402 20.6959 12.4784 20.5139 12.5887C20.5014 12.5964 20.4896 12.6033 20.477 12.6089C19.6686 13.0437 19.0575 13.4542 18.4671 13.9607C17.8698 14.4721 17.2859 15.0897 16.5354 15.9309C16.3997 16.0829 16.1715 16.1032 16.0115 15.9812L13.7195 14.372C13.5452 14.2492 13.5027 14.0081 13.6255 13.8339L13.6311 13.8262C13.9496 13.3314 14.3622 12.8783 14.8152 12.4686C15.1686 12.1481 15.5434 11.8568 15.9121 11.5942L14.7572 9.88612C13.7105 10.5957 12.7356 11.3935 11.8963 12.2368C11.1236 13.0132 10.4683 13.8277 9.97925 14.6466L16.8353 18.4873C17.0918 18.1931 17.3572 17.9075 17.6332 17.6315C19.2347 16.03 21.1586 14.7511 23.2982 13.899L19.1669 6.95303C19.1641 6.94898 19.1621 6.94533 19.1592 6.94128C19.047 6.75934 19.1041 6.52106 19.2861 6.40882C20.2493 5.81638 21.4131 5.34467 22.6847 5.00109C23.9928 4.64692 25.418 4.42688 26.8578 4.34746L26.8704 4.34665C27.0835 4.33125 27.2683 4.49172 27.2837 4.70487L27.4843 7.52529V7.52732C27.4989 7.74047 27.3372 7.92444 27.124 7.93862C26.5859 7.97631 26.0146 8.04317 25.4598 8.1623C25.0444 8.25145 24.6376 8.37139 24.2619 8.53106L25.1412 10.4239C26.0814 10.1187 26.8355 9.90395 27.5734 9.76658C28.2813 9.63408 28.9637 9.57573 29.7685 9.58181L29.5663 1.77512H29.5014C24.7493 1.77512 20.2773 2.97091 16.3682 5.07772L16.3672 5.07657ZM40.8193 18.1807C37.9223 15.2837 33.9207 13.4927 29.4994 13.4927C25.0781 13.4927 21.0768 15.285 18.1795 18.1807C15.2825 21.0777 13.4915 25.0793 13.4915 29.5006C13.4915 33.9216 15.2838 37.9232 18.1795 40.8205C21.0765 43.7175 25.0781 45.5085 29.4994 45.5085C33.9207 45.5085 37.922 43.7162 40.8193 40.8205C43.7163 37.9235 45.5073 33.9219 45.5073 29.5006C45.5073 25.0796 43.715 21.078 40.8193 18.1807Z" fill="#111B47" stroke="#111B47" stroke-width="0.5"/>
</svg>

