<svg width="57" height="57" viewBox="0 0 57 57" fill="none" xmlns="http://www.w3.org/2000/svg">
<path d="M55.8119 23.7493H45.1245V3.56263C45.1245 1.54374 43.5808 0 41.5619 0H3.56263C1.54374 0 0 1.54374 0 3.56263V49.6379C0 53.6751 3.32478 57 7.36256 57H49.8751C53.7939 57 57.0002 53.7936 57.0002 49.8748L56.9998 24.9379C56.9998 24.2254 56.5247 23.7503 55.8122 23.7503L55.8119 23.7493ZM7.36256 54.6242C4.63123 54.6242 2.37516 52.368 2.37516 49.6368V3.56263C2.37516 2.8502 2.85026 2.37505 3.56274 2.37505H41.5631C42.2755 2.37505 42.7507 2.85015 42.7507 3.56263V24.938C42.7507 50.2311 42.0383 51.7749 44.5317 54.6253L7.36256 54.6242ZM54.6243 49.8745C54.6243 52.4869 52.487 54.6246 49.8742 54.6246C47.2618 54.6246 45.1241 52.4873 45.1241 49.8745L45.1245 26.124H54.6243L54.6243 49.8745Z" fill="#111B47"/>
<path d="M8.31064 21.3749H17.8104C18.5228 21.3749 18.998 20.8998 18.998 20.1873L18.9984 8.31258C18.9984 7.60015 18.5233 7.125 17.8108 7.125H8.31063C7.5982 7.125 7.12305 7.6001 7.12305 8.31258V20.1873C7.12305 20.9001 7.59815 21.3749 8.31063 21.3749H8.31064ZM9.49822 9.50016H16.6234V18.9999H9.49822V9.50016Z" fill="#111B47"/>
<path d="M36.8123 13.0625H24.9376C24.2252 13.0625 23.75 13.5376 23.75 14.2501C23.75 14.9625 24.2251 15.4377 24.9376 15.4377H36.8123C37.5247 15.4377 37.9999 14.9626 37.9999 14.2501C37.9999 13.5377 37.5252 13.0625 36.8123 13.0625Z" fill="#111B47"/>
<path d="M20.1864 26.125H8.31063C7.5982 26.125 7.12305 26.6001 7.12305 27.3126C7.12305 28.025 7.59815 28.5002 8.31063 28.5002H20.1853C20.8978 28.5002 21.3729 28.0251 21.3729 27.3126C21.3729 26.6002 20.8982 26.125 20.1858 26.125H20.1864Z" fill="#111B47"/>
<path d="M36.8123 26.125H24.9376C24.2252 26.125 23.75 26.6001 23.75 27.3126C23.75 28.025 24.2251 28.5002 24.9376 28.5002H36.8123C37.5247 28.5002 37.9999 28.0251 37.9999 27.3126C37.9999 26.6002 37.5252 26.125 36.8123 26.125Z" fill="#111B47"/>
<path d="M20.1864 33.25H8.31063C7.5982 33.25 7.12305 33.7251 7.12305 34.4376C7.12305 35.15 7.59815 35.6252 8.31063 35.6252H20.1853C20.8978 35.6252 21.3729 35.1501 21.3729 34.4376C21.3729 33.7247 20.8982 33.25 20.1858 33.25H20.1864Z" fill="#111B47"/>
<path d="M36.8123 33.25H24.9376C24.2252 33.25 23.75 33.7251 23.75 34.4376C23.75 35.15 24.2251 35.6252 24.9376 35.6252H36.8123C37.5247 35.6252 37.9999 35.1501 37.9999 34.4376C37.9999 33.7247 37.5252 33.25 36.8123 33.25Z" fill="#111B47"/>
<path d="M20.1864 40.375H8.31063C7.5982 40.375 7.12305 40.8501 7.12305 41.5626C7.12305 42.275 7.59815 42.7502 8.31063 42.7502H20.1853C20.8978 42.7502 21.3729 42.2751 21.3729 41.5626C21.3729 40.8502 20.8982 40.375 20.1858 40.375H20.1864Z" fill="#111B47"/>
<path d="M36.8123 40.375H24.9376C24.2252 40.375 23.75 40.8501 23.75 41.5626C23.75 42.275 24.2251 42.7502 24.9376 42.7502H36.8123C37.5247 42.7502 37.9999 42.2751 37.9999 41.5626C37.9999 40.8502 37.5252 40.375 36.8123 40.375Z" fill="#111B47"/>
<path d="M20.1864 47.5H8.31063C7.5982 47.5 7.12305 47.9751 7.12305 48.6876C7.12305 49.4001 7.59815 49.8752 8.31063 49.8752H20.1853C20.8978 49.8752 21.3729 49.4001 21.3729 48.6876C21.3729 47.9751 20.8982 47.5 20.1858 47.5H20.1864Z" fill="#111B47"/>
<path d="M36.8123 47.5H24.9376C24.2252 47.5 23.75 47.9751 23.75 48.6876C23.75 49.4001 24.2251 49.8752 24.9376 49.8752H36.8123C37.5247 49.8752 37.9999 49.4001 37.9999 48.6876C37.9999 47.9751 37.5252 47.5 36.8123 47.5Z" fill="#111B47"/>
</svg>

