<svg width="46" height="57" viewBox="0 0 46 57" fill="none" xmlns="http://www.w3.org/2000/svg">
<path fill-rule="evenodd" clip-rule="evenodd" d="M17.5073 5.07974C19.4603 3.63108 23.3869 0.819814 23.3869 0.819814C23.3869 0.819814 24.9366 0.500122 26.8576 0.819814C24.772 2.27773 21.5585 4.56485 18.6989 6.68606C17.2684 7.74711 15.9327 8.76214 14.8729 9.60891C14.5708 9.85031 14.2972 10.0733 14.0538 10.2763L16.4862 10.9165L24.9366 5.36342L34.3798 6.33006L33.841 7.58156C33.0227 9.48203 29.8907 12.3349 23.7334 11.8074C18.0737 15.4506 14.8365 17.5514 13.1414 18.6601C15.9163 19.6034 20.9472 20.7167 27.1433 20.3767C32.6367 20.0752 37.2241 23.801 40.4747 27.8179C42.5752 30.4135 45.2759 35.5002 45.2759 35.5002C45.2759 35.5002 45.2759 37.0002 44.5656 39.1235C44.0582 37.3194 42.0411 32.9328 38.92 29.076C35.7764 25.1914 31.7468 22.1271 27.2529 22.3737C19.0996 22.8211 12.7899 20.8698 10.5593 19.7763L9.04492 19.034L10.4227 18.0614C10.7905 17.8018 13.7968 15.8243 22.9422 9.93817L23.2379 9.74784L23.5877 9.7845C27.5519 10.2001 29.8713 9.06241 31.0572 8.0004L25.4405 7.42546L16.8395 13.0775L10.2454 11.3422L11.2722 10.1321C11.6872 9.64286 12.5678 8.89072 13.6244 8.04643C14.7111 7.17818 16.0685 6.14706 17.5073 5.07974Z" fill="#111B47"/>
<path fill-rule="evenodd" clip-rule="evenodd" d="M11.2136 31.9266C13.3565 27.9205 14.1454 22.492 14.2635 20.2871L16.2607 20.3941C16.1354 22.7315 15.3197 28.4735 12.9912 32.8437C12.9418 32.9496 12.8897 33.0469 12.8456 33.1273C12.8246 33.1658 12.8067 33.1979 12.7906 33.227C12.7644 33.2742 12.7426 33.3135 12.7185 33.3591C12.7159 33.3639 12.7135 33.3686 12.7111 33.3732C12.75 33.3982 12.8001 33.4278 12.8639 33.4612C13.8963 34.002 14.4861 34.3647 14.6863 34.5076C14.9433 34.6912 15.1971 35.0144 15.272 35.453C15.3532 35.9286 15.2011 36.3935 14.8944 36.7879C14.8849 36.8001 14.8768 36.814 14.8705 36.829C15.3308 36.9486 15.8033 37.0441 15.9891 37.0779L18.8077 37.5904L16.2824 38.9432C16.0822 39.0505 15.8245 39.2114 15.6182 39.3744C15.713 39.4968 15.8235 39.6507 15.9218 39.8333C16.1989 40.3479 16.3086 40.9524 16.1901 41.7421C16.0939 42.3837 16.0067 43.038 16.1015 43.5625C16.1456 43.8064 16.2193 43.9549 16.2962 44.0451C16.3613 44.1215 16.4772 44.2151 16.7371 44.2671C18.2855 44.5768 19.6338 44.2377 22.1671 43.4963C23.8901 42.9919 25.7737 42.8911 27.4511 43.2923C29.1331 43.6945 30.6791 44.6247 31.5488 46.2336C32.2715 47.5705 32.644 48.75 32.6563 50.4292C32.6665 51.8196 31.9905 56.0008 31.9905 56.0008C31.9905 56.0008 31 56.5008 29.8079 56.8177C30.3891 53.6975 30.6665 51.8252 30.6563 50.4439C30.6468 49.1373 30.3798 48.2768 29.7895 47.1847C29.2596 46.2045 28.2748 45.5457 26.9859 45.2374C25.6926 44.9281 24.1655 44.9953 22.7289 45.4157C20.2686 46.1358 18.4502 46.6493 16.3448 46.2282C15.6912 46.0975 15.1601 45.7953 14.7742 45.3426C14.4001 44.9038 14.2187 44.3901 14.1334 43.9184C13.9735 43.034 14.1184 42.0702 14.2058 41.4885C14.208 41.4739 14.2101 41.4596 14.2123 41.4455C14.2765 41.0172 14.2035 40.8606 14.1609 40.7815C14.1262 40.717 14.0769 40.6479 13.9842 40.5322C13.9717 40.5166 13.9576 40.4993 13.9422 40.4803C13.8603 40.3792 13.7419 40.2333 13.6384 40.078C13.2902 39.5557 13.4262 39.0146 13.5837 38.7023C13.6194 38.6317 13.6596 38.5643 13.7026 38.5004C13.256 38.2159 12.9888 37.7623 12.8961 37.2987C12.8015 36.8258 12.877 36.3191 13.1097 35.8789C12.8492 35.726 12.4635 35.5092 11.9359 35.2328C11.5443 35.0277 11.1896 34.7717 10.9485 34.4243C10.6814 34.0396 10.6082 33.6217 10.664 33.2312C10.7128 32.8894 10.8571 32.6005 10.9509 32.4233C11.0022 32.3264 11.0406 32.2578 11.0723 32.2011C11.1174 32.1203 11.149 32.0638 11.1851 31.9845L11.1984 31.9551L11.2136 31.9266Z" fill="#111B47"/>
<rect x="1" y="1" width="44" height="55" rx="3" stroke="#111B47" stroke-width="2"/>
</svg>

