<svg width="61" height="58" viewBox="0 0 61 58" fill="none" xmlns="http://www.w3.org/2000/svg">
<path d="M59.9837 0.810547H25.5159C24.9548 0.810547 24.4998 1.26552 24.4998 1.82663V9.31668C7.09982 1.56275 -8.22039 23.269 4.97475 37.0946C10.746 42.9715 19.935 43.8893 26.6818 39.2888L28.7348 41.3714L27.8031 42.2936C27.4049 42.6873 27.4012 43.3301 27.7945 43.7287L40.3463 56.4524C42.2274 58.4324 45.6245 58.4555 47.5206 56.4896L48.3411 55.6772C50.3293 53.7099 50.3469 50.4861 48.3811 48.4906L43.6952 43.7372L59.9839 43.7377C60.545 43.7377 61 43.2827 61 42.7216V1.82646C61 1.26535 60.5448 0.810547 59.9837 0.810547ZM6.4205 35.6684C-3.02547 26.1299 3.98782 9.68457 17.3139 9.75656C29.0622 9.64951 36.3664 22.997 30.0922 32.95C25.2119 41.1548 13.0174 42.6799 6.42154 35.668L6.4205 35.6684ZM28.3307 38.068C29.0098 37.4896 29.6062 36.8922 30.1796 36.2345L32.0286 38.1102L30.1782 39.9422L28.3307 38.068ZM46.9117 54.2336C46.1451 55.0578 45.148 56.0213 43.9474 55.93C43.1327 55.9278 42.3661 55.6057 41.7905 55.0251L29.9529 43.0249C31.3904 41.6014 33.6883 39.3265 35.1077 37.9213L46.9326 49.9169C48.1143 51.1162 48.1048 53.0523 46.9122 54.2325L46.9117 54.2336ZM58.9676 41.7062H41.6942L35.8391 35.7698C35.6494 35.5779 35.3913 35.4686 35.1214 35.4672C34.5349 35.3683 33.8654 36.3663 33.4721 36.6806L31.4331 34.6122C35.991 28.0353 35.1808 18.4664 29.4921 12.8158C28.5917 11.9072 27.592 11.1152 26.531 10.4189L26.5314 2.84265H58.9671L58.9676 41.7062Z" fill="#111B47"/>
<path d="M25.346 20.8661L26.1933 20.1113C27.1822 19.2241 25.8368 17.7122 24.842 18.5941L24.2201 19.1484C18.8303 12.6949 8.0882 16.6253 8.13 25.0635C8.13 30.1053 12.2238 34.2082 17.2557 34.2082C23.9659 34.323 28.5578 26.7627 25.3458 20.8668L25.346 20.8661ZM17.2554 32.176C13.3439 32.176 10.1619 28.9853 10.1619 25.0634C10.1315 18.4757 18.5292 15.4337 22.7009 20.502L16.3051 26.2002L13.9177 24.6044C12.8091 23.8732 11.6868 25.5497 12.7886 26.2941L15.8292 28.3263C16.0007 28.441 16.198 28.4973 16.394 28.4973C16.6367 28.4973 16.8789 28.4106 17.0698 28.2396L23.7724 22.2683C25.8259 26.8003 22.2388 32.2813 17.2554 32.176L17.2554 32.176Z" fill="#111B47"/>
<path d="M41.7358 16.6272H53.9009C54.462 16.6272 54.917 16.1722 54.917 15.6111V8.49851C54.917 7.9374 54.462 7.48242 53.9009 7.48242H41.7358C41.1747 7.48242 40.7197 7.9374 40.7197 8.49851V15.6111C40.7197 16.1722 41.1747 16.6272 41.7358 16.6272ZM42.7519 9.51459H52.8851V14.595H42.7519V9.51459Z" fill="#111B47"/>
<path d="M40.7219 23.4169H53.9008C54.4619 23.4169 54.9169 22.962 54.9169 22.4008C54.9169 21.8397 54.4619 21.3848 53.9008 21.3848H40.7219C39.3906 21.4061 39.3834 23.3938 40.7219 23.4169Z" fill="#111B47"/>
<path d="M53.9001 29.5137H45.7905C45.2294 29.5137 44.7744 29.9686 44.7744 30.5298V37.6423C44.7744 38.2034 45.2294 38.6584 45.7905 38.6584H53.9001C54.4612 38.6584 54.9162 38.2034 54.9162 37.6423V30.5298C54.9162 29.9686 54.4612 29.5137 53.9001 29.5137ZM52.884 36.6263H46.8066V31.5458H52.884V36.6263Z" fill="#111B47"/>
</svg>

