<svg width="43" height="57" viewBox="0 0 43 57" fill="none" xmlns="http://www.w3.org/2000/svg">
<path d="M36.0794 29.6473C36.4013 29.2178 36.3145 28.6083 35.885 28.2864C35.4555 27.964 34.846 28.0513 34.5236 28.4808C31.0758 33.1106 25.4753 35.6239 19.7247 35.1221C13.9736 34.6202 8.89313 31.175 6.29954 26.0177C3.70573 20.8607 3.96835 14.7277 6.994 9.81124C10.0197 4.89479 15.3764 1.8968 21.1495 1.8887C26.9222 1.88101 32.2871 4.86412 35.3258 9.77188C38.3654 14.6796 38.6453 20.8119 36.0654 25.976C35.829 26.4548 36.0234 27.0349 36.5004 27.275C36.9778 27.5146 37.5592 27.3252 37.8025 26.8495C40.678 21.094 40.3674 14.2601 36.9805 8.7889C33.5941 3.31862 27.6157 -0.00762596 21.1815 1.31296e-05C14.7478 0.00724711 8.77725 3.34709 5.40332 8.82547C2.02962 14.3034 1.73436 21.1383 4.62295 26.8873C7.51203 32.636 13.1726 36.4781 19.5817 37.0402C25.991 37.6026 32.2336 34.8045 36.0798 29.6461L36.0794 29.6473Z" fill="#111B47"/>
<path d="M29.7408 16.4964C29.6255 16.1464 29.323 15.8914 28.959 15.8376L24.1955 15.1337L22.0597 10.7418C21.8974 10.4063 21.5574 10.1934 21.1848 10.1934C20.8123 10.1934 20.4723 10.4063 20.31 10.7418L18.1768 15.1337L13.4132 15.8376C13.0493 15.8914 12.7464 16.1464 12.6315 16.4964C12.5167 16.8459 12.6094 17.2306 12.8707 17.4897L16.3272 20.9132L15.5097 25.7504L15.5102 25.7509C15.4482 26.1167 15.6001 26.4856 15.9013 26.7022C16.2024 26.9183 16.6007 26.9445 16.9276 26.7695L21.1847 24.4957L25.4419 26.7695C25.7688 26.9445 26.1671 26.9183 26.4682 26.7022C26.7694 26.4856 26.9213 26.1167 26.8593 25.7509L26.0419 20.9136L29.4983 17.4901L29.4988 17.4897C29.761 17.2311 29.8546 16.8463 29.7407 16.4964L29.7408 16.4964ZM24.3153 19.8869C24.0906 20.1093 23.9879 20.4272 24.0404 20.7391L24.6119 24.122L21.6428 22.5359H21.6433C21.3566 22.3831 21.013 22.3831 20.7264 22.5359L17.7573 24.122L18.3288 20.7391H18.3292C18.3817 20.4272 18.279 20.1093 18.0543 19.8869L15.6211 17.4771L18.9691 16.9825C19.2869 16.9359 19.5613 16.7347 19.702 16.4458L21.1849 13.3921L22.6678 16.4458C22.8084 16.7347 23.0828 16.9359 23.4007 16.9825L26.7487 17.4771L24.3153 19.8869Z" fill="#111B47"/>
<path d="M17.8792 39.0942C17.3805 38.8953 16.8149 39.1376 16.616 39.6363L11.1064 53.4156L9.73006 48.0358C9.6428 47.6135 9.34936 47.2631 8.94924 47.1035C8.54866 46.9435 8.09473 46.995 7.7403 47.2414L3.03589 50.1938L9.03061 35.1923H9.03106C9.13369 34.9513 9.13505 34.6796 9.03468 34.4377C8.9343 34.1958 8.74079 34.0045 8.49756 33.9073C8.25431 33.8101 7.98259 33.8151 7.74296 33.9214C7.50379 34.0272 7.31706 34.2256 7.22573 34.4707L0.488171 51.3253C0.213731 51.885 0.332635 52.5577 0.782507 52.9891C1.16771 53.3038 1.71343 53.33 2.1271 53.0542L8.05758 49.335L9.79188 56.1169L9.79233 56.1165C9.89994 56.6048 10.3154 56.9637 10.8137 56.9999H10.8869C11.4828 56.9615 11.9937 56.5623 12.175 55.9935L18.4233 40.3588C18.5187 40.1187 18.5151 39.8511 18.4129 39.6137C18.3112 39.3768 18.1186 39.1901 17.879 39.0947L17.8792 39.0942Z" fill="#111B47"/>
<path d="M35.1447 34.4689C35.0533 34.2233 34.8671 34.0253 34.6274 33.9191C34.3883 33.8133 34.1161 33.8083 33.8728 33.9051C33.6301 34.0023 33.4361 34.1935 33.3357 34.4354C33.2354 34.6773 33.2367 34.9495 33.3398 35.19L39.334 50.195L34.6284 47.2431C34.2739 46.9971 33.82 46.9456 33.4194 47.1056C33.0189 47.2657 32.725 47.6161 32.6377 48.0384L31.2614 53.4181L25.7518 39.6377H25.7522C25.6595 39.394 25.4728 39.1973 25.2341 39.0929C24.9954 38.988 24.7245 38.9835 24.4822 39.0802C24.2403 39.177 24.0473 39.3673 23.9464 39.6078C23.8456 39.8484 23.8461 40.1192 23.9473 40.3597L30.1948 55.9932C30.3761 56.562 30.8875 56.9617 31.4834 57.0001H31.5562C32.0526 56.9644 32.4672 56.6077 32.5771 56.1221L34.3114 49.3397L40.2414 53.0566C40.6556 53.3329 41.2013 53.3066 41.5869 52.992C42.0368 52.5602 42.1557 51.887 41.8804 51.3277L35.1447 34.4689Z" fill="#111B47"/>
</svg>

