<svg width="67" height="57" viewBox="0 0 67 57" fill="none" xmlns="http://www.w3.org/2000/svg">
<path d="M62.9433 56.9989H4.07615C2.99583 56.9974 1.9593 56.5651 1.19511 55.7958C0.430966 55.0266 0.00146934 53.9831 0 52.8955V8.37529C0.00340489 7.28971 0.434365 6.24969 1.19851 5.48341C1.96266 4.71713 2.99771 4.28717 4.07606 4.28814H5.08098V3.17613C5.08487 2.04012 5.68899 0.992235 6.66663 0.425265C7.6448 -0.141755 8.8486 -0.141755 9.82634 0.425265C10.8045 0.992285 11.4086 2.04018 11.412 3.17613V4.28814H15.5776V3.17613C15.5815 2.04012 16.1856 0.992235 17.1632 0.425265C18.1409 -0.141755 19.3448 -0.141755 20.3229 0.425265C21.3006 0.992285 21.9047 2.04018 21.9086 3.17613V4.28814H26.0907V3.17613C26.0941 2.04012 26.6983 0.992235 27.6764 0.425265C28.6541 -0.141755 29.858 -0.141755 30.8356 0.425265C31.8138 0.992285 32.4179 2.04018 32.4212 3.17613V4.28814H36.6034V3.17613C36.6073 2.04012 37.2114 0.992235 38.189 0.425265C39.1672 -0.141755 40.371 -0.141755 41.3487 0.425265C42.3264 0.992285 42.9305 2.04018 42.9344 3.17613V4.28814H47.1165V3.17613C47.1199 2.04012 47.7241 0.992235 48.7022 0.425265C49.6799 -0.141755 50.8838 -0.141755 51.8619 0.425265C52.8396 0.992285 53.4437 2.04018 53.4476 3.17613V4.28814H54.486H54.4855C55.5503 4.28716 56.5728 4.70582 57.3345 5.45451C58.0962 6.20272 58.5364 7.22173 58.5612 8.29312L66.9377 52.169C67.1468 53.3618 66.8239 54.587 66.0539 55.5178C65.2844 56.4487 64.1462 56.9912 62.9434 57L62.9433 56.9989ZM57.7474 55.3536H62.9433C63.6622 55.3532 64.3442 55.0324 64.8053 54.4772C65.2664 53.9214 65.4595 53.1889 65.3325 52.4764L58.5622 17.0142V52.8963C58.5632 53.7831 58.2772 54.6459 57.7475 55.3544L57.7474 55.3536ZM1.63343 16.4166V52.8967C1.6344 53.5485 1.89171 54.1733 2.34942 54.634C2.80713 55.0947 3.42779 55.3538 4.07515 55.3548H54.4849C55.1323 55.3538 55.753 55.0948 56.2111 54.634C56.6688 54.1732 56.9261 53.5484 56.9271 52.8967V16.4166H1.63343ZM1.63343 14.7714H56.9268V8.3755C56.9239 7.72621 56.6651 7.1043 56.2074 6.64651C55.7497 6.18869 55.13 5.93211 54.4846 5.93357H53.4461V7.02943C53.449 7.87605 53.1168 8.68935 52.5229 9.28916C51.929 9.88897 51.122 10.2259 50.281 10.2259C49.4395 10.2259 48.6331 9.889 48.0391 9.28916C47.4448 8.68932 47.1125 7.87606 47.1155 7.02943V5.93357H42.9333V7.02943C42.9357 7.87605 42.6035 8.68935 42.0096 9.28916C41.4157 9.889 40.6092 10.2259 39.7677 10.2259C38.9263 10.2259 38.1198 9.889 37.5259 9.28916C36.9319 8.68932 36.5997 7.87606 36.6022 7.02943V5.93357H32.42V7.02943C32.4229 7.87605 32.0907 8.68935 31.4968 9.28916C30.9029 9.88897 30.096 10.2259 29.2549 10.2259C28.4135 10.2259 27.6065 9.889 27.0126 9.28916C26.4187 8.68932 26.0864 7.87606 26.0894 7.02943V5.93357H21.9072V7.02943C21.9096 7.87605 21.5774 8.68935 20.9835 9.28916C20.3896 9.889 19.5832 10.2259 18.7416 10.2259C17.9002 10.2259 17.0937 9.889 16.4998 9.28916C15.9058 8.68932 15.5737 7.87606 15.5761 7.02943V5.93357H11.4105V7.02943C11.4134 7.87605 11.0807 8.68935 10.4868 9.28916C9.89288 9.88897 9.08644 10.2259 8.24493 10.2259C7.40392 10.2259 6.59702 9.889 6.00306 9.28916C5.40915 8.68932 5.07693 7.87606 5.07936 7.02943V5.93357H4.07444C3.42946 5.9321 2.80981 6.18869 2.35207 6.64651C1.89436 7.10434 1.63559 7.72621 1.63268 8.3755L1.63343 14.7714ZM48.7508 7.02934C48.7581 7.87498 49.4415 8.55714 50.282 8.55714C51.1221 8.55714 51.8054 7.87505 51.8133 7.02934V3.17625C51.8079 2.32866 51.124 1.64407 50.282 1.64407C49.4396 1.64407 48.7557 2.32861 48.7508 3.17625V7.02934ZM38.2375 7.02934C38.2453 7.87498 38.9282 8.55714 39.7688 8.55714C40.6093 8.55714 41.2926 7.87505 41.3 7.02934V3.17625C41.2951 2.32866 40.6107 1.64407 39.7688 1.64407C38.9268 1.64407 38.2429 2.32861 38.2375 3.17625V7.02934ZM27.7242 7.02934H27.7247C27.7325 7.87498 28.4154 8.55664 29.256 8.55664C30.096 8.55615 30.7788 7.87503 30.7867 7.02934V3.17625C30.7818 2.32866 30.0979 1.64407 29.2555 1.64407C28.4135 1.64407 27.7296 2.32861 27.7247 3.17625L27.7242 7.02934ZM17.211 7.02934H17.2114C17.2187 7.87498 17.9022 8.55714 18.7427 8.55714C19.5832 8.55714 20.2661 7.87505 20.2739 7.02934V3.17625C20.2686 2.32866 19.5847 1.64407 18.7427 1.64407C17.9007 1.64407 17.2163 2.32861 17.2114 3.17625L17.211 7.02934ZM6.71424 7.02934H6.71473C6.72251 7.87498 7.40592 8.55714 8.24596 8.55714C9.08647 8.55714 9.76985 7.87505 9.77719 7.02934V3.17625C9.77233 2.32866 9.08794 1.64407 8.24596 1.64407C7.40399 1.64407 6.72008 2.32861 6.71473 3.17625L6.71424 7.02934ZM43.2698 48.8608C41.4525 48.8588 39.7107 48.1312 38.4262 46.8379C37.1411 45.5448 36.4188 43.7907 36.4163 41.962C36.7378 32.8308 49.8023 32.8333 50.1223 41.962H50.1228C50.1208 43.7914 49.398 45.5448 48.1129 46.8379C46.8283 48.1316 45.0859 48.8587 43.2693 48.8608H43.2698ZM43.2698 36.708C36.3725 36.9283 36.3739 46.9961 43.2698 47.2155C50.1671 46.9952 50.1656 36.9273 43.2698 36.708ZM30.7505 48.8608H27.812C27.367 48.8524 27.0104 48.4867 27.0104 48.0381C27.0104 47.5901 27.367 47.2243 27.812 47.2155H30.7505C31.1955 47.2243 31.5521 47.5901 31.5521 48.0381C31.5521 48.4867 31.1955 48.8524 30.7505 48.8608ZM21.4245 48.8608H18.4861C18.0405 48.8524 17.6845 48.4867 17.6845 48.0381C17.6845 47.5901 18.0405 47.2243 18.4861 47.2155H21.4245H21.424C21.8691 47.2243 22.2256 47.5901 22.2256 48.0381C22.2256 48.4867 21.8696 48.8524 21.424 48.8608H21.4245ZM12.099 48.8608H9.16008C8.71502 48.8524 8.35848 48.4867 8.35848 48.0381C8.35848 47.5901 8.71502 47.2243 9.16008 47.2155H12.0985C12.5436 47.2243 12.9001 47.5901 12.9001 48.0381C12.9001 48.4867 12.5436 48.8524 12.0985 48.8608H12.099ZM42.7074 44.1469C42.4905 44.1469 42.2828 44.0602 42.1296 43.906L40.5473 42.3131C40.2389 41.9904 40.2438 41.4777 40.5585 41.1609C40.8732 40.8441 41.3825 40.8392 41.703 41.1502L42.7075 42.1613L44.836 40.018V40.0175C45.157 39.7071 45.6658 39.712 45.9805 40.0288C46.2952 40.3456 46.3001 40.8583 45.9917 41.181L43.2854 43.9059C43.1322 44.0601 42.9239 44.1469 42.7074 44.1469ZM30.7501 42.7847H27.8117C27.3666 42.7759 27.0101 42.4101 27.0101 41.962C27.0101 41.5135 27.3666 41.1477 27.8117 41.1394H30.7501C31.1952 41.1477 31.5517 41.5135 31.5517 41.962C31.5517 42.4101 31.1952 42.7759 30.7501 42.7847ZM21.4241 42.7847H18.4857C18.0401 42.7759 17.6841 42.4101 17.6841 41.962C17.6841 41.5135 18.0401 41.1477 18.4857 41.1394H21.4241H21.4236C21.8687 41.1477 22.2252 41.5135 22.2252 41.962C22.2252 42.4101 21.8692 42.7759 21.4236 42.7847H21.4241ZM12.0986 42.7847H9.15971C8.71464 42.7759 8.3581 42.4101 8.3581 41.962C8.3581 41.5135 8.71464 41.1477 9.15971 41.1394H12.0981C12.5432 41.1477 12.8997 41.5135 12.8997 41.962C12.8997 42.4101 12.5432 42.7759 12.0981 42.7847H12.0986ZM30.7506 36.708H27.8117C27.3666 36.6991 27.0101 36.3334 27.0101 35.8853C27.0101 35.4373 27.3666 35.0715 27.8117 35.0627H30.7501C31.1947 35.072 31.5507 35.4373 31.5507 35.8853C31.5507 36.3334 31.1947 36.6986 30.7501 36.708H30.7506ZM21.4246 36.708H18.4857C18.0401 36.6991 17.6841 36.3334 17.6841 35.8853C17.6841 35.4373 18.0401 35.0715 18.4857 35.0627H21.4241H21.4236C21.8687 35.072 22.2243 35.4373 22.2247 35.8853C22.2247 36.3334 21.8687 36.6986 21.4236 36.708H21.4246ZM12.0991 36.708H9.15983C8.71477 36.6991 8.35823 36.3334 8.35823 35.8853C8.35823 35.4373 8.71477 35.0715 9.15983 35.0627H12.0983C12.5428 35.072 12.8989 35.4373 12.8989 35.8853C12.8989 36.3334 12.5433 36.6986 12.0983 36.708H12.0991ZM49.4018 30.6312H46.4634C46.0183 30.6229 45.6618 30.2571 45.6618 29.8086C45.6618 29.3606 46.0183 28.9948 46.4634 28.986H49.4013H49.4008C49.8454 28.9958 50.2005 29.3611 50.2005 29.8086C50.201 30.2562 49.8454 30.6219 49.4013 30.6312H49.4018ZM40.0763 30.6312H37.137C36.6919 30.6229 36.3359 30.2571 36.3359 29.8086C36.3359 29.3606 36.6919 28.9948 37.1375 28.986H40.0759H40.0754C40.52 28.9958 40.8751 29.3615 40.8751 29.8086C40.8751 30.2562 40.52 30.6219 40.0754 30.6312H40.0763ZM30.7508 30.6312H27.8115C27.3665 30.6229 27.0099 30.2571 27.0099 29.8086C27.0099 29.3606 27.3665 28.9948 27.8115 28.986H30.75C31.1941 28.9958 31.5496 29.3611 31.5496 29.8086C31.5496 30.2562 31.1941 30.6219 30.75 30.6312H30.7508ZM21.4249 30.6312H18.4856C18.04 30.6229 17.684 30.2571 17.684 29.8086C17.684 29.3606 18.04 28.9948 18.4856 28.986H21.424H21.4235C21.8681 28.9958 22.2232 29.3611 22.2232 29.8086C22.2232 30.2562 21.8681 30.6219 21.4235 30.6312H21.4249ZM12.0994 30.6312H9.15958C8.71452 30.6229 8.35798 30.2571 8.35798 29.8086C8.35798 29.3606 8.71452 28.9948 9.15958 28.986H12.098C12.5426 28.9958 12.8977 29.3611 12.8977 29.8086C12.8977 30.2562 12.5426 30.6219 12.098 30.6312H12.0994ZM49.402 24.5545L46.4631 24.555C46.0181 24.5462 45.6615 24.1804 45.6615 23.7324C45.6615 23.2843 46.0181 22.9186 46.4631 22.9097H49.4011H49.4006C49.8447 22.92 50.1993 23.2853 50.1993 23.7324C50.1997 24.1794 49.8447 24.5447 49.4011 24.555L49.402 24.5545ZM40.0766 24.5545L37.1368 24.555C36.6917 24.5462 36.3356 24.1804 36.3356 23.7324C36.3356 23.2839 36.6917 22.9186 37.1372 22.9097H40.0757H40.0752C40.5193 22.92 40.8739 23.2853 40.8739 23.7324C40.8739 24.1794 40.5193 24.5447 40.0752 24.555L40.0766 24.5545ZM30.7511 24.5545L27.8113 24.555C27.3662 24.5462 27.0097 24.1804 27.0097 23.7324C27.0097 23.2843 27.3662 22.9186 27.8113 22.9097H30.7497C31.1938 22.92 31.5484 23.2853 31.5484 23.7324C31.5484 24.1794 31.1938 24.5447 30.7497 24.555L30.7511 24.5545ZM21.4251 24.5545L18.4853 24.555C18.0398 24.5462 17.6837 24.1804 17.6837 23.7324C17.6837 23.2843 18.0398 22.9186 18.4853 22.9097H21.4237H21.4233C21.8673 22.92 22.2219 23.2853 22.2219 23.7324C22.2219 24.1794 21.8673 24.5447 21.4233 24.555L21.4251 24.5545ZM12.0996 24.5545L9.15933 24.555C8.71427 24.5462 8.35773 24.1804 8.35773 23.7324C8.35773 23.2843 8.71427 22.9186 9.15933 22.9097H12.0978C12.5419 22.92 12.8965 23.2853 12.8965 23.7324C12.8965 24.1794 12.5419 24.5447 12.0978 24.555L12.0996 24.5545Z" fill="#111B47"/>
</svg>

